ExpletusSans-Medium.ufo
<glyph name="exclam" format="2">
  <advance width="702.0"/>
  <unicode hex="0021"/>
  <outline>
    <contour>
      <point x="202.54545454545453" y="394.54545454545456" type="line"/>
      <point x="356.0" y="394.54545454545456" type="line"/>
      <point x="518.5454545454545" y="1454.0" type="line" name="hr00"/>
      <point x="305.45454545454544" y="1454.0" type="line"/>
    </contour>
    <contour>
      <point x="226.0" y="-29.454545454545453" type="curve" smooth="yes"/>
      <point x="302.0" y="-29.454545454545453"/>
      <point x="366.0" y="26.545454545454547"/>
      <point x="375.09090909090907" y="101.0909090909091" type="curve" smooth="yes"/>
      <point x="383.6363636363636" y="177.0909090909091"/>
      <point x="333.27272727272725" y="235.63636363636363"/>
      <point x="257.27272727272725" y="235.63636363636363" type="curve" smooth="yes"/>
      <point x="182.1818181818182" y="235.63636363636363"/>
      <point x="119.0909090909091" y="177.0909090909091"/>
      <point x="110.54545454545455" y="101.0909090909091" type="curve" smooth="yes"/>
      <point x="101.45454545454545" y="26.545454545454547"/>
      <point x="150.9090909090909" y="-29.454545454545453"/>
    </contour>
  </outline>
</glyph>
<glyph name="numbersign" format="2">
  <advance width="1788.0"/>
  <unicode hex="0023"/>
  <outline>
    <contour>
      <point x="316.1818181818182" y="0.0" type="line"/>
      <point x="487.8181818181818" y="0.0" type="line" name="hr01"/>
      <point x="781.6363636363636" y="941.4545454545455" type="line"/>
      <point x="1190.1818181818182" y="941.4545454545455" type="line"/>
      <point x="1224.7272727272727" y="942.5454545454545" type="line"/>
      <point x="1212.5454545454545" y="910.5454545454545" type="line"/>
      <point x="1073.2727272727273" y="466.0" type="line"/>
      <point x="858.3636363636364" y="466.0" type="line" smooth="yes"/>
      <point x="750.7272727272727" y="466.0"/>
      <point x="692.0" y="400.0"/>
      <point x="657.4545454545455" y="324.0" type="curve"/>
      <point x="1006.1818181818181" y="324.0" type="line"/>
      <point x="1033.8181818181818" y="325.09090909090907" type="line"/>
      <point x="1023.0909090909091" y="298.0" type="line"/>
      <point x="930.1818181818181" y="0.0" type="line"/>
      <point x="1101.8181818181818" y="0.0" type="line" name="hr08"/>
      <point x="1202.1818181818182" y="324.0" type="line"/>
      <point x="1447.4545454545455" y="324.0" type="line" name="hr07"/>
      <point x="1465.090909090909" y="466.0" type="line"/>
      <point x="1244.909090909091" y="466.0" type="line"/>
      <point x="1395.090909090909" y="942.0" type="line"/>
      <point x="1642.0" y="942.0" type="line"/>
      <point x="1659.6363636363637" y="1084.0" type="line"/>
      <point x="1438.909090909091" y="1084.0" type="line" name="hr06"/>
      <point x="1539.8181818181818" y="1404.0" type="line"/>
      <point x="1368.1818181818182" y="1404.0" type="line" name="hr05"/>
      <point x="1267.8181818181818" y="1084.0" type="line"/>
      <point x="825.4545454545455" y="1084.0" type="line" name="hr04"/>
      <point x="925.8181818181819" y="1404.0" type="line"/>
      <point x="754.1818181818181" y="1404.0" type="line" name="hr03"/>
      <point x="654.3636363636364" y="1084.0" type="line"/>
      <point x="405.27272727272725" y="1084.0" type="line"/>
      <point x="387.6363636363636" y="941.4545454545455" type="line"/>
      <point x="572.0" y="941.4545454545455" type="line"/>
      <point x="611.2727272727273" y="942.5454545454545" type="line"/>
      <point x="599.6363636363636" y="913.2727272727273" type="line"/>
      <point x="459.8181818181818" y="465.45454545454544" type="line"/>
      <point x="211.27272727272728" y="465.45454545454544" type="line"/>
      <point x="193.63636363636363" y="324.0" type="line"/>
      <point x="391.8181818181818" y="324.0" type="line"/>
      <point x="420.3636363636364" y="325.09090909090907" type="line" name="hr02"/>
      <point x="409.6363636363636" y="300.1818181818182" type="line"/>
    </contour>
  </outline>
</glyph>
<glyph name="dollar" format="2">
  <advance width="1028.0"/>
  <unicode hex="0024"/>
  <outline>
    <contour>
      <point x="416.72727272727275" y="-214.0" type="line"/>
      <point x="579.2727272727273" y="-214.0" type="line"/>
      <point x="605.2727272727273" y="-13.09090909090909" type="line"/>
      <point x="836.3636363636364" y="25.272727272727273"/>
      <point x="986.3636363636364" y="180.0"/>
      <point x="1008.0" y="354.72727272727275" type="curve" smooth="yes"/>
      <point x="1062.0" y="794.9090909090909"/>
      <point x="407.6363636363636" y="791.6363636363636"/>
      <point x="442.54545454545456" y="1084.1818181818182" type="curve" smooth="yes"/>
      <point x="454.54545454545456" y="1180.3636363636363"/>
      <point x="546.3636363636364" y="1261.8181818181818"/>
      <point x="676.5454545454545" y="1261.8181818181818" type="curve" smooth="yes"/>
      <point x="755.8181818181819" y="1261.8181818181818"/>
      <point x="837.6363636363636" y="1250.7272727272727"/>
      <point x="950.1818181818181" y="1217.2727272727273" type="curve"/>
      <point x="1028.7272727272727" y="1361.4545454545455" type="line"/>
      <point x="929.4545454545455" y="1392.5454545454545"/>
      <point x="855.8181818181819" y="1410.0"/>
      <point x="781.2727272727273" y="1418.0" type="curve"/>
      <point x="805.2727272727273" y="1620.0" type="line"/>
      <point x="642.7272727272727" y="1620.0" type="line"/>
      <point x="618.7272727272727" y="1420.909090909091" type="line"/>
      <point x="415.27272727272725" y="1399.2727272727273"/>
      <point x="256.54545454545456" y="1264.3636363636363"/>
      <point x="232.9090909090909" y="1079.8181818181818" type="curve" smooth="yes"/>
      <point x="181.45454545454547" y="648.1818181818181"/>
      <point x="833.2727272727273" y="676.0"/>
      <point x="793.4545454545455" y="358.72727272727275" type="curve" smooth="yes"/>
      <point x="780.0" y="242.72727272727272"/>
      <point x="658.7272727272727" y="139.8181818181818"/>
      <point x="494.90909090909093" y="139.8181818181818" type="curve" smooth="yes"/>
      <point x="397.27272727272725" y="139.8181818181818"/>
      <point x="285.8181818181818" y="161.8181818181818"/>
      <point x="164.36363636363637" y="220.0" type="curve"/>
      <point x="87.63636363636364" y="74.18181818181819" type="line"/>
      <point x="209.0909090909091" y="12.181818181818182"/>
      <point x="334.90909090909093" y="-14.90909090909091"/>
      <point x="440.72727272727275" y="-22.0" type="curve" name="hr01"/>
    </contour>
  </outline>
</glyph>
<glyph name="percent" format="2">
  <advance width="1628.0"/>
  <unicode hex="0025"/>
  <outline>
    <contour>
      <point x="305.09090909090907" y="0.0" type="line"/>
      <point x="467.45454545454544" y="0.0" type="line"/>
      <point x="1515.4545454545455" y="1404.0" type="line"/>
      <point x="1353.090909090909" y="1404.0" type="line"/>
    </contour>
    <contour>
      <point x="448.0" y="618.5454545454545" type="curve" smooth="yes"/>
      <point x="641.0909090909091" y="618.5454545454545"/>
      <point x="795.0909090909091" y="768.5454545454545"/>
      <point x="825.6363636363636" y="1026.5454545454545" type="curve"/>
      <point x="857.0909090909091" y="1284.0"/>
      <point x="742.5454545454545" y="1434.0"/>
      <point x="549.4545454545455" y="1434.0" type="curve"/>
      <point x="353.45454545454544" y="1434.0"/>
      <point x="201.45454545454547" y="1284.0"/>
      <point x="170.0" y="1026.5454545454545" type="curve"/>
      <point x="139.45454545454547" y="766.5454545454545"/>
      <point x="252.0" y="618.5454545454545"/>
    </contour>
    <contour>
      <point x="464.54545454545456" y="748.9090909090909" type="curve" smooth="yes"/>
      <point x="376.54545454545456" y="748.9090909090909"/>
      <point x="330.1818181818182" y="838.7272727272727"/>
      <point x="353.6363636363636" y="1026.5454545454545" type="curve"/>
      <point x="376.54545454545456" y="1211.8181818181818"/>
      <point x="444.3636363636364" y="1303.6363636363637"/>
      <point x="532.3636363636364" y="1303.6363636363637" type="curve"/>
      <point x="621.4545454545455" y="1303.6363636363637"/>
      <point x="664.3636363636364" y="1211.8181818181818"/>
      <point x="641.4545454545455" y="1026.5454545454545" type="curve"/>
      <point x="618.0" y="838.7272727272727"/>
      <point x="553.6363636363636" y="748.9090909090909"/>
    </contour>
    <contour>
      <point x="1271.090909090909" y="-26.0" type="curve" smooth="yes" name="hr01"/>
      <point x="1465.6363636363637" y="-26.0"/>
      <point x="1618.1818181818182" y="124.0"/>
      <point x="1650.1818181818182" y="382.0" type="curve" smooth="yes"/>
      <point x="1682.1818181818182" y="638.0"/>
      <point x="1565.6363636363637" y="788.0"/>
      <point x="1371.090909090909" y="788.0" type="curve" smooth="yes"/>
      <point x="1176.5454545454545" y="788.0"/>
      <point x="1026.5454545454545" y="638.0"/>
      <point x="994.5454545454545" y="382.0" type="curve" smooth="yes"/>
      <point x="962.5454545454545" y="122.0"/>
      <point x="1076.5454545454545" y="-26.0"/>
    </contour>
    <contour>
      <point x="1286.7272727272727" y="102.9090909090909" type="curve" smooth="yes"/>
      <point x="1200.1818181818182" y="102.9090909090909"/>
      <point x="1155.2727272727273" y="194.1818181818182"/>
      <point x="1178.1818181818182" y="382.0" type="curve" smooth="yes"/>
      <point x="1201.090909090909" y="565.8181818181819"/>
      <point x="1268.909090909091" y="659.0909090909091"/>
      <point x="1355.4545454545455" y="659.0909090909091" type="curve" smooth="yes"/>
      <point x="1446.0" y="659.0909090909091"/>
      <point x="1488.909090909091" y="565.8181818181819"/>
      <point x="1466.0" y="382.0" type="curve" smooth="yes"/>
      <point x="1443.090909090909" y="194.1818181818182"/>
      <point x="1377.2727272727273" y="102.9090909090909"/>
    </contour>
  </outline>
</glyph>
<glyph name="ampersand" format="2">
  <advance width="1522.0"/>
  <unicode hex="0026"/>
  <outline>
    <contour>
      <point x="666.0" y="-22.0" type="curve" smooth="yes"/>
      <point x="804.9090909090909" y="-22.0"/>
      <point x="912.7272727272727" y="21.636363636363637"/>
      <point x="1016.1818181818181" y="95.45454545454545" type="curve"/>
      <point x="962.3636363636364" y="151.63636363636363"/>
      <point x="895.8181818181819" y="176.72727272727272"/>
      <point x="804.0" y="154.1818181818182" type="curve" smooth="yes"/>
      <point x="768.3636363636364" y="144.9090909090909"/>
      <point x="744.1818181818181" y="139.45454545454544"/>
      <point x="716.1818181818181" y="139.45454545454544" type="curve" smooth="yes" name="hr02"/>
      <point x="556.7272727272727" y="139.45454545454544"/>
      <point x="484.1818181818182" y="264.54545454545456"/>
      <point x="506.54545454545456" y="444.0" type="curve" smooth="yes"/>
      <point x="518.0" y="546.9090909090909"/>
      <point x="571.4545454545455" y="622.0"/>
      <point x="641.8181818181819" y="685.2727272727273" type="curve"/>
      <point x="662.3636363636364" y="706.7272727272727" type="line"/>
      <point x="674.9090909090909" y="685.8181818181819" type="line"/>
      <point x="1178.1818181818182" y="0.0" type="line"/>
      <point x="1436.5454545454545" y="0.0" type="line" name="hr01"/>
      <point x="1218.5454545454545" y="292.54545454545456" type="line"/>
      <point x="1318.0" y="426.54545454545456"/>
      <point x="1384.0" y="582.0"/>
      <point x="1442.0" y="758.0" type="curve"/>
      <point x="1274.5454545454545" y="758.0" type="line"/>
      <point x="1242.7272727272727" y="643.0909090909091"/>
      <point x="1202.0" y="551.4545454545455"/>
      <point x="1138.0" y="451.45454545454544" type="curve"/>
      <point x="1120.909090909091" y="422.54545454545456" type="line"/>
      <point x="1104.0" y="449.8181818181818" type="line"/>
      <point x="840.5454545454545" y="808.0" type="line"/>
      <point x="746.5454545454545" y="940.0"/>
      <point x="686.5454545454545" y="1018.9090909090909"/>
      <point x="701.4545454545455" y="1135.4545454545455" type="curve" smooth="yes"/>
      <point x="713.4545454545455" y="1238.0"/>
      <point x="809.0909090909091" y="1312.5454545454545"/>
      <point x="930.3636363636364" y="1312.5454545454545" type="curve" smooth="yes"/>
      <point x="1002.3636363636364" y="1312.5454545454545"/>
      <point x="1098.7272727272727" y="1296.5454545454545"/>
      <point x="1169.6363636363637" y="1264.1818181818182" type="curve"/>
      <point x="1238.5454545454545" y="1406.0" type="line"/>
      <point x="1153.8181818181818" y="1451.4545454545455"/>
      <point x="1042.5454545454545" y="1474.0"/>
      <point x="954.5454545454545" y="1474.0" type="curve" smooth="yes"/>
      <point x="706.7272727272727" y="1474.0"/>
      <point x="531.6363636363636" y="1328.0"/>
      <point x="506.0" y="1117.4545454545455" type="curve" smooth="yes"/>
      <point x="494.54545454545456" y="1030.3636363636363"/>
      <point x="515.6363636363636" y="941.0909090909091"/>
      <point x="579.0909090909091" y="831.4545454545455" type="curve"/>
      <point x="437.09090909090907" y="733.4545454545455"/>
      <point x="309.8181818181818" y="599.4545454545455"/>
      <point x="287.8181818181818" y="418.0" type="curve" smooth="yes"/>
      <point x="260.1818181818182" y="183.45454545454547"/>
      <point x="396.0" y="-22.0"/>
    </contour>
  </outline>
</glyph>
<glyph name="parenleft" format="2">
  <advance width="806.0"/>
  <unicode hex="0028"/>
  <outline>
    <contour>
      <point x="670.3636363636364" y="-352.0" type="curve"/>
      <point x="776.1818181818181" y="-243.27272727272728" type="line"/>
      <point x="544.5454545454545" y="-35.45454545454545"/>
      <point x="552.3636363636364" y="148.0"/>
      <point x="606.3636363636364" y="592.0" type="curve" name="hr00"/>
      <point x="660.3636363636364" y="1034.0"/>
      <point x="698.3636363636364" y="1216.909090909091"/>
      <point x="982.0" y="1425.8181818181818" type="curve"/>
      <point x="902.3636363636364" y="1534.0" type="line"/>
      <point x="568.3636363636364" y="1326.0"/>
      <point x="481.45454545454544" y="1090.0"/>
      <point x="421.45454545454544" y="592.0" type="curve"/>
      <point x="359.45454545454544" y="92.0"/>
      <point x="388.3636363636364" y="-144.0"/>
    </contour>
  </outline>
</glyph>
<glyph name="parenright" format="2">
  <advance width="802.0"/>
  <unicode hex="0029"/>
  <outline>
    <contour>
      <point x="50.54545454545455" y="-352.0" type="line"/>
      <point x="384.54545454545456" y="-144.0"/>
      <point x="469.45454545454544" y="92.0"/>
      <point x="531.4545454545455" y="592.0" type="curve"/>
      <point x="591.4545454545455" y="1090.0"/>
      <point x="564.5454545454545" y="1326.0"/>
      <point x="282.54545454545456" y="1534.0" type="curve"/>
      <point x="176.72727272727272" y="1425.8181818181818" type="line"/>
      <point x="408.3636363636364" y="1216.909090909091"/>
      <point x="400.54545454545456" y="1034.0"/>
      <point x="346.54545454545456" y="592.0" type="curve" name="hr00"/>
      <point x="292.54545454545456" y="148.0"/>
      <point x="253.45454545454547" y="-35.45454545454545"/>
      <point x="-27.09090909090909" y="-243.27272727272728" type="curve"/>
    </contour>
  </outline>
</glyph>
<glyph name="asterisk" format="2">
  <advance width="1060.0"/>
  <unicode hex="002A"/>
  <outline>
    <contour>
      <point x="460.54545454545456" y="703.6363636363636" type="line"/>
      <point x="623.4545454545455" y="1004.0" type="line"/>
      <point x="711.2727272727273" y="703.6363636363636" type="line"/>
      <point x="869.6363636363636" y="788.3636363636364" type="line"/>
      <point x="703.4545454545455" y="1046.0" type="line"/>
      <point x="716.5454545454545" y="1044.909090909091"/>
      <point x="740.5454545454545" y="1043.8181818181818"/>
      <point x="1022.9090909090909" y="1006.7272727272727" type="curve"/>
      <point x="1043.090909090909" y="1176.1818181818182" type="line"/>
      <point x="716.0" y="1136.0" type="line"/>
      <point x="722.9090909090909" y="1143.4545454545455"/>
      <point x="748.1818181818181" y="1177.4545454545455"/>
      <point x="946.0" y="1393.6363636363637" type="curve"/>
      <point x="809.8181818181819" y="1478.909090909091" type="line" name="hr00"/>
      <point x="644.9090909090909" y="1180.0" type="line"/>
      <point x="552.1818181818181" y="1478.909090909091" type="line"/>
      <point x="393.8181818181818" y="1393.6363636363637" type="line"/>
      <point x="562.3636363636364" y="1138.0" type="line"/>
      <point x="245.0909090909091" y="1176.7272727272727" type="line"/>
      <point x="224.9090909090909" y="1007.2727272727273" type="line"/>
      <point x="552.0" y="1048.0" type="line"/>
      <point x="324.3636363636364" y="788.3636363636364" type="line"/>
    </contour>
  </outline>
</glyph>
<glyph name="plus" format="2">
  <advance width="1136.0"/>
  <unicode hex="002B"/>
  <outline>
    <contour>
      <point x="492.72727272727275" y="124.0" type="line"/>
      <point x="656.7272727272727" y="124.0" type="line"/>
      <point x="707.6363636363636" y="537.2727272727273" type="line"/>
      <point x="1094.909090909091" y="537.2727272727273" type="line"/>
      <point x="1113.090909090909" y="682.7272727272727" type="line"/>
      <point x="725.8181818181819" y="682.7272727272727" type="line"/>
      <point x="776.7272727272727" y="1092.0" type="line"/>
      <point x="612.7272727272727" y="1092.0" type="line"/>
      <point x="561.8181818181819" y="682.7272727272727" type="line"/>
      <point x="177.0909090909091" y="682.7272727272727" type="line" name="hr00"/>
      <point x="158.9090909090909" y="537.2727272727273" type="line"/>
      <point x="543.6363636363636" y="537.2727272727273" type="line"/>
    </contour>
  </outline>
</glyph>
<glyph name="comma" format="2">
  <advance width="425.09090909090907"/>
  <unicode hex="002C"/>
  <outline>
    <contour>
      <point x="84.36363636363636" y="-212.36363636363637" type="line"/>
      <point x="230.54545454545453" y="-247.45454545454544"/>
      <point x="292.9090909090909" y="-87.27272727272727"/>
      <point x="309.09090909090907" y="40.0" type="curve" smooth="yes"/>
      <point x="329.09090909090907" y="196.0" type="line"/>
      <point x="136.0" y="196.0" type="line" name="hr00"/>
    </contour>
  </outline>
</glyph>
<glyph name="period" format="2">
  <advance width="594.0"/>
  <unicode hex="002E"/>
  <outline>
    <contour>
      <point x="285.27272727272725" y="-30.0" type="curve" smooth="yes"/>
      <point x="361.27272727272725" y="-30.0"/>
      <point x="425.27272727272725" y="26.0"/>
      <point x="434.3636363636364" y="100.54545454545455" type="curve" smooth="yes"/>
      <point x="442.90909090909093" y="176.54545454545453"/>
      <point x="392.54545454545456" y="235.0909090909091"/>
      <point x="316.54545454545456" y="235.0909090909091" type="curve" smooth="yes"/>
      <point x="241.45454545454547" y="235.0909090909091"/>
      <point x="178.36363636363637" y="176.54545454545453"/>
      <point x="169.8181818181818" y="100.54545454545455" type="curve" smooth="yes" name="hr00"/>
      <point x="160.72727272727272" y="26.0"/>
      <point x="210.1818181818182" y="-30.0"/>
    </contour>
  </outline>
</glyph>
<glyph name="slash" format="2">
  <advance width="664.0"/>
  <unicode hex="002F"/>
  <outline>
    <contour>
      <point x="-8.0" y="-124.0" type="line" name="hr00"/>
      <point x="172.36363636363637" y="-124.0" type="line"/>
      <point x="852.3636363636364" y="1454.0" type="line"/>
      <point x="671.4545454545455" y="1454.0" type="line"/>
    </contour>
  </outline>
</glyph>
<glyph name="zero" format="2">
  <advance width="1348.7272727272727"/>
  <unicode hex="0030"/>
  <outline>
    <contour>
      <point x="653.4545454545455" y="-33.63636363636363" type="curve" smooth="yes"/>
      <point x="976.3636363636364" y="-33.63636363636363"/>
      <point x="1241.4545454545455" y="241.27272727272728"/>
      <point x="1296.1818181818182" y="698.0" type="curve" smooth="yes"/>
      <point x="1348.909090909091" y="1119.4545454545455"/>
      <point x="1185.090909090909" y="1433.6363636363637"/>
      <point x="831.0909090909091" y="1433.6363636363637" type="curve" smooth="yes"/>
      <point x="491.8181818181818" y="1433.6363636363637"/>
      <point x="241.8181818181818" y="1141.4545454545455"/>
      <point x="186.36363636363637" y="698.0" type="curve" smooth="yes"/>
      <point x="132.54545454545456" y="245.0909090909091"/>
      <point x="321.09090909090907" y="-33.63636363636363"/>
    </contour>
    <contour>
      <point x="672.1818181818181" y="126.72727272727272" type="curve" smooth="yes"/>
      <point x="462.1818181818182" y="126.72727272727272"/>
      <point x="368.9090909090909" y="342.0"/>
      <point x="411.8181818181818" y="698.0" type="curve" smooth="yes"/>
      <point x="456.1818181818182" y="1054.5454545454545"/>
      <point x="603.2727272727273" y="1273.2727272727273"/>
      <point x="813.8181818181819" y="1273.2727272727273" type="curve" smooth="yes"/>
      <point x="1022.3636363636364" y="1273.2727272727273"/>
      <point x="1115.090909090909" y="1054.5454545454545"/>
      <point x="1070.7272727272727" y="698.0" type="curve" smooth="yes"/>
      <point x="1027.8181818181818" y="342.0"/>
      <point x="880.7272727272727" y="126.72727272727272"/>
    </contour>
  </outline>
</glyph>
<glyph name="one" format="2">
  <advance width="638.0"/>
  <unicode hex="0031"/>
  <outline>
    <contour>
      <point x="279.8181818181818" y="0.0" type="line" name="hr00"/>
      <point x="489.27272727272725" y="0.0" type="line"/>
      <point x="661.2727272727273" y="1402.0" type="line"/>
      <point x="578.0" y="1402.0" type="line"/>
      <point x="125.27272727272728" y="1173.6363636363637" type="line"/>
      <point x="182.54545454545453" y="1038.3636363636363" type="line"/>
      <point x="421.6363636363636" y="1157.090909090909" type="line"/>
    </contour>
  </outline>
</glyph>
<glyph name="two" format="2">
  <advance width="1056.909090909091"/>
  <unicode hex="0032"/>
  <outline>
    <contour>
      <point x="106.9090909090909" y="0.0" type="line"/>
      <point x="976.5454545454545" y="0.0" type="line"/>
      <point x="996.7272727272727" y="175.8181818181818" type="line"/>
      <point x="430.1818181818182" y="175.8181818181818" type="line"/>
      <point x="385.6363636363636" y="168.36363636363637" type="line"/>
      <point x="420.1818181818182" y="202.9090909090909" type="line"/>
      <point x="617.4545454545455" y="451.45454545454544"/>
      <point x="1044.7272727272727" y="752.0"/>
      <point x="1082.5454545454545" y="1055.6363636363637" type="curve" smooth="yes" name="hr00"/>
      <point x="1110.5454545454545" y="1287.8181818181818"/>
      <point x="934.5454545454545" y="1421.6363636363637"/>
      <point x="675.4545454545455" y="1421.6363636363637" type="curve" smooth="yes"/>
      <point x="571.8181818181819" y="1421.6363636363637"/>
      <point x="459.09090909090907" y="1404.5454545454545"/>
      <point x="326.3636363636364" y="1339.6363636363637" type="curve"/>
      <point x="363.27272727272725" y="1192.0" type="line"/>
      <point x="476.0" y="1246.1818181818182"/>
      <point x="563.6363636363636" y="1261.2727272727273"/>
      <point x="634.3636363636364" y="1261.2727272727273" type="curve"/>
      <point x="771.6363636363636" y="1261.2727272727273"/>
      <point x="874.1818181818181" y="1177.6363636363637"/>
      <point x="856.7272727272727" y="1034.1818181818182" type="curve"/>
      <point x="825.2727272727273" y="772.9090909090909"/>
      <point x="387.0909090909091" y="473.0909090909091"/>
      <point x="116.54545454545455" y="87.45454545454545" type="curve"/>
    </contour>
  </outline>
</glyph>
<glyph name="three" format="2">
  <advance width="1056.0"/>
  <unicode hex="0033"/>
  <outline>
    <contour>
      <point x="401.8181818181818" y="-22.0" type="curve" smooth="yes"/>
      <point x="690.3636363636364" y="-22.0"/>
      <point x="930.5454545454545" y="171.45454545454547"/>
      <point x="959.0909090909091" y="406.90909090909093" type="curve" smooth="yes"/>
      <point x="981.0909090909091" y="586.7272727272727"/>
      <point x="875.4545454545455" y="714.9090909090909"/>
      <point x="748.5454545454545" y="764.1818181818181" type="curve"/>
      <point x="704.0" y="774.1818181818181" type="line"/>
      <point x="756.5454545454545" y="791.2727272727273" type="line"/>
      <point x="893.8181818181819" y="863.6363636363636"/>
      <point x="983.0909090909091" y="978.3636363636364"/>
      <point x="999.0909090909091" y="1103.6363636363637" type="curve" smooth="yes" name="hr00"/>
      <point x="1021.6363636363636" y="1293.2727272727273"/>
      <point x="869.2727272727273" y="1424.0"/>
      <point x="633.8181818181819" y="1424.0" type="curve" smooth="yes"/>
      <point x="525.2727272727273" y="1424.0"/>
      <point x="403.6363636363636" y="1406.0"/>
      <point x="264.90909090909093" y="1340.5454545454545" type="curve"/>
      <point x="301.6363636363636" y="1192.3636363636363" type="line"/>
      <point x="420.0" y="1248.1818181818182"/>
      <point x="511.6363636363636" y="1262.1818181818182"/>
      <point x="587.6363636363636" y="1262.1818181818182" type="curve" smooth="yes"/>
      <point x="705.2727272727273" y="1262.1818181818182"/>
      <point x="785.8181818181819" y="1190.3636363636363"/>
      <point x="772.9090909090909" y="1076.5454545454545" type="curve"/>
      <point x="756.0" y="940.7272727272727"/>
      <point x="619.6363636363636" y="884.0"/>
      <point x="475.6363636363636" y="824.9090909090909" type="curve" smooth="yes"/>
      <point x="376.90909090909093" y="786.1818181818181" type="line"/>
      <point x="379.27272727272725" y="661.2727272727273" type="line"/>
      <point x="604.7272727272727" y="661.2727272727273"/>
      <point x="760.3636363636364" y="605.4545454545455"/>
      <point x="736.9090909090909" y="410.90909090909093" type="curve" smooth="yes"/>
      <point x="720.3636363636364" y="282.1818181818182"/>
      <point x="593.6363636363636" y="139.8181818181818"/>
      <point x="408.54545454545456" y="139.8181818181818" type="curve" smooth="yes"/>
      <point x="295.09090909090907" y="139.8181818181818"/>
      <point x="191.45454545454544" y="176.1818181818182"/>
      <point x="123.45454545454545" y="215.63636363636363" type="curve"/>
      <point x="54.36363636363637" y="71.45454545454545" type="line"/>
      <point x="130.72727272727272" y="25.636363636363637"/>
      <point x="251.45454545454547" y="-22.0"/>
    </contour>
  </outline>
</glyph>
<glyph name="four" format="2">
  <advance width="1190.0"/>
  <unicode hex="0034"/>
  <outline>
    <contour>
      <point x="732.0" y="0.0" type="line"/>
      <point x="931.0909090909091" y="0.0" type="line"/>
      <point x="968.0" y="303.8181818181818" type="line"/>
      <point x="1128.5454545454545" y="303.8181818181818" type="line"/>
      <point x="1146.7272727272727" y="462.1818181818182" type="line"/>
      <point x="986.1818181818181" y="462.1818181818182" type="line"/>
      <point x="1103.090909090909" y="1402.0" type="line"/>
      <point x="884.9090909090909" y="1402.0" type="line" name="hr00"/>
      <point x="133.0909090909091" y="445.45454545454544" type="line"/>
      <point x="116.36363636363636" y="303.8181818181818" type="line"/>
      <point x="698.3636363636364" y="303.8181818181818" type="line"/>
      <point x="680.9090909090909" y="360.3636363636364"/>
      <point x="631.0909090909091" y="463.6363636363636"/>
      <point x="522.3636363636364" y="463.6363636363636" type="curve"/>
      <point x="368.9090909090909" y="463.6363636363636" type="line"/>
      <point x="334.1818181818182" y="460.1818181818182" type="line"/>
      <point x="363.45454545454544" y="487.09090909090907" type="line"/>
      <point x="838.3636363636364" y="1082.3636363636363" type="line"/>
      <point x="874.3636363636364" y="1134.0" type="line"/>
      <point x="863.8181818181819" y="1076.7272727272727" type="line"/>
    </contour>
  </outline>
</glyph>
<glyph name="five" format="2">
  <advance width="1071.090909090909"/>
  <unicode hex="0035"/>
  <outline>
    <contour>
      <point x="424.54545454545456" y="-22.545454545454547" type="curve" smooth="yes"/>
      <point x="745.0909090909091" y="-22.545454545454547"/>
      <point x="964.5454545454545" y="176.36363636363637"/>
      <point x="994.1818181818181" y="417.27272727272725" type="curve" smooth="yes"/>
      <point x="1021.2727272727273" y="640.0"/>
      <point x="883.6363636363636" y="845.6363636363636"/>
      <point x="554.1818181818181" y="845.6363636363636" type="curve"/>
      <point x="523.6363636363636" y="845.6363636363636"/>
      <point x="492.90909090909093" y="844.1818181818181"/>
      <point x="462.54545454545456" y="840.7272727272727" type="curve"/>
      <point x="421.6363636363636" y="834.1818181818181" type="line" name="hr00"/>
      <point x="430.1818181818182" y="870.9090909090909" type="line"/>
      <point x="501.27272727272725" y="1227.6363636363637" type="line"/>
      <point x="1033.4545454545455" y="1227.6363636363637" type="line"/>
      <point x="1055.6363636363637" y="1402.0" type="line"/>
      <point x="363.45454545454544" y="1402.0" type="line"/>
      <point x="219.45454545454547" y="650.5454545454545" type="line"/>
      <point x="312.0" y="674.0"/>
      <point x="416.90909090909093" y="687.2727272727273"/>
      <point x="484.90909090909093" y="687.2727272727273" type="curve"/>
      <point x="671.0909090909091" y="687.2727272727273"/>
      <point x="793.8181818181819" y="601.8181818181819"/>
      <point x="771.4545454545455" y="421.27272727272725" type="curve" smooth="yes"/>
      <point x="755.4545454545455" y="295.27272727272725"/>
      <point x="657.8181818181819" y="139.27272727272728"/>
      <point x="442.72727272727275" y="139.27272727272728" type="curve" smooth="yes"/>
      <point x="367.27272727272725" y="139.27272727272728"/>
      <point x="260.72727272727275" y="159.27272727272728"/>
      <point x="153.45454545454547" y="219.0909090909091" type="curve"/>
      <point x="84.36363636363636" y="74.9090909090909" type="line"/>
      <point x="180.36363636363637" y="10.0"/>
      <point x="322.54545454545456" y="-22.545454545454547"/>
    </contour>
  </outline>
</glyph>
<glyph name="six" format="2">
  <advance width="1292.1818181818182"/>
  <unicode hex="0036"/>
  <outline>
    <contour>
      <point x="674.5454545454545" y="-29.09090909090909" type="curve" smooth="yes"/>
      <point x="959.4545454545455" y="-29.09090909090909"/>
      <point x="1170.7272727272727" y="205.8181818181818"/>
      <point x="1198.7272727272727" y="436.3636363636364" type="curve" smooth="yes"/>
      <point x="1232.7272727272727" y="713.0909090909091"/>
      <point x="1071.8181818181818" y="862.1818181818181"/>
      <point x="835.6363636363636" y="862.1818181818181" type="curve" smooth="yes"/>
      <point x="750.7272727272727" y="862.1818181818181"/>
      <point x="676.5454545454545" y="841.2727272727273"/>
      <point x="536.5454545454545" y="772.5454545454545" type="curve"/>
      <point x="566.9090909090909" y="730.3636363636364"/>
      <point x="638.1818181818181" y="671.6363636363636"/>
      <point x="738.0" y="692.9090909090909" type="curve"/>
      <point x="769.2727272727273" y="699.8181818181819"/>
      <point x="788.9090909090909" y="701.8181818181819"/>
      <point x="807.2727272727273" y="701.8181818181819" type="curve" smooth="yes"/>
      <point x="916.3636363636364" y="701.8181818181819"/>
      <point x="996.9090909090909" y="612.3636363636364"/>
      <point x="975.4545454545455" y="436.3636363636364" type="curve" smooth="yes"/>
      <point x="954.5454545454545" y="260.54545454545456"/>
      <point x="835.2727272727273" y="130.72727272727272"/>
      <point x="689.6363636363636" y="130.72727272727272" type="curve" smooth="yes"/>
      <point x="437.8181818181818" y="130.72727272727272"/>
      <point x="415.6363636363636" y="438.0"/>
      <point x="443.6363636363636" y="656.5454545454545" type="curve" smooth="yes"/>
      <point x="486.0" y="1000.3636363636364"/>
      <point x="696.3636363636364" y="1253.8181818181818"/>
      <point x="978.9090909090909" y="1253.8181818181818" type="curve" name="hr00"/>
      <point x="1029.4545454545455" y="1253.8181818181818"/>
      <point x="1088.5454545454545" y="1246.3636363636363"/>
      <point x="1149.090909090909" y="1220.909090909091" type="curve"/>
      <point x="1216.7272727272727" y="1367.6363636363637" type="line"/>
      <point x="1141.6363636363637" y="1399.6363636363637"/>
      <point x="1065.090909090909" y="1414.1818181818182"/>
      <point x="999.0909090909091" y="1414.1818181818182" type="curve"/>
      <point x="565.0909090909091" y="1414.1818181818182"/>
      <point x="266.54545454545456" y="1030.0"/>
      <point x="220.9090909090909" y="652.5454545454545" type="curve" smooth="yes"/>
      <point x="177.8181818181818" y="313.09090909090907"/>
      <point x="272.0" y="-29.09090909090909"/>
    </contour>
  </outline>
</glyph>
<glyph name="seven" format="2">
  <advance width="1003.0909090909091"/>
  <unicode hex="0037"/>
  <outline>
    <contour>
      <point x="246.36363636363637" y="0.0" type="curve" name="hr00"/>
      <point x="466.54545454545456" y="0.0" type="line"/>
      <point x="602.5454545454545" y="636.5454545454545"/>
      <point x="834.3636363636364" y="958.5454545454545"/>
      <point x="1086.909090909091" y="1238.5454545454545" type="curve"/>
      <point x="1108.0" y="1402.0" type="line"/>
      <point x="248.0" y="1402.0" type="line"/>
      <point x="224.36363636363637" y="1219.090909090909" type="line"/>
      <point x="824.5454545454545" y="1219.090909090909" type="line"/>
      <point x="857.0909090909091" y="1220.1818181818182" type="line"/>
      <point x="834.7272727272727" y="1196.0" type="line"/>
      <point x="544.5454545454545" y="832.1818181818181"/>
      <point x="362.3636363636364" y="456.0"/>
    </contour>
  </outline>
</glyph>
<glyph name="eight" format="2">
  <advance width="1254.1818181818182"/>
  <unicode hex="0038"/>
  <outline>
    <contour>
      <point x="634.1818181818181" y="-27.454545454545453" type="curve" smooth="yes"/>
      <point x="897.0909090909091" y="-27.454545454545453"/>
      <point x="1133.2727272727273" y="110.54545454545455"/>
      <point x="1163.2727272727273" y="356.0" type="curve" smooth="yes"/>
      <point x="1185.2727272727273" y="528.0"/>
      <point x="1112.1818181818182" y="629.6363636363636"/>
      <point x="1009.6363636363636" y="699.8181818181819" type="curve"/>
      <point x="980.5454545454545" y="717.2727272727273" type="line"/>
      <point x="1008.5454545454545" y="741.4545454545455" type="line"/>
      <point x="1111.6363636363637" y="845.6363636363636"/>
      <point x="1191.8181818181818" y="947.6363636363636"/>
      <point x="1205.2727272727273" y="1062.0" type="curve" smooth="yes"/>
      <point x="1233.2727272727273" y="1290.5454545454545"/>
      <point x="1055.090909090909" y="1425.090909090909"/>
      <point x="818.1818181818181" y="1425.090909090909" type="curve" smooth="yes"/>
      <point x="592.1818181818181" y="1425.090909090909"/>
      <point x="368.0" y="1290.5454545454545"/>
      <point x="340.0" y="1062.0" type="curve" smooth="yes"/>
      <point x="282.0" y="590.5454545454545"/>
      <point x="998.3636363636364" y="693.0909090909091"/>
      <point x="956.0" y="356.0" type="curve" smooth="yes"/>
      <point x="941.0909090909091" y="227.45454545454544"/>
      <point x="819.8181818181819" y="132.36363636363637"/>
      <point x="653.8181818181819" y="132.36363636363637" type="curve" smooth="yes"/>
      <point x="495.27272727272725" y="132.36363636363637"/>
      <point x="387.27272727272725" y="222.1818181818182"/>
      <point x="405.6363636363636" y="373.45454545454544" type="curve" smooth="yes"/>
      <point x="409.6363636363636" y="403.45454545454544"/>
      <point x="422.0" y="432.1818181818182"/>
      <point x="442.9090909090909" y="468.72727272727275" type="curve" smooth="yes"/>
      <point x="485.09090909090907" y="543.6363636363636"/>
      <point x="457.09090909090907" y="626.7272727272727"/>
      <point x="414.0" y="690.7272727272727" type="curve"/>
      <point x="259.8181818181818" y="545.6363636363636"/>
      <point x="216.0" y="446.54545454545456"/>
      <point x="204.0" y="356.0" type="curve" smooth="yes"/>
      <point x="174.0" y="110.54545454545455"/>
      <point x="366.1818181818182" y="-27.454545454545453"/>
    </contour>
    <contour>
      <point x="839.6363636363636" y="790.9090909090909" type="curve"/>
      <point x="681.0909090909091" y="863.2727272727273"/>
      <point x="528.3636363636364" y="916.3636363636364"/>
      <point x="547.2727272727273" y="1062.0" type="curve" smooth="yes" name="hr00"/>
      <point x="562.1818181818181" y="1190.3636363636363"/>
      <point x="681.8181818181819" y="1263.2727272727273"/>
      <point x="798.5454545454545" y="1263.2727272727273" type="curve" smooth="yes"/>
      <point x="912.1818181818181" y="1263.2727272727273"/>
      <point x="1018.0" y="1192.3636363636363"/>
      <point x="999.0909090909091" y="1038.5454545454545" type="curve"/>
      <point x="987.6363636363636" y="947.8181818181819"/>
      <point x="928.7272727272727" y="871.8181818181819"/>
    </contour>
  </outline>
</glyph>
<glyph name="nine" format="2">
  <advance width="1291.6363636363637"/>
  <unicode hex="0039"/>
  <outline>
    <contour>
      <point x="455.09090909090907" y="-20.0" type="curve"/>
      <point x="889.0909090909091" y="-20.0"/>
      <point x="1190.5454545454545" y="365.09090909090907"/>
      <point x="1236.1818181818182" y="744.5454545454545" type="curve" smooth="yes"/>
      <point x="1277.8181818181818" y="1081.090909090909"/>
      <point x="1183.6363636363637" y="1423.2727272727273"/>
      <point x="782.5454545454545" y="1423.2727272727273" type="curve" smooth="yes"/>
      <point x="497.09090909090907" y="1423.2727272727273"/>
      <point x="284.90909090909093" y="1191.2727272727273"/>
      <point x="256.90909090909093" y="959.2727272727273" type="curve" smooth="yes"/>
      <point x="222.9090909090909" y="682.5454545454545"/>
      <point x="384.72727272727275" y="534.9090909090909"/>
      <point x="621.4545454545455" y="534.9090909090909" type="curve" smooth="yes"/>
      <point x="704.9090909090909" y="534.9090909090909"/>
      <point x="779.0909090909091" y="552.9090909090909"/>
      <point x="917.6363636363636" y="621.6363636363636" type="curve"/>
      <point x="888.7272727272727" y="665.2727272727273"/>
      <point x="819.8181818181819" y="725.4545454545455"/>
      <point x="717.6363636363636" y="701.2727272727273" type="curve"/>
      <point x="687.8181818181819" y="695.8181818181819"/>
      <point x="664.7272727272727" y="693.8181818181819"/>
      <point x="648.3636363636364" y="693.8181818181819" type="curve" smooth="yes"/>
      <point x="537.8181818181819" y="693.8181818181819"/>
      <point x="460.1818181818182" y="784.7272727272727"/>
      <point x="481.6363636363636" y="959.2727272727273" type="curve" smooth="yes"/>
      <point x="502.54545454545456" y="1133.090909090909"/>
      <point x="620.3636363636364" y="1262.909090909091"/>
      <point x="768.9090909090909" y="1262.909090909091" type="curve" smooth="yes"/>
      <point x="1019.2727272727273" y="1262.909090909091"/>
      <point x="1039.4545454545455" y="957.0909090909091"/>
      <point x="1013.4545454545455" y="740.5454545454545" type="curve" smooth="yes"/>
      <point x="971.0909090909091" y="395.27272727272725"/>
      <point x="760.7272727272727" y="141.8181818181818"/>
      <point x="475.27272727272725" y="141.8181818181818" type="curve" smooth="yes" name="hr00"/>
      <point x="426.1818181818182" y="141.8181818181818"/>
      <point x="368.54545454545456" y="150.72727272727272"/>
      <point x="306.54545454545456" y="175.63636363636363" type="curve"/>
      <point x="237.45454545454547" y="29.454545454545453" type="line"/>
      <point x="312.0" y="-4.545454545454545"/>
      <point x="389.09090909090907" y="-20.0"/>
    </contour>
  </outline>
</glyph>
<glyph name="less" format="2">
  <advance width="1226.0"/>
  <unicode hex="003C"/>
  <outline>
    <contour>
      <point x="1108.0" y="0.0" type="line"/>
      <point x="1129.8181818181818" y="189.27272727272728" type="line" name="hr00"/>
      <point x="392.72727272727275" y="540.0" type="line"/>
      <point x="340.72727272727275" y="552.0" type="line"/>
      <point x="394.72727272727275" y="566.0" type="line"/>
      <point x="1218.7272727272727" y="916.7272727272727" type="line"/>
      <point x="1242.0" y="1104.0" type="line"/>
      <point x="147.63636363636363" y="612.9090909090909" type="line"/>
      <point x="132.9090909090909" y="491.09090909090907" type="line"/>
    </contour>
  </outline>
</glyph>
<glyph name="equal" format="2">
  <advance width="1212.0"/>
  <unicode hex="003D"/>
  <outline>
    <contour>
      <point x="228.9090909090909" y="785.8181818181819" type="line"/>
      <point x="1172.909090909091" y="785.8181818181819" type="line"/>
      <point x="1192.5454545454545" y="938.1818181818181" type="line"/>
      <point x="248.54545454545453" y="938.1818181818181" type="line"/>
    </contour>
    <contour>
      <point x="174.9090909090909" y="343.8181818181818" type="line"/>
      <point x="1118.909090909091" y="343.8181818181818" type="line"/>
      <point x="1137.090909090909" y="496.1818181818182" type="line"/>
      <point x="193.0909090909091" y="496.1818181818182" type="line" name="hr00"/>
    </contour>
  </outline>
</glyph>
<glyph name="greater" format="2">
  <advance width="1226.0"/>
  <unicode hex="003E"/>
  <outline>
    <contour>
      <point x="83.81818181818181" y="0.0" type="line"/>
      <point x="1176.7272727272727" y="491.09090909090907" type="line"/>
      <point x="1191.4545454545455" y="612.9090909090909" type="line"/>
      <point x="217.8181818181818" y="1104.0" type="line"/>
      <point x="194.54545454545453" y="916.7272727272727" type="line"/>
      <point x="933.0909090909091" y="566.0" type="line"/>
      <point x="983.0909090909091" y="552.0" type="line"/>
      <point x="931.0909090909091" y="540.0" type="line" name="hr00"/>
      <point x="105.63636363636364" y="189.27272727272728" type="line"/>
    </contour>
  </outline>
</glyph>
<glyph name="question" format="2">
  <advance width="1166.0"/>
  <unicode hex="003F"/>
  <outline>
    <contour>
      <point x="444.72727272727275" y="394.54545454545456" type="curve"/>
      <point x="613.8181818181819" y="394.54545454545456" type="line"/>
      <point x="656.0" y="732.7272727272727"/>
      <point x="1057.090909090909" y="847.0909090909091"/>
      <point x="1096.909090909091" y="1166.909090909091" type="curve" smooth="yes"/>
      <point x="1118.5454545454545" y="1345.8181818181818"/>
      <point x="967.2727272727273" y="1474.0"/>
      <point x="727.4545454545455" y="1474.0" type="curve" smooth="yes" name="hr00"/>
      <point x="617.4545454545455" y="1474.0"/>
      <point x="510.54545454545456" y="1458.0"/>
      <point x="373.45454545454544" y="1392.0" type="curve"/>
      <point x="411.27272727272725" y="1243.2727272727273" type="line"/>
      <point x="529.8181818181819" y="1300.1818181818182"/>
      <point x="611.2727272727273" y="1312.5454545454545"/>
      <point x="687.2727272727273" y="1312.5454545454545" type="curve"/>
      <point x="808.5454545454545" y="1312.5454545454545"/>
      <point x="884.3636363636364" y="1238.5454545454545"/>
      <point x="872.3636363636364" y="1136.909090909091" type="curve" smooth="yes"/>
      <point x="841.0909090909091" y="888.0"/>
      <point x="496.0" y="809.4545454545455"/>
    </contour>
    <contour>
      <point x="476.54545454545456" y="-29.454545454545453" type="curve" smooth="yes"/>
      <point x="552.5454545454545" y="-29.454545454545453"/>
      <point x="616.5454545454545" y="26.545454545454547"/>
      <point x="625.6363636363636" y="101.0909090909091" type="curve" smooth="yes"/>
      <point x="634.1818181818181" y="177.0909090909091"/>
      <point x="583.8181818181819" y="235.63636363636363"/>
      <point x="507.8181818181818" y="235.63636363636363" type="curve" smooth="yes"/>
      <point x="432.72727272727275" y="235.63636363636363"/>
      <point x="368.1818181818182" y="177.0909090909091"/>
      <point x="359.6363636363636" y="101.0909090909091" type="curve" smooth="yes"/>
      <point x="350.54545454545456" y="26.545454545454547"/>
      <point x="401.45454545454544" y="-29.454545454545453"/>
    </contour>
  </outline>
</glyph>
<glyph name="at" format="2">
  <advance width="1838.0"/>
  <unicode hex="0040"/>
  <outline>
    <contour>
      <point x="862.9090909090909" y="-249.45454545454547" type="curve" smooth="yes"/>
      <point x="994.9090909090909" y="-249.45454545454547"/>
      <point x="1091.6363636363637" y="-238.54545454545453"/>
      <point x="1289.6363636363637" y="-178.9090909090909" type="curve"/>
      <point x="1258.3636363636363" y="-56.90909090909091" type="line"/>
      <point x="1086.909090909091" y="-109.81818181818181"/>
      <point x="995.0909090909091" y="-117.81818181818181"/>
      <point x="879.0909090909091" y="-117.81818181818181" type="curve" smooth="yes"/>
      <point x="565.0909090909091" y="-117.81818181818181"/>
      <point x="338.72727272727275" y="97.63636363636364"/>
      <point x="389.09090909090907" y="514.0" type="curve" smooth="yes"/>
      <point x="441.45454545454544" y="932.3636363636364"/>
      <point x="720.9090909090909" y="1149.8181818181818"/>
      <point x="1062.909090909091" y="1149.8181818181818" type="curve" smooth="yes"/>
      <point x="1398.7272727272727" y="1149.8181818181818"/>
      <point x="1594.7272727272727" y="958.5454545454545"/>
      <point x="1554.909090909091" y="634.1818181818181" type="curve" smooth="yes"/>
      <point x="1536.5454545454545" y="492.1818181818182"/>
      <point x="1463.6363636363637" y="370.54545454545456"/>
      <point x="1304.0" y="274.0" type="curve"/>
      <point x="1272.5454545454545" y="250.0" type="line" name="hr00"/>
      <point x="1279.090909090909" y="296.3636363636364" type="line"/>
      <point x="1315.4545454545455" y="600.9090909090909" type="line"/>
      <point x="1342.0" y="812.7272727272727"/>
      <point x="1239.2727272727273" y="932.0"/>
      <point x="1035.8181818181818" y="932.0" type="curve" smooth="yes"/>
      <point x="951.8181818181819" y="932.0"/>
      <point x="871.8181818181819" y="920.0"/>
      <point x="763.6363636363636" y="878.0" type="curve"/>
      <point x="793.8181818181819" y="767.2727272727273" type="line"/>
      <point x="872.7272727272727" y="795.2727272727273"/>
      <point x="936.1818181818181" y="805.6363636363636"/>
      <point x="992.1818181818181" y="805.6363636363636" type="curve" smooth="yes"/>
      <point x="1127.090909090909" y="805.6363636363636"/>
      <point x="1176.0" y="732.9090909090909"/>
      <point x="1160.5454545454545" y="610.9090909090909" type="curve"/>
      <point x="1125.6363636363637" y="328.1818181818182" type="line"/>
      <point x="1053.6363636363637" y="246.1818181818182"/>
      <point x="973.4545454545455" y="218.54545454545453"/>
      <point x="905.4545454545455" y="218.54545454545453" type="curve" smooth="yes"/>
      <point x="822.7272727272727" y="218.54545454545453"/>
      <point x="772.5454545454545" y="261.8181818181818"/>
      <point x="780.0" y="324.0" type="curve" smooth="yes"/>
      <point x="787.4545454545455" y="382.72727272727275"/>
      <point x="830.9090909090909" y="430.72727272727275"/>
      <point x="948.7272727272727" y="446.72727272727275" type="curve" smooth="yes"/>
      <point x="1030.7272727272727" y="457.27272727272725"/>
      <point x="1069.8181818181818" y="545.2727272727273"/>
      <point x="1077.8181818181818" y="581.2727272727273" type="curve"/>
      <point x="770.9090909090909" y="549.8181818181819"/>
      <point x="640.5454545454545" y="476.90909090909093"/>
      <point x="620.5454545454545" y="316.0" type="curve" smooth="yes"/>
      <point x="604.5454545454545" y="183.45454545454547"/>
      <point x="695.6363636363636" y="94.0"/>
      <point x="863.4545454545455" y="94.0" type="curve" smooth="yes"/>
      <point x="935.4545454545455" y="94.0"/>
      <point x="1006.5454545454545" y="107.63636363636364"/>
      <point x="1094.5454545454545" y="185.63636363636363" type="curve"/>
      <point x="1119.090909090909" y="225.63636363636363" type="line"/>
      <point x="1118.5454545454545" y="187.63636363636363" type="line"/>
      <point x="1126.5454545454545" y="153.63636363636363"/>
      <point x="1134.5454545454545" y="127.45454545454545"/>
      <point x="1162.5454545454545" y="111.45454545454545" type="curve"/>
      <point x="1458.1818181818182" y="163.45454545454547"/>
      <point x="1681.6363636363637" y="354.1818181818182"/>
      <point x="1716.5454545454545" y="634.1818181818181" type="curve" smooth="yes"/>
      <point x="1766.5454545454545" y="1046.1818181818182"/>
      <point x="1484.3636363636363" y="1281.4545454545455"/>
      <point x="1080.5454545454545" y="1281.4545454545455" type="curve" smooth="yes"/>
      <point x="676.5454545454545" y="1281.4545454545455"/>
      <point x="288.54545454545456" y="1012.0"/>
      <point x="226.54545454545453" y="514.0" type="curve" smooth="yes"/>
      <point x="160.54545454545453" y="-22.0"/>
      <point x="454.90909090909093" y="-249.45454545454547"/>
    </contour>
  </outline>
</glyph>
<glyph name="A" format="2">
  <advance width="1393.090909090909"/>
  <unicode hex="0041"/>
  <anchor x="689.8181818181819" y="0.0" name="bottom"/>
  <anchor x="1325.8181818181818" y="0.0" name="ogonek"/>
  <anchor x="875.2727272727273" y="1454.0" name="top"/>
  <outline>
    <contour>
      <point x="67.27272727272727" y="0.0" type="line"/>
      <point x="282.3636363636364" y="0.0" type="line"/>
      <point x="439.45454545454544" y="339.8181818181818" type="line"/>
      <point x="924.3636363636364" y="339.8181818181818" type="line"/>
      <point x="906.3636363636364" y="419.09090909090907"/>
      <point x="867.8181818181819" y="500.72727272727275"/>
      <point x="766.3636363636364" y="500.72727272727275" type="curve" smooth="yes"/>
      <point x="528.5454545454545" y="500.72727272727275" type="line"/>
      <point x="500.9090909090909" y="496.72727272727275" type="line"/>
      <point x="529.4545454545455" y="538.1818181818181" type="line"/>
      <point x="812.9090909090909" y="1146.3636363636363" type="line"/>
      <point x="836.0" y="1209.8181818181818" type="line"/>
      <point x="842.5454545454545" y="1147.4545454545455" type="line"/>
      <point x="1096.7272727272727" y="0.0" type="line"/>
      <point x="1325.8181818181818" y="0.0" type="line"/>
      <point x="980.3636363636364" y="1454.0" type="line" name="hr00"/>
      <point x="768.7272727272727" y="1454.0" type="line"/>
    </contour>
  </outline>
</glyph>
<glyph name="B" format="2">
  <advance width="1304.5454545454545"/>
  <unicode hex="0042"/>
  <anchor x="605.2727272727273" y="0.0" name="bottom"/>
  <anchor x="785.2727272727273" y="1454.0" name="top"/>
  <outline>
    <contour>
      <point x="727.6363636363636" y="-23.454545454545453" type="curve" smooth="yes" name="hr02"/>
      <point x="1024.1818181818182" y="-23.454545454545453"/>
      <point x="1230.1818181818182" y="204.0"/>
      <point x="1256.1818181818182" y="410.0" type="curve" smooth="yes"/>
      <point x="1274.1818181818182" y="565.6363636363636"/>
      <point x="1197.2727272727273" y="695.4545454545455"/>
      <point x="1055.8181818181818" y="762.0" type="curve"/>
      <point x="1001.8181818181819" y="776.0" type="line"/>
      <point x="1063.8181818181818" y="804.0" type="line"/>
      <point x="1169.8181818181818" y="866.0"/>
      <point x="1241.090909090909" y="990.9090909090909"/>
      <point x="1253.090909090909" y="1087.4545454545455" type="curve"/>
      <point x="1280.1818181818182" y="1311.6363636363637"/>
      <point x="1127.090909090909" y="1480.0"/>
      <point x="781.6363636363636" y="1480.0" type="curve" smooth="yes"/>
      <point x="637.6363636363636" y="1480.0"/>
      <point x="518.1818181818181" y="1466.5454545454545"/>
      <point x="346.1818181818182" y="1434.909090909091" type="curve"/>
      <point x="170.72727272727272" y="0.0" type="line"/>
      <point x="385.27272727272725" y="0.0" type="line" name="hr01"/>
      <point x="468.72727272727275" y="685.4545454545455" type="line"/>
      <point x="685.0909090909091" y="685.4545454545455" type="line" smooth="yes"/>
      <point x="896.1818181818181" y="685.4545454545455"/>
      <point x="1050.0" y="593.2727272727273"/>
      <point x="1027.6363636363637" y="404.72727272727275" type="curve" smooth="yes"/>
      <point x="1009.6363636363636" y="251.45454545454547"/>
      <point x="880.7272727272727" y="138.9090909090909"/>
      <point x="741.2727272727273" y="137.8181818181818" type="curve" smooth="yes"/>
      <point x="714.5454545454545" y="137.8181818181818"/>
      <point x="697.4545454545455" y="139.27272727272728"/>
      <point x="673.6363636363636" y="142.1818181818182" type="curve"/>
      <point x="580.1818181818181" y="153.8181818181818"/>
      <point x="512.5454545454545" y="82.0"/>
      <point x="464.72727272727275" y="12.0" type="curve"/>
      <point x="580.1818181818181" y="-16.0"/>
      <point x="652.1818181818181" y="-23.454545454545453"/>
    </contour>
    <contour>
      <point x="486.3636363636364" y="837.0909090909091" type="line"/>
      <point x="545.0909090909091" y="1304.7272727272727" type="line"/>
      <point x="617.6363636363636" y="1313.2727272727273"/>
      <point x="690.0" y="1317.2727272727273"/>
      <point x="762.0" y="1317.2727272727273" type="curve" smooth="yes"/>
      <point x="960.7272727272727" y="1317.2727272727273"/>
      <point x="1045.4545454545455" y="1211.4545454545455"/>
      <point x="1030.5454545454545" y="1086.909090909091" type="curve" smooth="yes"/>
      <point x="1013.0909090909091" y="944.9090909090909"/>
      <point x="885.8181818181819" y="837.0909090909091"/>
      <point x="702.7272727272727" y="837.0909090909091" type="curve"/>
    </contour>
  </outline>
</glyph>
<glyph name="C" format="2">
  <advance width="1276.7272727272727"/>
  <unicode hex="0043"/>
  <anchor x="736.1818181818181" y="0.0" name="bottom"/>
  <anchor x="966.0" y="1454.0" name="top"/>
  <outline>
    <contour>
      <point x="864.5454545454545" y="-24.0" type="curve" smooth="yes" name="hr00"/>
      <point x="976.5454545454545" y="-24.0"/>
      <point x="1099.6363636363637" y="3.090909090909091"/>
      <point x="1230.0" y="68.0" type="curve"/>
      <point x="1189.6363636363637" y="212.1818181818182" type="line"/>
      <point x="1075.4545454545455" y="158.9090909090909"/>
      <point x="976.7272727272727" y="136.9090909090909"/>
      <point x="884.7272727272727" y="136.9090909090909" type="curve"/>
      <point x="597.2727272727273" y="136.9090909090909"/>
      <point x="408.9090909090909" y="386.54545454545456"/>
      <point x="450.1818181818182" y="725.0909090909091" type="curve" smooth="yes"/>
      <point x="495.8181818181818" y="1097.090909090909"/>
      <point x="741.4545454545455" y="1317.6363636363637"/>
      <point x="1028.909090909091" y="1317.6363636363637" type="curve" smooth="yes"/>
      <point x="1120.909090909091" y="1317.6363636363637"/>
      <point x="1207.8181818181818" y="1304.1818181818182"/>
      <point x="1318.909090909091" y="1267.2727272727273" type="curve"/>
      <point x="1394.0" y="1412.0" type="line"/>
      <point x="1276.909090909091" y="1458.5454545454545"/>
      <point x="1160.5454545454545" y="1480.0"/>
      <point x="1048.5454545454545" y="1480.0" type="curve" smooth="yes"/>
      <point x="618.9090909090909" y="1480.0"/>
      <point x="272.3636363636364" y="1164.3636363636363"/>
      <point x="218.9090909090909" y="725.0909090909091" type="curve" smooth="yes"/>
      <point x="164.0" y="274.0"/>
      <point x="431.6363636363636" y="-24.0"/>
    </contour>
  </outline>
</glyph>
<glyph name="D" format="2">
  <advance width="1444.5454545454545"/>
  <unicode hex="0044"/>
  <anchor x="687.6363636363636" y="0.0" name="bottom"/>
  <anchor x="507.8181818181818" y="712.0" name="center"/>
  <anchor x="907.6363636363636" y="1454.0" name="top"/>
  <outline>
    <contour>
      <point x="731.6363636363636" y="-24.0" type="curve"/>
      <point x="1101.8181818181818" y="-24.0"/>
      <point x="1443.8181818181818" y="297.8181818181818"/>
      <point x="1495.8181818181818" y="730.0" type="curve" smooth="yes"/>
      <point x="1553.8181818181818" y="1199.6363636363637"/>
      <point x="1294.1818181818182" y="1480.0"/>
      <point x="779.6363636363636" y="1480.0" type="curve" smooth="yes"/>
      <point x="663.6363636363636" y="1480.0"/>
      <point x="493.45454545454544" y="1463.090909090909"/>
      <point x="348.72727272727275" y="1430.909090909091" type="curve"/>
      <point x="174.72727272727272" y="0.0" type="line"/>
      <point x="389.8181818181818" y="0.0" type="line" name="hr01"/>
      <point x="549.6363636363636" y="1303.090909090909" type="line"/>
      <point x="613.0909090909091" y="1311.6363636363637"/>
      <point x="687.6363636363636" y="1317.6363636363637"/>
      <point x="760.0" y="1317.6363636363637" type="curve" smooth="yes"/>
      <point x="1151.8181818181818" y="1317.6363636363637"/>
      <point x="1310.909090909091" y="1096.3636363636363"/>
      <point x="1265.090909090909" y="730.0" type="curve" smooth="yes"/>
      <point x="1227.2727272727273" y="414.54545454545456"/>
      <point x="1012.9090909090909" y="138.54545454545453"/>
      <point x="744.9090909090909" y="136.9090909090909" type="curve"/>
      <point x="720.5454545454545" y="136.9090909090909"/>
      <point x="708.3636363636364" y="136.9090909090909"/>
      <point x="676.7272727272727" y="139.8181818181818" type="curve" smooth="yes"/>
      <point x="582.7272727272727" y="145.63636363636363"/>
      <point x="513.0909090909091" y="80.0"/>
      <point x="468.72727272727275" y="10.0" type="curve"/>
      <point x="580.7272727272727" y="-18.545454545454547"/>
      <point x="646.0" y="-24.0"/>
    </contour>
  </outline>
</glyph>
<glyph name="E" format="2">
  <advance width="1160.0"/>
  <unicode hex="0045"/>
  <anchor x="610.7272727272727" y="0.0" name="bottom"/>
  <anchor x="1045.2727272727273" y="0.0" name="ogonek"/>
  <anchor x="778.5454545454545" y="1454.0" name="top"/>
  <anchor x="156.0" y="1454.0" name="topleft"/>
  <outline>
    <contour>
      <point x="174.72727272727272" y="0.0" type="line"/>
      <point x="1045.2727272727273" y="0.0" type="line"/>
      <point x="1063.4545454545455" y="160.9090909090909" type="line"/>
      <point x="409.09090909090907" y="160.9090909090909" type="line"/>
      <point x="548.7272727272727" y="1293.090909090909" type="line"/>
      <point x="1172.5454545454545" y="1293.090909090909" type="line"/>
      <point x="1192.7272727272727" y="1454.0" type="line"/>
      <point x="352.72727272727275" y="1454.0" type="line" name="hr00"/>
    </contour>
    <contour>
      <point x="549.8181818181819" y="683.8181818181819" type="curve"/>
      <point x="1029.6363636363637" y="683.8181818181819" type="line"/>
      <point x="1049.8181818181818" y="840.7272727272727" type="line"/>
      <point x="749.6363636363636" y="840.7272727272727" type="line"/>
      <point x="648.1818181818181" y="840.7272727272727"/>
      <point x="587.8181818181819" y="763.0909090909091"/>
    </contour>
  </outline>
</glyph>
<glyph name="G" format="2">
  <advance width="1333.090909090909"/>
  <unicode hex="0047"/>
  <anchor x="760.0" y="0.0" name="bottom"/>
  <anchor x="940.0" y="1454.0" name="top"/>
  <outline>
    <contour>
      <point x="831.2727272727273" y="-24.0" type="curve" smooth="yes"/>
      <point x="944.7272727272727" y="-24.0"/>
      <point x="1108.1818181818182" y="0.7272727272727271"/>
      <point x="1262.1818181818182" y="74.0" type="curve"/>
      <point x="1336.1818181818182" y="674.0" type="line"/>
      <point x="1132.5454545454545" y="674.0" type="line"/>
      <point x="1070.1818181818182" y="167.63636363636363" type="line"/>
      <point x="979.8181818181819" y="141.8181818181818"/>
      <point x="909.4545454545455" y="136.9090909090909"/>
      <point x="851.4545454545455" y="136.9090909090909" type="curve" smooth="yes"/>
      <point x="564.0" y="136.9090909090909"/>
      <point x="347.45454545454544" y="354.0"/>
      <point x="393.09090909090907" y="726.0" type="curve" smooth="yes"/>
      <point x="439.27272727272725" y="1103.2727272727273"/>
      <point x="709.8181818181819" y="1317.6363636363637"/>
      <point x="997.2727272727273" y="1317.6363636363637" type="curve" smooth="yes" name="hr00"/>
      <point x="1089.2727272727273" y="1317.6363636363637"/>
      <point x="1197.6363636363637" y="1306.0"/>
      <point x="1333.8181818181818" y="1245.090909090909" type="curve"/>
      <point x="1410.0" y="1392.0" type="line"/>
      <point x="1274.7272727272727" y="1457.4545454545455"/>
      <point x="1130.3636363636363" y="1480.0"/>
      <point x="1016.9090909090909" y="1480.0" type="curve" smooth="yes"/>
      <point x="585.6363636363636" y="1480.0"/>
      <point x="216.72727272727272" y="1167.8181818181818"/>
      <point x="161.8181818181818" y="726.0" type="curve" smooth="yes"/>
      <point x="105.45454545454545" y="270.1818181818182"/>
      <point x="398.3636363636364" y="-24.0"/>
    </contour>
  </outline>
</glyph>
<glyph name="H" format="2">
  <advance width="1478.5454545454545"/>
  <unicode hex="0048"/>
  <anchor x="741.8181818181819" y="0.0" name="bottom"/>
  <anchor x="831.2727272727273" y="728.0" name="center"/>
  <anchor x="919.8181818181819" y="1454.0" name="top"/>
  <anchor x="156.0" y="1454.0" name="topleft"/>
  <outline>
    <contour>
      <point x="1092.1818181818182" y="0.0" type="line"/>
      <point x="1307.2727272727273" y="0.0" type="line"/>
      <point x="1485.2727272727273" y="1454.0" type="line"/>
      <point x="1270.1818181818182" y="1454.0" type="line"/>
      <point x="1195.2727272727273" y="841.2727272727273" type="line" name="hr00"/>
      <point x="748.1818181818181" y="841.2727272727273" type="line"/>
      <point x="648.1818181818181" y="841.2727272727273"/>
      <point x="587.2727272727273" y="762.5454545454545"/>
      <point x="549.8181818181819" y="683.2727272727273" type="curve"/>
      <point x="1175.090909090909" y="683.2727272727273" type="line"/>
    </contour>
    <contour>
      <point x="174.72727272727272" y="0.0" type="line"/>
      <point x="390.9090909090909" y="0.0" type="line"/>
      <point x="568.9090909090909" y="1454.0" type="line"/>
      <point x="352.72727272727275" y="1454.0" type="line"/>
    </contour>
  </outline>
</glyph>
<glyph name="J" format="2">
  <advance width="701.6363636363636"/>
  <unicode hex="004A"/>
  <anchor x="252.72727272727272" y="-385.45454545454544" name="bottom"/>
  <anchor x="607.2727272727273" y="1454.0" name="top"/>
  <outline>
    <contour>
      <point x="27.272727272727273" y="-423.6363636363636" type="line"/>
      <point x="338.0" y="-230.72727272727272"/>
      <point x="524.7272727272727" y="-100.0"/>
      <point x="567.8181818181819" y="256.0" type="curve" name="hr00"/>
      <point x="715.8181818181819" y="1454.0" type="line"/>
      <point x="498.72727272727275" y="1454.0" type="line"/>
      <point x="350.72727272727275" y="256.0" type="line"/>
      <point x="313.8181818181818" y="-47.63636363636364"/>
      <point x="168.36363636363637" y="-139.27272727272728"/>
      <point x="-49.63636363636363" y="-304.72727272727275" type="curve"/>
    </contour>
  </outline>
</glyph>
<glyph name="K" format="2">
  <advance width="1348.1818181818182"/>
  <unicode hex="004B"/>
  <anchor x="695.0909090909091" y="0.0" name="bottom"/>
  <anchor x="862.7272727272727" y="1454.0" name="top"/>
  <outline>
    <contour>
      <point x="1053.6363636363637" y="0.0" type="line"/>
      <point x="1310.3636363636363" y="0.0" type="line"/>
      <point x="898.3636363636364" y="867.6363636363636" type="line" name="hr00"/>
      <point x="1421.2727272727273" y="1454.0" type="line"/>
      <point x="1178.5454545454545" y="1454.0" type="line"/>
      <point x="677.6363636363636" y="870.3636363636364" type="line" smooth="yes"/>
      <point x="579.2727272727273" y="755.4545454545455"/>
      <point x="531.6363636363636" y="592.7272727272727"/>
      <point x="557.0909090909091" y="486.0" type="curve"/>
      <point x="730.7272727272727" y="681.4545454545455" type="line"/>
      <point x="754.9090909090909" y="719.6363636363636" type="line"/>
      <point x="764.3636363636364" y="680.3636363636364" type="line"/>
    </contour>
    <contour>
      <point x="174.72727272727272" y="0.0" type="line"/>
      <point x="390.9090909090909" y="0.0" type="line"/>
      <point x="568.9090909090909" y="1454.0" type="line"/>
      <point x="352.72727272727275" y="1454.0" type="line"/>
    </contour>
  </outline>
</glyph>
<glyph name="L" format="2">
  <advance width="1046.0"/>
  <unicode hex="004C"/>
  <anchor x="575.8181818181819" y="0.0" name="bottom"/>
  <anchor x="373.27272727272725" y="728.0" name="center"/>
  <anchor x="461.27272727272725" y="1454.0" name="top"/>
  <anchor x="1122.0" y="1454.0" name="topright"/>
  <outline>
    <contour>
      <point x="174.1818181818182" y="0.0" type="line"/>
      <point x="976.0" y="0.0" type="line"/>
      <point x="995.6363636363636" y="162.9090909090909" type="line"/>
      <point x="410.54545454545456" y="162.9090909090909" type="line"/>
      <point x="570.3636363636364" y="1454.0" type="line"/>
      <point x="352.1818181818182" y="1454.0" type="line" name="hr00"/>
    </contour>
  </outline>
</glyph>
<glyph name="M" format="2">
  <advance width="1916.0"/>
  <unicode hex="004D"/>
  <anchor x="956.7272727272727" y="0.0" name="bottom"/>
  <anchor x="1129.8181818181818" y="1454.0" name="top"/>
  <outline>
    <contour>
      <point x="140.72727272727272" y="0.0" type="line"/>
      <point x="343.09090909090907" y="0.0" type="line"/>
      <point x="584.5454545454545" y="1147.4545454545455" type="line"/>
      <point x="601.0909090909091" y="1234.1818181818182" type="line"/>
      <point x="616.0" y="1147.4545454545455" type="line"/>
      <point x="854.9090909090909" y="20.0" type="line"/>
      <point x="1064.5454545454545" y="20.0" type="line"/>
      <point x="1576.5454545454545" y="1145.4545454545455" type="line"/>
      <point x="1611.090909090909" y="1234.1818181818182" type="line"/>
      <point x="1606.5454545454545" y="1145.4545454545455" type="line"/>
      <point x="1570.909090909091" y="0.0" type="line"/>
      <point x="1774.7272727272727" y="0.0" type="line"/>
      <point x="1799.2727272727273" y="1454.0" type="line"/>
      <point x="1521.090909090909" y="1454.0" type="line"/>
      <point x="1008.9090909090909" y="298.54545454545456" type="line"/>
      <point x="985.8181818181819" y="233.8181818181818" type="line"/>
      <point x="980.3636363636364" y="298.54545454545456" type="line"/>
      <point x="752.3636363636364" y="1454.0" type="line"/>
      <point x="474.72727272727275" y="1454.0" type="line" name="hr00"/>
    </contour>
  </outline>
</glyph>
<glyph name="N" format="2">
  <advance width="1513.8181818181818"/>
  <unicode hex="004E"/>
  <anchor x="756.9090909090909" y="0.0" name="bottom"/>
  <anchor x="946.0" y="1454.0" name="top"/>
  <outline>
    <contour>
      <point x="202.54545454545453" y="0.0" type="line"/>
      <point x="386.9090909090909" y="0.0" type="line"/>
      <point x="524.0" y="1123.8181818181818" type="line"/>
      <point x="528.0" y="1191.8181818181818" type="line"/>
      <point x="549.0909090909091" y="1122.7272727272727" type="line" name="hr00"/>
      <point x="1116.5454545454545" y="0.0" type="line"/>
      <point x="1308.909090909091" y="0.0" type="line"/>
      <point x="1486.909090909091" y="1454.0" type="line"/>
      <point x="1296.0" y="1454.0" type="line"/>
      <point x="1162.909090909091" y="369.8181818181818" type="line"/>
      <point x="1156.909090909091" y="297.09090909090907" type="line"/>
      <point x="1141.8181818181818" y="366.9090909090909" type="line"/>
      <point x="594.0" y="1454.0" type="line"/>
      <point x="380.54545454545456" y="1454.0" type="line"/>
    </contour>
  </outline>
</glyph>
<glyph name="O" format="2">
  <advance width="1580.909090909091"/>
  <unicode hex="004F"/>
  <anchor x="776.0" y="0.0" name="bottom"/>
  <anchor x="864.5454545454545" y="728.0" name="center"/>
  <anchor x="1360.909090909091" y="5.454545454545454" name="ogonek"/>
  <anchor x="954.5454545454545" y="1454.0" name="top"/>
  <anchor x="214.1818181818182" y="1454.0" name="topleft"/>
  <anchor x="1656.909090909091" y="1454.0" name="topright"/>
  <outline>
    <contour>
      <point x="772.5454545454545" y="-28.0" type="curve" smooth="yes"/>
      <point x="1162.3636363636363" y="-28.0"/>
      <point x="1497.8181818181818" y="285.09090909090907"/>
      <point x="1551.6363636363637" y="728.0" type="curve"/>
      <point x="1600.0" y="1124.1818181818182"/>
      <point x="1416.5454545454545" y="1484.0"/>
      <point x="958.5454545454545" y="1484.0" type="curve"/>
      <point x="606.7272727272727" y="1484.0"/>
      <point x="237.63636363636363" y="1212.909090909091"/>
      <point x="176.9090909090909" y="728.0" type="curve" name="hr00"/>
      <point x="120.54545454545455" y="267.45454545454544"/>
      <point x="374.54545454545456" y="-28.0"/>
    </contour>
    <contour>
      <point x="792.1818181818181" y="132.9090909090909" type="curve"/>
      <point x="520.5454545454545" y="132.9090909090909"/>
      <point x="366.9090909090909" y="389.45454545454544"/>
      <point x="408.1818181818182" y="728.0" type="curve"/>
      <point x="451.45454545454544" y="1082.1818181818182"/>
      <point x="675.4545454545455" y="1321.6363636363637"/>
      <point x="938.3636363636364" y="1321.6363636363637" type="curve" smooth="yes"/>
      <point x="1198.0" y="1321.6363636363637"/>
      <point x="1364.7272727272727" y="1087.090909090909"/>
      <point x="1320.909090909091" y="728.0" type="curve"/>
      <point x="1278.909090909091" y="383.8181818181818"/>
      <point x="1057.2727272727273" y="132.9090909090909"/>
    </contour>
  </outline>
</glyph>
<glyph name="P" format="2">
  <advance width="1236.5454545454545"/>
  <unicode hex="0050"/>
  <anchor x="283.8181818181818" y="0.0" name="bottom"/>
  <anchor x="770.1818181818181" y="1454.0" name="top"/>
  <outline>
    <contour>
      <point x="174.72727272727272" y="0.0" type="line"/>
      <point x="391.45454545454544" y="0.0" type="line"/>
      <point x="551.2727272727273" y="1306.1818181818182" type="line"/>
      <point x="623.8181818181819" y="1314.1818181818182"/>
      <point x="684.1818181818181" y="1318.1818181818182"/>
      <point x="757.6363636363636" y="1318.1818181818182" type="curve" smooth="yes"/>
      <point x="933.8181818181819" y="1318.1818181818182"/>
      <point x="1056.5454545454545" y="1196.0"/>
      <point x="1035.6363636363637" y="1036.1818181818182" type="curve"/>
      <point x="1017.2727272727273" y="877.0909090909091"/>
      <point x="866.7272727272727" y="758.9090909090909"/>
      <point x="735.8181818181819" y="756.1818181818181" type="curve" smooth="yes"/>
      <point x="650.1818181818181" y="754.0"/>
      <point x="583.2727272727273" y="688.0"/>
      <point x="544.7272727272727" y="617.8181818181819" type="curve"/>
      <point x="616.7272727272727" y="597.2727272727273"/>
      <point x="684.7272727272727" y="595.2727272727273"/>
      <point x="743.2727272727273" y="601.2727272727273" type="curve" smooth="yes"/>
      <point x="984.7272727272727" y="621.8181818181819"/>
      <point x="1232.1818181818182" y="777.4545454545455"/>
      <point x="1262.7272727272727" y="1036.1818181818182" type="curve" smooth="yes" name="hr00"/>
      <point x="1294.3636363636363" y="1289.090909090909"/>
      <point x="1099.8181818181818" y="1480.5454545454545"/>
      <point x="777.2727272727273" y="1480.5454545454545" type="curve"/>
      <point x="631.8181818181819" y="1480.5454545454545"/>
      <point x="522.7272727272727" y="1470.5454545454545"/>
      <point x="350.72727272727275" y="1438.909090909091" type="curve"/>
    </contour>
  </outline>
</glyph>
<glyph name="Q" format="2">
  <advance width="1572.1818181818182"/>
  <unicode hex="0051"/>
  <anchor x="777.8181818181819" y="0.0" name="bottom"/>
  <anchor x="966.1818181818181" y="1454.0" name="top"/>
  <outline>
    <contour>
      <point x="773.8181818181819" y="-28.0" type="curve"/>
      <point x="877.4545454545455" y="-28.0"/>
      <point x="985.4545454545455" y="5.454545454545455"/>
      <point x="1101.090909090909" y="81.0909090909091" type="curve"/>
      <point x="1063.6363636363637" y="129.0909090909091"/>
      <point x="980.0" y="160.1818181818182"/>
      <point x="903.6363636363636" y="147.0909090909091" type="curve" smooth="yes"/>
      <point x="866.5454545454545" y="139.8181818181818"/>
      <point x="833.2727272727273" y="134.36363636363637"/>
      <point x="793.4545454545455" y="134.36363636363637" type="curve"/>
      <point x="533.6363636363636" y="134.36363636363637"/>
      <point x="375.6363636363636" y="382.1818181818182"/>
      <point x="418.3636363636364" y="728.0" type="curve" smooth="yes"/>
      <point x="461.6363636363636" y="1082.1818181818182"/>
      <point x="688.5454545454545" y="1321.6363636363637"/>
      <point x="950.0" y="1321.6363636363637" type="curve" smooth="yes"/>
      <point x="1212.909090909091" y="1321.6363636363637"/>
      <point x="1374.3636363636363" y="1082.1818181818182"/>
      <point x="1331.090909090909" y="728.0" type="curve"/>
      <point x="1318.1818181818182" y="619.0909090909091"/>
      <point x="1286.7272727272727" y="504.0"/>
      <point x="1221.8181818181818" y="402.54545454545456" type="curve"/>
      <point x="1202.3636363636363" y="353.45454545454544" type="line"/>
      <point x="1180.909090909091" y="392.54545454545456" type="line"/>
      <point x="1016.1818181818181" y="588.5454545454545" type="line"/>
      <point x="882.0" y="469.45454545454544" type="line"/>
      <point x="1314.0" y="-33.09090909090909" type="line"/>
      <point x="1448.1818181818182" y="84.0" type="line" name="hr00"/>
      <point x="1322.1818181818182" y="230.9090909090909" type="line"/>
      <point x="1462.7272727272727" y="396.54545454545456"/>
      <point x="1539.8181818181818" y="546.0"/>
      <point x="1561.8181818181818" y="728.0" type="curve"/>
      <point x="1618.7272727272727" y="1189.8181818181818"/>
      <point x="1367.8181818181818" y="1484.0"/>
      <point x="970.1818181818181" y="1484.0" type="curve" smooth="yes"/>
      <point x="587.8181818181819" y="1484.0"/>
      <point x="245.45454545454547" y="1182.909090909091"/>
      <point x="188.54545454545453" y="728.0" type="curve" smooth="yes"/>
      <point x="133.0909090909091" y="272.90909090909093"/>
      <point x="380.1818181818182" y="-28.0"/>
    </contour>
  </outline>
</glyph>
<glyph name="R" format="2">
  <advance width="1315.6363636363637"/>
  <unicode hex="0052"/>
  <anchor x="656.0" y="0.0" name="bottom"/>
  <anchor x="805.4545454545455" y="1454.0" name="top"/>
  <outline>
    <contour>
      <point x="174.72727272727272" y="0.0" type="line"/>
      <point x="391.45454545454544" y="0.0" type="line"/>
      <point x="549.8181818181819" y="1303.2727272727273" type="line"/>
      <point x="642.7272727272727" y="1318.5454545454545"/>
      <point x="685.6363636363636" y="1319.6363636363637"/>
      <point x="759.0909090909091" y="1319.6363636363637" type="curve" smooth="yes"/>
      <point x="932.5454545454545" y="1319.6363636363637"/>
      <point x="1057.090909090909" y="1201.6363636363637"/>
      <point x="1037.6363636363637" y="1049.090909090909" type="curve" smooth="yes"/>
      <point x="1018.7272727272727" y="894.3636363636364"/>
      <point x="870.1818181818181" y="782.3636363636364"/>
      <point x="739.8181818181819" y="776.7272727272727" type="curve" smooth="yes"/>
      <point x="653.6363636363636" y="773.0909090909091"/>
      <point x="585.2727272727273" y="708.0"/>
      <point x="546.7272727272727" y="637.8181818181819" type="curve"/>
      <point x="604.0" y="622.1818181818181"/>
      <point x="721.8181818181819" y="617.2727272727273"/>
      <point x="754.5454545454545" y="622.7272727272727" type="curve"/>
      <point x="937.0909090909091" y="532.9090909090909"/>
      <point x="893.4545454545455" y="222.9090909090909"/>
      <point x="969.2727272727273" y="0.0" type="curve"/>
      <point x="1194.909090909091" y="0.0" type="line"/>
      <point x="1105.4545454545455" y="266.1818181818182"/>
      <point x="1150.7272727272727" y="524.3636363636364"/>
      <point x="980.5454545454545" y="658.0" type="curve"/>
      <point x="941.4545454545455" y="675.6363636363636" type="line"/>
      <point x="994.1818181818181" y="693.2727272727273" type="line"/>
      <point x="1136.1818181818182" y="763.8181818181819"/>
      <point x="1244.7272727272727" y="886.7272727272727"/>
      <point x="1264.7272727272727" y="1047.6363636363637" type="curve" smooth="yes" name="hr00"/>
      <point x="1294.3636363636363" y="1294.7272727272727"/>
      <point x="1097.090909090909" y="1482.0"/>
      <point x="777.2727272727273" y="1482.0" type="curve" smooth="yes"/>
      <point x="631.8181818181819" y="1482.0"/>
      <point x="522.7272727272727" y="1467.6363636363637"/>
      <point x="350.72727272727275" y="1436.0" type="curve"/>
    </contour>
  </outline>
</glyph>
<glyph name="S" format="2">
  <advance width="1120.5454545454545"/>
  <unicode hex="0053"/>
  <anchor x="530.5454545454545" y="0.0" name="bottom"/>
  <anchor x="722.1818181818181" y="1454.0" name="top"/>
  <outline>
    <contour>
      <point x="534.9090909090909" y="-24.545454545454547" type="curve"/>
      <point x="838.9090909090909" y="-24.545454545454547"/>
      <point x="1041.090909090909" y="151.45454545454547"/>
      <point x="1067.2727272727273" y="365.8181818181818" type="curve" smooth="yes"/>
      <point x="1123.2727272727273" y="822.5454545454545"/>
      <point x="443.27272727272725" y="817.0909090909091"/>
      <point x="480.1818181818182" y="1119.6363636363637" type="curve" smooth="yes"/>
      <point x="493.09090909090907" y="1228.5454545454545"/>
      <point x="584.9090909090909" y="1319.2727272727273"/>
      <point x="726.7272727272727" y="1319.2727272727273" type="curve" name="hr00"/>
      <point x="804.5454545454545" y="1319.2727272727273"/>
      <point x="902.3636363636364" y="1308.1818181818182"/>
      <point x="1013.4545454545455" y="1274.1818181818182" type="curve"/>
      <point x="1090.5454545454545" y="1418.3636363636363" type="line"/>
      <point x="950.9090909090909" y="1463.6363636363637"/>
      <point x="843.0909090909091" y="1480.0"/>
      <point x="726.9090909090909" y="1480.0" type="curve"/>
      <point x="487.45454545454544" y="1480.0"/>
      <point x="294.72727272727275" y="1330.0"/>
      <point x="268.54545454545456" y="1113.090909090909" type="curve" smooth="yes"/>
      <point x="213.0909090909091" y="665.4545454545455"/>
      <point x="891.0909090909091" y="694.9090909090909"/>
      <point x="850.7272727272727" y="367.09090909090907" type="curve" smooth="yes"/>
      <point x="834.3636363636364" y="238.36363636363637"/>
      <point x="714.5454545454545" y="136.36363636363637"/>
      <point x="539.0909090909091" y="136.36363636363637" type="curve"/>
      <point x="444.3636363636364" y="136.36363636363637"/>
      <point x="316.90909090909093" y="158.36363636363637"/>
      <point x="198.36363636363637" y="216.1818181818182" type="curve"/>
      <point x="122.18181818181819" y="70.9090909090909" type="line"/>
      <point x="262.1818181818182" y="0.0"/>
      <point x="420.90909090909093" y="-24.545454545454547"/>
    </contour>
  </outline>
</glyph>
<glyph name="T" format="2">
  <advance width="1082.5454545454545"/>
  <unicode hex="0054"/>
  <anchor x="537.8181818181819" y="0.0" name="bottom"/>
  <anchor x="625.8181818181819" y="728.0" name="center"/>
  <anchor x="717.2727272727273" y="1454.0" name="top"/>
  <outline>
    <contour>
      <point x="429.27272727272725" y="0.0" type="line"/>
      <point x="646.3636363636364" y="0.0" type="line"/>
      <point x="804.1818181818181" y="1293.090909090909" type="line"/>
      <point x="1217.6363636363637" y="1293.090909090909" type="line"/>
      <point x="1237.8181818181818" y="1454.0" type="line"/>
      <point x="195.27272727272728" y="1454.0" type="line"/>
      <point x="175.0909090909091" y="1293.090909090909" type="line" name="hr00"/>
      <point x="587.0909090909091" y="1293.090909090909" type="line"/>
    </contour>
  </outline>
</glyph>
<glyph name="U" format="2">
  <advance width="1406.0"/>
  <unicode hex="0055"/>
  <anchor x="708.7272727272727" y="0.0" name="bottom"/>
  <anchor x="1203.8181818181818" y="0.0" name="ogonek"/>
  <anchor x="886.7272727272727" y="1454.0" name="top"/>
  <anchor x="1482.0" y="1454.0" name="topright"/>
  <outline>
    <contour>
      <point x="704.7272727272727" y="-28.0" type="curve" smooth="yes" name="hr00"/>
      <point x="1033.6363636363637" y="-28.0"/>
      <point x="1282.1818181818182" y="199.0909090909091"/>
      <point x="1323.2727272727273" y="541.4545454545455" type="curve" smooth="yes"/>
      <point x="1436.1818181818182" y="1454.0" type="line"/>
      <point x="1223.090909090909" y="1454.0" type="line"/>
      <point x="1106.1818181818182" y="510.0" type="line" smooth="yes"/>
      <point x="1078.1818181818182" y="278.90909090909093"/>
      <point x="924.9090909090909" y="132.9090909090909"/>
      <point x="724.3636363636364" y="132.9090909090909" type="curve" smooth="yes"/>
      <point x="523.2727272727273" y="132.9090909090909"/>
      <point x="405.45454545454544" y="278.90909090909093"/>
      <point x="433.45454545454544" y="510.0" type="curve" smooth="yes"/>
      <point x="550.3636363636364" y="1454.0" type="line"/>
      <point x="336.72727272727275" y="1454.0" type="line"/>
      <point x="223.8181818181818" y="541.4545454545455" type="line" smooth="yes"/>
      <point x="181.63636363636363" y="192.54545454545453"/>
      <point x="359.8181818181818" y="-28.0"/>
    </contour>
  </outline>
</glyph>
<glyph name="V" format="2">
  <advance width="1280.1818181818182"/>
  <unicode hex="0056"/>
  <anchor x="646.3636363636364" y="0.0" name="bottom"/>
  <anchor x="826.3636363636364" y="1454.0" name="top"/>
  <outline>
    <contour>
      <point x="533.2727272727273" y="0.0" type="line" name="hr00"/>
      <point x="758.9090909090909" y="0.0" type="line"/>
      <point x="1442.909090909091" y="1454.0" type="line"/>
      <point x="1218.7272727272727" y="1454.0" type="line"/>
      <point x="697.0909090909091" y="282.54545454545456" type="line"/>
      <point x="673.0909090909091" y="215.8181818181818" type="line"/>
      <point x="667.6363636363636" y="284.54545454545456" type="line"/>
      <point x="434.0" y="1454.0" type="line"/>
      <point x="201.27272727272728" y="1454.0" type="line"/>
    </contour>
  </outline>
</glyph>
<glyph name="W" format="2">
  <advance width="1991.4545454545455"/>
  <unicode hex="0057"/>
  <anchor x="1001.4545454545455" y="0.0" name="bottom"/>
  <anchor x="1181.4545454545455" y="1454.0" name="top"/>
  <outline>
    <contour>
      <point x="443.45454545454544" y="0.0" type="line"/>
      <point x="690.7272727272727" y="0.0" type="line"/>
      <point x="1119.2727272727273" y="1118.5454545454545" type="line"/>
      <point x="1145.2727272727273" y="1198.5454545454545" type="line"/>
      <point x="1151.8181818181818" y="1115.090909090909" type="line"/>
      <point x="1310.1818181818182" y="0.0" type="line"/>
      <point x="1550.0" y="0.0" type="line"/>
      <point x="2123.4545454545455" y="1454.0" type="line"/>
      <point x="1912.5454545454545" y="1454.0" type="line"/>
      <point x="1482.909090909091" y="299.6363636363636" type="line"/>
      <point x="1452.909090909091" y="201.8181818181818" type="line"/>
      <point x="1445.4545454545455" y="303.6363636363636" type="line"/>
      <point x="1296.1818181818182" y="1434.0" type="line" name="hr00"/>
      <point x="1062.1818181818182" y="1434.0" type="line"/>
      <point x="625.6363636363636" y="304.54545454545456" type="line"/>
      <point x="591.0909090909091" y="203.27272727272728" type="line"/>
      <point x="587.6363636363636" y="304.54545454545456" type="line"/>
      <point x="440.9090909090909" y="1454.0" type="line"/>
      <point x="225.45454545454547" y="1454.0" type="line"/>
    </contour>
  </outline>
</glyph>
<glyph name="X" format="2">
  <advance width="1271.090909090909"/>
  <unicode hex="0058"/>
  <anchor x="630.3636363636364" y="0.0" name="bottom"/>
  <anchor x="816.1818181818181" y="1454.0" name="top"/>
  <outline>
    <contour>
      <point x="960.1818181818181" y="0.0" type="line"/>
      <point x="1201.8181818181818" y="0.0" type="line"/>
      <point x="841.6363636363636" y="749.0909090909091" type="line"/>
      <point x="1354.909090909091" y="1454.0" type="line"/>
      <point x="1115.090909090909" y="1454.0" type="line"/>
      <point x="766.9090909090909" y="938.1818181818181" type="line"/>
      <point x="744.9090909090909" y="884.9090909090909" type="line"/>
      <point x="732.3636363636364" y="938.1818181818181" type="line"/>
      <point x="515.8181818181819" y="1454.0" type="line"/>
      <point x="268.1818181818182" y="1454.0" type="line" name="hr00"/>
    </contour>
    <contour>
      <point x="65.27272727272727" y="0.0" type="line"/>
      <point x="298.54545454545456" y="0.0" type="line"/>
      <point x="557.0909090909091" y="384.54545454545456" type="line"/>
      <point x="622.1818181818181" y="476.54545454545456"/>
      <point x="582.7272727272727" y="593.6363636363636"/>
      <point x="543.6363636363636" y="657.2727272727273" type="curve"/>
    </contour>
  </outline>
</glyph>
<glyph name="Y" format="2">
  <advance width="1341.2727272727273"/>
  <unicode hex="0059"/>
  <anchor x="659.4545454545455" y="0.0" name="bottom"/>
  <anchor x="827.4545454545455" y="1454.0" name="top"/>
  <anchor x="156.0" y="1454.0" name="topleft"/>
  <outline>
    <contour>
      <point x="553.4545454545455" y="0.0" type="line"/>
      <point x="764.0" y="0.0" type="line"/>
      <point x="846.0" y="675.0909090909091" type="line" name="hr00"/>
      <point x="474.54545454545456" y="1454.0" type="line"/>
      <point x="232.36363636363637" y="1454.0" type="line"/>
      <point x="628.5454545454545" y="625.0909090909091" type="line"/>
    </contour>
    <contour>
      <point x="913.0909090909091" y="752.5454545454545" type="curve"/>
      <point x="1426.0" y="1454.0" type="line"/>
      <point x="1189.2727272727273" y="1454.0" type="line"/>
      <point x="902.5454545454545" y="1034.0" type="line"/>
      <point x="831.6363636363636" y="930.7272727272727"/>
      <point x="870.5454545454545" y="816.1818181818181"/>
    </contour>
  </outline>
</glyph>
<glyph name="Z" format="2">
  <advance width="1203.6363636363637"/>
  <unicode hex="005A"/>
  <anchor x="679.2727272727273" y="0.0" name="bottom"/>
  <anchor x="884.9090909090909" y="1454.0" name="top"/>
  <outline>
    <contour>
      <point x="149.27272727272728" y="0.0" type="line"/>
      <point x="1207.8181818181818" y="0.0" type="line"/>
      <point x="1226.0" y="160.9090909090909" type="line"/>
      <point x="463.45454545454544" y="160.9090909090909" type="line"/>
      <point x="418.90909090909093" y="154.9090909090909" type="line"/>
      <point x="453.45454545454544" y="184.9090909090909" type="line"/>
      <point x="1355.2727272727273" y="1366.5454545454545" type="line"/>
      <point x="1366.3636363636363" y="1454.0" type="line"/>
      <point x="408.1818181818182" y="1454.0" type="line" name="hr00"/>
      <point x="388.0" y="1294.1818181818182" type="line"/>
      <point x="1046.1818181818182" y="1294.1818181818182" type="line"/>
      <point x="1094.7272727272727" y="1300.1818181818182" type="line"/>
      <point x="1058.7272727272727" y="1266.1818181818182" type="line"/>
      <point x="158.9090909090909" y="87.45454545454545" type="line"/>
    </contour>
  </outline>
</glyph>
<glyph name="bracketleft" format="2">
  <advance width="894.0"/>
  <unicode hex="005B"/>
  <outline>
    <contour>
      <point x="227.45454545454547" y="-398.0" type="line"/>
      <point x="766.5454545454545" y="-398.0" type="line"/>
      <point x="788.1818181818181" y="-236.54545454545456" type="line"/>
      <point x="444.72727272727275" y="-236.54545454545456" type="line"/>
      <point x="642.3636363636364" y="1380.5454545454545" type="line"/>
      <point x="984.3636363636364" y="1380.5454545454545" type="line"/>
      <point x="1004.5454545454545" y="1542.0" type="line"/>
      <point x="465.45454545454544" y="1542.0" type="line" name="hr00"/>
    </contour>
  </outline>
</glyph>
<glyph name="backslash" format="2">
  <advance width="730.9090909090909"/>
  <unicode hex="005C"/>
  <outline>
    <contour>
      <point x="499.27272727272725" y="-124.0" type="line" name="hr00"/>
      <point x="694.7272727272727" y="-124.0" type="line"/>
      <point x="402.72727272727275" y="1454.0" type="line"/>
      <point x="207.27272727272728" y="1454.0" type="line"/>
    </contour>
  </outline>
</glyph>
<glyph name="bracketright" format="2">
  <advance width="908.5454545454545"/>
  <unicode hex="005D"/>
  <outline>
    <contour>
      <point x="50.36363636363637" y="-398.0" type="line"/>
      <point x="588.0" y="-398.0" type="line" name="hr00"/>
      <point x="826.0" y="1542.0" type="line"/>
      <point x="288.3636363636364" y="1542.0" type="line"/>
      <point x="268.1818181818182" y="1380.5454545454545" type="line"/>
      <point x="610.1818181818181" y="1380.5454545454545" type="line"/>
      <point x="412.54545454545456" y="-236.54545454545456" type="line"/>
      <point x="69.0909090909091" y="-236.54545454545456" type="line"/>
    </contour>
  </outline>
</glyph>
<glyph name="asciicircum" format="2">
  <advance width="1256.0"/>
  <unicode hex="005E"/>
  <outline>
    <contour>
      <point x="201.63636363636363" y="420.0" type="line"/>
      <point x="386.90909090909093" y="420.0" type="line" name="hr00"/>
      <point x="758.7272727272727" y="1139.8181818181818" type="line"/>
      <point x="777.8181818181819" y="1194.5454545454545" type="line"/>
      <point x="783.8181818181819" y="1139.8181818181818" type="line"/>
      <point x="979.0909090909091" y="420.0" type="line"/>
      <point x="1160.3636363636363" y="420.0" type="line"/>
      <point x="873.6363636363636" y="1454.0" type="line"/>
      <point x="744.3636363636364" y="1454.0" type="line"/>
    </contour>
  </outline>
</glyph>
<glyph name="underscore" format="2">
  <advance width="994.0"/>
  <unicode hex="005F"/>
  <outline>
    <contour>
      <point x="35.81818181818182" y="-143.45454545454544" type="line" name="hr00"/>
      <point x="921.8181818181819" y="-143.45454545454544" type="line"/>
      <point x="940.0" y="0.0" type="line"/>
      <point x="54.0" y="0.0" type="line"/>
    </contour>
  </outline>
</glyph>
<glyph name="a" format="2">
  <advance width="1156.1818181818182"/>
  <unicode hex="0061"/>
  <anchor x="543.8181818181819" y="0.0" name="bottom"/>
  <anchor x="1037.4545454545455" y="7.272727272727273" name="ogonek"/>
  <anchor x="738.0" y="1034.0" name="top"/>
  <outline>
    <contour>
      <point x="522.7272727272727" y="-12.181818181818182" type="curve" smooth="yes"/>
      <point x="584.9090909090909" y="-3.818181818181818"/>
      <point x="663.6363636363636" y="25.81818181818182"/>
      <point x="734.9090909090909" y="72.72727272727273" type="curve"/>
      <point x="691.4545454545455" y="135.0909090909091"/>
      <point x="642.9090909090909" y="163.63636363636363"/>
      <point x="579.4545454545455" y="156.1818181818182" type="curve" smooth="yes"/>
      <point x="408.54545454545456" y="131.63636363636363"/>
      <point x="356.3636363636364" y="304.0"/>
      <point x="381.09090909090907" y="503.27272727272725" type="curve" smooth="yes"/>
      <point x="411.45454545454544" y="749.4545454545455"/>
      <point x="552.1818181818181" y="894.1818181818181"/>
      <point x="747.2727272727273" y="894.1818181818181" type="curve" smooth="yes"/>
      <point x="798.5454545454545" y="894.1818181818181"/>
      <point x="848.0" y="888.7272727272727"/>
      <point x="905.8181818181819" y="873.8181818181819" type="curve"/>
      <point x="822.5454545454545" y="198.36363636363637" type="line" smooth="yes"/>
      <point x="810.5454545454545" y="96.0"/>
      <point x="843.8181818181819" y="22.363636363636363"/>
      <point x="880.1818181818181" y="0.0" type="curve"/>
      <point x="1037.4545454545455" y="7.272727272727273" type="line"/>
      <point x="1028.3636363636363" y="83.81818181818181"/>
      <point x="1027.4545454545455" y="188.1818181818182"/>
      <point x="1044.7272727272727" y="324.72727272727275" type="curve" name="hr00"/>
      <point x="1126.5454545454545" y="992.1818181818181" type="line"/>
      <point x="977.6363636363636" y="1039.2727272727273"/>
      <point x="876.1818181818181" y="1055.090909090909"/>
      <point x="764.1818181818181" y="1055.090909090909" type="curve" smooth="yes"/>
      <point x="441.09090909090907" y="1055.090909090909"/>
      <point x="196.72727272727272" y="827.0909090909091"/>
      <point x="157.27272727272728" y="503.27272727272725" type="curve" smooth="yes"/>
      <point x="120.0" y="201.27272727272728"/>
      <point x="280.3636363636364" y="-39.27272727272727"/>
    </contour>
  </outline>
</glyph>
<glyph name="b" format="2">
  <advance width="1179.2727272727273"/>
  <unicode hex="0062"/>
  <anchor x="541.8181818181819" y="0.0" name="bottom"/>
  <anchor x="451.6363636363636" y="1516.0" name="top"/>
  <outline>
    <contour>
      <point x="558.7272727272727" y="-22.727272727272727" type="curve" smooth="yes"/>
      <point x="869.0909090909091" y="-22.727272727272727"/>
      <point x="1103.8181818181818" y="210.54545454545453"/>
      <point x="1144.3636363636363" y="530.7272727272727" type="curve" smooth="yes"/>
      <point x="1182.5454545454545" y="849.2727272727273"/>
      <point x="1010.9090909090909" y="1058.7272727272727"/>
      <point x="783.0909090909091" y="1046.1818181818182" type="curve" smooth="yes"/>
      <point x="720.9090909090909" y="1043.6363636363637"/>
      <point x="634.0" y="1020.7272727272727"/>
      <point x="559.8181818181819" y="983.2727272727273" type="curve" name="hr00"/>
      <point x="597.2727272727273" y="917.8181818181819"/>
      <point x="641.8181818181819" y="875.2727272727273"/>
      <point x="710.0" y="882.3636363636364" type="curve" smooth="yes"/>
      <point x="869.6363636363636" y="900.1818181818181"/>
      <point x="947.6363636363636" y="757.6363636363636"/>
      <point x="920.5454545454545" y="530.7272727272727" type="curve" smooth="yes"/>
      <point x="891.0909090909091" y="299.09090909090907"/>
      <point x="759.0909090909091" y="138.1818181818182"/>
      <point x="578.3636363636364" y="138.1818181818182" type="curve" smooth="yes"/>
      <point x="520.0" y="138.1818181818182"/>
      <point x="452.72727272727275" y="145.0909090909091"/>
      <point x="391.27272727272725" y="166.9090909090909" type="curve"/>
      <point x="555.6363636363636" y="1502.0" type="line"/>
      <point x="346.54545454545456" y="1516.0" type="line"/>
      <point x="169.0909090909091" y="81.0909090909091" type="line"/>
      <point x="287.6363636363636" y="10.181818181818182"/>
      <point x="414.1818181818182" y="-22.727272727272727"/>
    </contour>
  </outline>
</glyph>
<glyph name="c" format="2">
  <advance width="855.6363636363636"/>
  <unicode hex="0063"/>
  <anchor x="500.90909090909093" y="0.0" name="bottom"/>
  <anchor x="628.1818181818181" y="1034.0" name="top"/>
  <outline>
    <contour>
      <point x="569.0909090909091" y="-21.636363636363637" type="curve" smooth="yes" name="hr00"/>
      <point x="633.8181818181819" y="-21.636363636363637"/>
      <point x="734.1818181818181" y="-4.0"/>
      <point x="848.5454545454545" y="48.36363636363637" type="curve"/>
      <point x="811.2727272727273" y="194.54545454545453" type="line"/>
      <point x="715.4545454545455" y="154.72727272727272"/>
      <point x="646.7272727272727" y="139.27272727272728"/>
      <point x="589.2727272727273" y="139.27272727272728" type="curve" smooth="yes"/>
      <point x="438.0" y="139.27272727272728"/>
      <point x="332.72727272727275" y="264.3636363636364"/>
      <point x="363.09090909090907" y="518.0" type="curve" smooth="yes"/>
      <point x="394.9090909090909" y="769.6363636363636"/>
      <point x="531.6363636363636" y="894.7272727272727"/>
      <point x="681.4545454545455" y="894.7272727272727" type="curve" smooth="yes"/>
      <point x="737.0909090909091" y="894.7272727272727"/>
      <point x="799.6363636363636" y="886.7272727272727"/>
      <point x="870.3636363636364" y="867.8181818181819" type="curve"/>
      <point x="940.5454545454545" y="1013.0909090909091" type="line"/>
      <point x="863.0909090909091" y="1043.090909090909"/>
      <point x="773.6363636363636" y="1055.6363636363637"/>
      <point x="701.6363636363636" y="1055.6363636363637" type="curve" smooth="yes"/>
      <point x="438.1818181818182" y="1055.6363636363637"/>
      <point x="182.9090909090909" y="868.3636363636364"/>
      <point x="138.36363636363637" y="518.0" type="curve" smooth="yes"/>
      <point x="95.27272727272728" y="160.1818181818182"/>
      <point x="298.3636363636364" y="-21.636363636363637"/>
    </contour>
  </outline>
</glyph>
<glyph name="d" format="2">
  <advance width="1207.4545454545455"/>
  <unicode hex="0064"/>
  <anchor x="540.0" y="0.0" name="bottom"/>
  <anchor x="970.7272727272727" y="1277.2727272727273" name="center"/>
  <anchor x="1115.8181818181818" y="1516.0" name="top"/>
  <anchor x="1353.6363636363637" y="1516.0" name="topright"/>
  <outline>
    <contour>
      <point x="532.5454545454545" y="-21.636363636363637" type="curve" name="hr02"/>
      <point x="613.4545454545455" y="-21.636363636363637"/>
      <point x="726.5454545454545" y="9.272727272727273"/>
      <point x="826.0" y="103.27272727272727" type="curve"/>
      <point x="851.4545454545455" y="140.0" type="line"/>
      <point x="852.5454545454545" y="104.18181818181819" type="line"/>
      <point x="865.4545454545455" y="54.54545454545455"/>
      <point x="880.5454545454545" y="25.272727272727273"/>
      <point x="911.0909090909091" y="0.0" type="curve" name="hr01"/>
      <point x="1068.909090909091" y="10.0" type="line"/>
      <point x="1059.8181818181818" y="86.54545454545455"/>
      <point x="1058.909090909091" y="190.9090909090909"/>
      <point x="1076.1818181818182" y="327.45454545454544" type="curve" smooth="yes"/>
      <point x="1220.909090909091" y="1502.0" type="line"/>
      <point x="1011.8181818181819" y="1516.0" type="line"/>
      <point x="859.4545454545455" y="283.6363636363636" type="line"/>
      <point x="764.9090909090909" y="184.72727272727272"/>
      <point x="675.8181818181819" y="139.27272727272728"/>
      <point x="588.1818181818181" y="139.27272727272728" type="curve"/>
      <point x="423.6363636363636" y="139.27272727272728"/>
      <point x="352.0" y="303.09090909090907"/>
      <point x="380.3636363636364" y="522.5454545454545" type="curve"/>
      <point x="409.6363636363636" y="771.6363636363636"/>
      <point x="541.8181818181819" y="889.6363636363636"/>
      <point x="687.4545454545455" y="889.4545454545455" type="curve" smooth="yes"/>
      <point x="773.8181818181819" y="889.6363636363636"/>
      <point x="835.6363636363636" y="940.0"/>
      <point x="880.7272727272727" y="1013.0909090909091" type="curve"/>
      <point x="802.5454545454545" y="1040.1818181818182"/>
      <point x="739.2727272727273" y="1047.6363636363637"/>
      <point x="677.0909090909091" y="1047.6363636363637" type="curve" smooth="yes"/>
      <point x="441.27272727272725" y="1047.6363636363637"/>
      <point x="192.54545454545456" y="832.1818181818181"/>
      <point x="155.63636363636363" y="522.5454545454545" type="curve"/>
      <point x="117.0909090909091" y="213.8181818181818"/>
      <point x="249.8181818181818" y="-21.636363636363637"/>
    </contour>
  </outline>
</glyph>
<glyph name="e" format="2">
  <advance width="1098.909090909091"/>
  <unicode hex="0065"/>
  <anchor x="572.5454545454545" y="0.0" name="bottom"/>
  <anchor x="821.8181818181819" y="0.0" name="ogonek"/>
  <anchor x="703.4545454545455" y="1034.0" name="top"/>
  <outline>
    <contour>
      <point x="598.0" y="-21.636363636363637" type="curve" smooth="yes"/>
      <point x="701.6363636363636" y="-21.636363636363637"/>
      <point x="828.1818181818181" y="-1.4545454545454546"/>
      <point x="968.5454545454545" y="65.0909090909091" type="curve"/>
      <point x="932.1818181818181" y="211.8181818181818" type="line"/>
      <point x="810.1818181818181" y="155.45454545454544"/>
      <point x="732.9090909090909" y="139.27272727272728"/>
      <point x="640.9090909090909" y="139.27272727272728" type="curve" smooth="yes"/>
      <point x="462.72727272727275" y="139.27272727272728"/>
      <point x="351.6363636363636" y="293.6363636363636"/>
      <point x="381.09090909090907" y="529.4545454545455" type="curve" smooth="yes"/>
      <point x="410.54545454545456" y="770.5454545454545"/>
      <point x="543.6363636363636" y="898.0"/>
      <point x="695.8181818181819" y="898.0" type="curve" smooth="yes"/>
      <point x="823.6363636363636" y="898.0"/>
      <point x="901.4545454545455" y="779.2727272727273"/>
      <point x="865.0909090909091" y="634.0" type="curve" name="hr00"/>
      <point x="631.8181818181819" y="634.0" type="line"/>
      <point x="543.4545454545455" y="634.0"/>
      <point x="487.09090909090907" y="572.1818181818181"/>
      <point x="448.54545454545456" y="491.8181818181818" type="curve"/>
      <point x="1023.0909090909091" y="491.8181818181818" type="line"/>
      <point x="1156.909090909091" y="793.6363636363636"/>
      <point x="1013.8181818181819" y="1055.6363636363637"/>
      <point x="733.8181818181819" y="1055.6363636363637" type="curve" smooth="yes"/>
      <point x="435.09090909090907" y="1055.6363636363637"/>
      <point x="210.54545454545453" y="853.8181818181819"/>
      <point x="170.0" y="528.1818181818181" type="curve" smooth="yes"/>
      <point x="133.63636363636363" y="226.1818181818182"/>
      <point x="284.3636363636364" y="-21.636363636363637"/>
    </contour>
  </outline>
</glyph>
<glyph name="f" format="2">
  <advance width="805.6363636363636"/>
  <unicode hex="0066"/>
  <anchor x="289.6363636363636" y="0.0" name="bottom"/>
  <anchor x="769.4545454545455" y="1516.0" name="top"/>
  <outline>
    <contour>
      <point x="189.63636363636363" y="0.0" type="line"/>
      <point x="388.1818181818182" y="0.0" type="line"/>
      <point x="523.0909090909091" y="1104.5454545454545" type="line" smooth="yes"/>
      <point x="545.4545454545455" y="1287.6363636363637"/>
      <point x="663.4545454545455" y="1370.909090909091"/>
      <point x="780.3636363636364" y="1370.909090909091" type="curve" smooth="yes"/>
      <point x="823.4545454545455" y="1370.909090909091"/>
      <point x="872.9090909090909" y="1363.8181818181818"/>
      <point x="953.2727272727273" y="1334.5454545454545" type="curve"/>
      <point x="1016.9090909090909" y="1471.8181818181818" type="line"/>
      <point x="925.6363636363636" y="1513.4545454545455"/>
      <point x="840.3636363636364" y="1526.0"/>
      <point x="774.3636363636364" y="1526.0" type="curve" smooth="yes"/>
      <point x="523.8181818181819" y="1526.0"/>
      <point x="355.6363636363636" y="1353.4545454545455"/>
      <point x="321.6363636363636" y="1090.0" type="curve" smooth="yes"/>
      <point x="315.6363636363636" y="1034.0" type="line"/>
      <point x="139.8181818181818" y="992.5454545454545" type="line"/>
      <point x="127.0909090909091" y="879.6363636363636" type="line" name="hr00"/>
      <point x="297.45454545454544" y="879.6363636363636" type="line"/>
    </contour>
    <contour>
      <point x="566.9090909090909" y="879.6363636363636" type="curve"/>
      <point x="856.3636363636364" y="879.6363636363636" type="line"/>
      <point x="874.5454545454545" y="1034.0" type="line"/>
      <point x="763.2727272727273" y="1034.0" type="line"/>
      <point x="661.8181818181818" y="1034.0"/>
      <point x="602.9090909090909" y="958.9090909090909"/>
    </contour>
  </outline>
</glyph>
<glyph name="g" format="2">
  <advance width="1152.909090909091"/>
  <unicode hex="0067"/>
  <anchor x="483.45454545454544" y="-482.0" name="bottom"/>
  <anchor x="733.0909090909091" y="1034.0" name="top"/>
  <outline>
    <contour>
      <point x="458.72727272727275" y="-500.0" type="curve" smooth="yes"/>
      <point x="750.7272727272727" y="-500.0"/>
      <point x="969.8181818181819" y="-316.54545454545456"/>
      <point x="1010.0" y="0.0" type="curve"/>
      <point x="1130.5454545454545" y="992.1818181818181" type="line"/>
      <point x="982.1818181818181" y="1039.2727272727273"/>
      <point x="880.7272727272727" y="1055.090909090909"/>
      <point x="768.1818181818181" y="1055.090909090909" type="curve" smooth="yes"/>
      <point x="445.6363636363636" y="1055.090909090909"/>
      <point x="201.27272727272728" y="827.0909090909091"/>
      <point x="161.8181818181818" y="503.27272727272725" type="curve" name="hr00"/>
      <point x="124.54545454545455" y="201.27272727272728"/>
      <point x="285.8181818181818" y="-40.72727272727273"/>
      <point x="528.7272727272727" y="-12.181818181818182" type="curve" smooth="yes"/>
      <point x="590.9090909090909" y="-5.2727272727272725"/>
      <point x="669.6363636363636" y="24.363636363636363"/>
      <point x="740.3636363636364" y="71.27272727272727" type="curve"/>
      <point x="697.4545454545455" y="133.63636363636363"/>
      <point x="648.9090909090909" y="162.1818181818182"/>
      <point x="584.9090909090909" y="154.72727272727272" type="curve" smooth="yes"/>
      <point x="414.54545454545456" y="130.1818181818182"/>
      <point x="360.9090909090909" y="304.0"/>
      <point x="385.6363636363636" y="503.27272727272725" type="curve"/>
      <point x="416.0" y="749.4545454545455"/>
      <point x="556.7272727272727" y="894.1818181818181"/>
      <point x="751.8181818181819" y="894.1818181818181" type="curve" smooth="yes"/>
      <point x="803.0909090909091" y="894.1818181818181"/>
      <point x="852.5454545454545" y="888.7272727272727"/>
      <point x="909.8181818181819" y="873.8181818181819" type="curve"/>
      <point x="799.4545454545455" y="-22.0" type="line"/>
      <point x="773.0909090909091" y="-238.0"/>
      <point x="624.9090909090909" y="-340.72727272727275"/>
      <point x="462.3636363636364" y="-340.72727272727275" type="curve" smooth="yes"/>
      <point x="378.3636363636364" y="-340.72727272727275"/>
      <point x="285.45454545454544" y="-321.8181818181818"/>
      <point x="172.0" y="-266.3636363636364" type="curve"/>
      <point x="97.45454545454545" y="-416.0" type="line"/>
      <point x="228.0" y="-484.0"/>
      <point x="354.72727272727275" y="-500.0"/>
    </contour>
  </outline>
</glyph>
<glyph name="h" format="2">
  <advance width="1178.1818181818182"/>
  <unicode hex="0068"/>
  <anchor x="589.0909090909091" y="0.0" name="bottom"/>
  <anchor x="554.3636363636364" y="1277.2727272727273" name="center"/>
  <anchor x="451.09090909090907" y="1516.0" name="top"/>
  <outline>
    <contour>
      <point x="160.54545454545453" y="0.0" type="line" name="hr00"/>
      <point x="371.6363636363636" y="0.0" type="line"/>
      <point x="555.6363636363636" y="1502.0" type="line"/>
      <point x="346.54545454545456" y="1516.0" type="line"/>
    </contour>
    <contour>
      <point x="806.5454545454545" y="0.0" type="line"/>
      <point x="1022.0" y="0.0" type="line"/>
      <point x="1110.5454545454545" y="733.6363636363636" type="line" smooth="yes"/>
      <point x="1140.909090909091" y="973.4545454545455"/>
      <point x="1020.7272727272727" y="1055.6363636363637"/>
      <point x="871.0909090909091" y="1055.6363636363637" type="curve" smooth="yes"/>
      <point x="797.0909090909091" y="1055.6363636363637"/>
      <point x="707.4545454545455" y="1035.8181818181818"/>
      <point x="558.7272727272727" y="954.5454545454545" type="curve"/>
      <point x="601.8181818181819" y="892.7272727272727"/>
      <point x="654.7272727272727" y="864.5454545454545"/>
      <point x="729.2727272727273" y="878.7272727272727" type="curve" smooth="yes"/>
      <point x="766.1818181818181" y="885.0909090909091"/>
      <point x="779.6363636363636" y="893.0909090909091"/>
      <point x="809.4545454545455" y="893.0909090909091" type="curve" smooth="yes"/>
      <point x="882.5454545454545" y="893.0909090909091"/>
      <point x="907.4545454545455" y="832.0"/>
      <point x="898.0" y="747.0909090909091" type="curve"/>
    </contour>
  </outline>
</glyph>
<glyph name="j" format="2">
  <advance width="566.7272727272727"/>
  <unicode hex="006A"/>
  <outline>
    <contour>
      <point x="-20.727272727272727" y="-496.54545454545456" type="line"/>
      <point x="303.45454545454544" y="-288.1818181818182"/>
      <point x="387.6363636363636" y="-140.0"/>
      <point x="414.72727272727275" y="82.9090909090909" type="curve"/>
      <point x="532.1818181818181" y="1034.0" type="line"/>
      <point x="318.1818181818182" y="1034.0" type="line" name="hr01"/>
      <point x="200.72727272727272" y="82.9090909090909" type="line" smooth="yes"/>
      <point x="178.1818181818182" y="-107.27272727272727"/>
      <point x="131.63636363636363" y="-196.54545454545453"/>
      <point x="-100.36363636363636" y="-379.6363636363636" type="curve"/>
    </contour>
    <contour>
      <point x="445.09090909090907" y="1202.0" type="curve" smooth="yes"/>
      <point x="523.0909090909091" y="1202.0"/>
      <point x="587.6363636363636" y="1258.0"/>
      <point x="596.1818181818181" y="1334.0" type="curve" smooth="yes"/>
      <point x="606.7272727272727" y="1412.0"/>
      <point x="556.3636363636364" y="1470.0"/>
      <point x="478.3636363636364" y="1470.0" type="curve" smooth="yes"/>
      <point x="402.3636363636364" y="1470.0"/>
      <point x="340.72727272727275" y="1412.0"/>
      <point x="330.1818181818182" y="1334.0" type="curve"/>
      <point x="321.6363636363636" y="1258.0"/>
      <point x="369.09090909090907" y="1202.0"/>
    </contour>
  </outline>
</glyph>
<glyph name="k" format="2">
  <advance width="1185.4545454545455"/>
  <unicode hex="006B"/>
  <anchor x="622.9090909090909" y="0.0" name="bottom"/>
  <anchor x="451.09090909090907" y="1516.0" name="top"/>
  <outline>
    <contour>
      <point x="902.5454545454545" y="0.0" type="line"/>
      <point x="1140.7272727272727" y="0.0" type="line"/>
      <point x="830.5454545454545" y="671.6363636363636" type="line"/>
      <point x="1191.6363636363637" y="1020.0" type="line"/>
      <point x="958.3636363636364" y="1034.0" type="line"/>
      <point x="631.6363636363636" y="699.6363636363636" type="line" smooth="yes"/>
      <point x="538.5454545454545" y="604.9090909090909"/>
      <point x="497.27272727272725" y="471.27272727272725"/>
      <point x="514.0" y="364.3636363636364" type="curve"/>
      <point x="649.0909090909091" y="495.8181818181818" type="line"/>
      <point x="684.0" y="532.9090909090909" type="line"/>
      <point x="699.2727272727273" y="489.27272727272725" type="line"/>
    </contour>
    <contour>
      <point x="160.54545454545453" y="0.0" type="line"/>
      <point x="371.6363636363636" y="0.0" type="line" name="hr00"/>
      <point x="555.6363636363636" y="1502.0" type="line"/>
      <point x="346.54545454545456" y="1516.0" type="line"/>
    </contour>
  </outline>
</glyph>
<glyph name="l" format="2">
  <advance width="523.2727272727273"/>
  <unicode hex="006C"/>
  <anchor x="269.6363636363636" y="0.0" name="bottom"/>
  <anchor x="379.6363636363636" y="900.0" name="center"/>
  <anchor x="453.6363636363636" y="1516.0" name="top"/>
  <anchor x="640.7272727272727" y="1516.0" name="topright"/>
  <outline>
    <contour>
      <point x="164.54545454545453" y="0.0" type="line"/>
      <point x="372.72727272727275" y="0.0" type="line" name="hr00"/>
      <point x="556.7272727272727" y="1502.0" type="line"/>
      <point x="350.54545454545456" y="1516.0" type="line"/>
    </contour>
  </outline>
</glyph>
<glyph name="m" format="2">
  <advance width="1819.2727272727273"/>
  <unicode hex="006D"/>
  <anchor x="914.9090909090909" y="0.0" name="bottom"/>
  <anchor x="1038.5454545454545" y="1034.0" name="top"/>
  <outline>
    <contour>
      <point x="1447.8181818181818" y="0.0" type="line"/>
      <point x="1663.2727272727273" y="0.0" type="line"/>
      <point x="1751.8181818181818" y="733.6363636363636" type="line" smooth="yes"/>
      <point x="1782.1818181818182" y="973.4545454545455"/>
      <point x="1651.6363636363637" y="1055.6363636363637"/>
      <point x="1499.090909090909" y="1055.6363636363637" type="curve" smooth="yes"/>
      <point x="1421.090909090909" y="1055.6363636363637"/>
      <point x="1322.1818181818182" y="1032.5454545454545"/>
      <point x="1169.6363636363637" y="955.0909090909091" type="curve"/>
      <point x="1212.1818181818182" y="893.2727272727273"/>
      <point x="1270.7272727272727" y="864.0"/>
      <point x="1346.3636363636363" y="878.1818181818181" type="curve" smooth="yes"/>
      <point x="1383.2727272727273" y="884.5454545454545"/>
      <point x="1408.909090909091" y="893.0909090909091"/>
      <point x="1438.7272727272727" y="893.0909090909091" type="curve" smooth="yes"/>
      <point x="1520.0" y="893.0909090909091"/>
      <point x="1548.7272727272727" y="832.0"/>
      <point x="1539.2727272727273" y="747.0909090909091" type="curve"/>
    </contour>
    <contour>
      <point x="164.54545454545453" y="0.0" type="line"/>
      <point x="380.54545454545456" y="0.0" type="line"/>
      <point x="478.54545454545456" y="814.0" type="line" smooth="yes"/>
      <point x="488.54545454545456" y="894.0"/>
      <point x="484.54545454545456" y="962.0"/>
      <point x="428.54545454545456" y="1034.0" type="curve"/>
      <point x="258.54545454545456" y="1024.0" type="line"/>
      <point x="268.54545454545456" y="930.0"/>
      <point x="266.54545454545456" y="846.0"/>
      <point x="258.54545454545456" y="772.0" type="curve" smooth="yes"/>
    </contour>
    <contour>
      <point x="806.9090909090909" y="0.0" type="line"/>
      <point x="1022.9090909090909" y="0.0" type="line"/>
      <point x="1111.4545454545455" y="733.6363636363636" type="line" smooth="yes"/>
      <point x="1141.8181818181818" y="973.4545454545455"/>
      <point x="1020.9090909090909" y="1055.6363636363637"/>
      <point x="869.8181818181819" y="1055.6363636363637" type="curve" smooth="yes"/>
      <point x="791.8181818181819" y="1055.6363636363637"/>
      <point x="700.3636363636364" y="1034.0"/>
      <point x="548.3636363636364" y="957.0909090909091" type="curve"/>
      <point x="590.9090909090909" y="895.2727272727273"/>
      <point x="645.4545454545455" y="866.0"/>
      <point x="722.5454545454545" y="880.1818181818181" type="curve" smooth="yes"/>
      <point x="756.0" y="886.5454545454545"/>
      <point x="777.0909090909091" y="893.0909090909091"/>
      <point x="806.9090909090909" y="893.0909090909091" type="curve" smooth="yes" name="hr01"/>
      <point x="882.1818181818181" y="893.0909090909091"/>
      <point x="907.8181818181819" y="832.0"/>
      <point x="898.3636363636364" y="747.0909090909091" type="curve"/>
    </contour>
  </outline>
</glyph>
<glyph name="n" format="2">
  <advance width="1182.1818181818182"/>
  <unicode hex="006E"/>
  <anchor x="587.4545454545455" y="0.0" name="bottom"/>
  <anchor x="716.7272727272727" y="1034.0" name="top"/>
  <outline>
    <contour>
      <point x="805.8181818181819" y="0.0" type="line"/>
      <point x="1021.2727272727273" y="0.0" type="line"/>
      <point x="1109.8181818181818" y="733.6363636363636" type="line" smooth="yes"/>
      <point x="1140.1818181818182" y="973.4545454545455"/>
      <point x="1011.2727272727273" y="1055.6363636363637"/>
      <point x="857.2727272727273" y="1055.6363636363637" type="curve" smooth="yes"/>
      <point x="779.8181818181819" y="1055.6363636363637"/>
      <point x="686.1818181818181" y="1033.6363636363637"/>
      <point x="537.4545454545455" y="953.4545454545455" type="curve"/>
      <point x="580.5454545454545" y="893.8181818181819"/>
      <point x="635.8181818181819" y="864.0"/>
      <point x="711.4545454545455" y="878.1818181818181" type="curve" smooth="yes"/>
      <point x="748.0" y="884.5454545454545"/>
      <point x="768.5454545454545" y="893.0909090909091"/>
      <point x="798.9090909090909" y="893.0909090909091" type="curve" smooth="yes" name="hr01"/>
      <point x="877.0909090909091" y="893.0909090909091"/>
      <point x="906.7272727272727" y="832.0"/>
      <point x="897.2727272727273" y="747.0909090909091" type="curve"/>
    </contour>
    <contour>
      <point x="152.54545454545456" y="0.0" type="line"/>
      <point x="368.54545454545456" y="0.0" type="line"/>
      <point x="466.54545454545456" y="814.0" type="line" smooth="yes"/>
      <point x="476.54545454545456" y="894.0"/>
      <point x="472.0" y="962.0"/>
      <point x="416.0" y="1034.0" type="curve"/>
      <point x="246.0" y="1024.0" type="line"/>
      <point x="256.0" y="930.0"/>
      <point x="254.54545454545456" y="846.0"/>
      <point x="246.54545454545456" y="772.0" type="curve" smooth="yes"/>
    </contour>
  </outline>
</glyph>
<glyph name="o" format="2">
  <advance width="1156.0"/>
  <unicode hex="006F"/>
  <anchor x="571.4545454545455" y="0.0" name="bottom"/>
  <anchor x="635.4545454545455" y="518.0" name="center"/>
  <anchor x="977.8181818181819" y="0.0" name="ogonek"/>
  <anchor x="699.4545454545455" y="1034.0" name="top"/>
  <anchor x="1180.0" y="1034.0" name="topright"/>
  <outline>
    <contour>
      <point x="569.4545454545455" y="-21.636363636363637" type="curve" smooth="yes"/>
      <point x="829.0909090909091" y="-21.636363636363637"/>
      <point x="1090.1818181818182" y="172.1818181818182"/>
      <point x="1132.1818181818182" y="518.0" type="curve" smooth="yes"/>
      <point x="1170.7272727272727" y="822.9090909090909"/>
      <point x="1011.2727272727273" y="1055.6363636363637"/>
      <point x="702.0" y="1055.6363636363637" type="curve"/>
      <point x="467.6363636363636" y="1055.6363636363637"/>
      <point x="184.72727272727272" y="886.7272727272727"/>
      <point x="138.72727272727272" y="518.0" type="curve" smooth="yes" name="hr00"/>
      <point x="96.72727272727273" y="170.0"/>
      <point x="297.6363636363636" y="-21.636363636363637"/>
    </contour>
    <contour>
      <point x="589.0909090909091" y="138.72727272727272" type="curve"/>
      <point x="416.9090909090909" y="138.72727272727272"/>
      <point x="336.54545454545456" y="294.72727272727275"/>
      <point x="363.45454545454544" y="518.0" type="curve" smooth="yes"/>
      <point x="394.72727272727275" y="763.6363636363636"/>
      <point x="528.7272727272727" y="895.2727272727273"/>
      <point x="681.8181818181819" y="895.2727272727273" type="curve"/>
      <point x="834.9090909090909" y="895.2727272727273"/>
      <point x="938.1818181818181" y="763.6363636363636"/>
      <point x="906.9090909090909" y="518.0" type="curve" smooth="yes"/>
      <point x="882.0" y="311.09090909090907"/>
      <point x="772.7272727272727" y="138.72727272727272"/>
    </contour>
  </outline>
</glyph>
<glyph name="p" format="2">
  <advance width="1208.5454545454545"/>
  <unicode hex="0070"/>
  <anchor x="214.36363636363637" y="-482.0" name="bottom"/>
  <anchor x="760.0" y="1034.0" name="top"/>
  <outline>
    <contour>
      <point x="111.27272727272728" y="-468.0" type="line"/>
      <point x="318.9090909090909" y="-482.0" type="line"/>
      <point x="469.27272727272725" y="750.3636363636364" type="line"/>
      <point x="564.7272727272727" y="849.2727272727273"/>
      <point x="654.3636363636364" y="894.7272727272727"/>
      <point x="741.0909090909091" y="894.7272727272727" type="curve"/>
      <point x="906.5454545454545" y="894.7272727272727"/>
      <point x="976.7272727272727" y="730.9090909090909"/>
      <point x="950.3636363636364" y="511.45454545454544" type="curve"/>
      <point x="919.0909090909091" y="263.8181818181818"/>
      <point x="786.9090909090909" y="144.36363636363637"/>
      <point x="642.1818181818181" y="144.54545454545453" type="curve" smooth="yes"/>
      <point x="557.2727272727273" y="144.9090909090909"/>
      <point x="496.0" y="94.0"/>
      <point x="450.0" y="20.90909090909091" type="curve"/>
      <point x="526.7272727272727" y="-6.181818181818182"/>
      <point x="590.9090909090909" y="-13.636363636363637"/>
      <point x="653.0909090909091" y="-13.636363636363637" type="curve" smooth="yes"/>
      <point x="890.3636363636364" y="-13.636363636363637"/>
      <point x="1136.1818181818182" y="201.8181818181818"/>
      <point x="1175.090909090909" y="511.45454545454544" type="curve"/>
      <point x="1213.090909090909" y="820.1818181818181"/>
      <point x="1080.3636363636363" y="1055.6363636363637"/>
      <point x="798.1818181818181" y="1055.6363636363637" type="curve" name="hr02"/>
      <point x="715.2727272727273" y="1055.6363636363637"/>
      <point x="603.6363636363636" y="1024.1818181818182"/>
      <point x="503.09090909090907" y="930.5454545454545" type="curve"/>
      <point x="477.27272727272725" y="893.4545454545455" type="line"/>
      <point x="477.27272727272725" y="927.6363636363636" type="line"/>
      <point x="466.72727272727275" y="977.8181818181819"/>
      <point x="450.1818181818182" y="1008.1818181818181"/>
      <point x="419.6363636363636" y="1034.0" type="curve" name="hr01"/>
      <point x="261.8181818181818" y="1024.0" type="line"/>
      <point x="270.3636363636364" y="947.4545454545455"/>
      <point x="271.27272727272725" y="843.0909090909091"/>
      <point x="254.54545454545453" y="706.5454545454545" type="curve" smooth="yes"/>
    </contour>
  </outline>
</glyph>
<glyph name="q" format="2">
  <advance width="1176.5454545454545"/>
  <unicode hex="0071"/>
  <anchor x="852.1818181818181" y="-482.0" name="bottom"/>
  <anchor x="772.0" y="1034.0" name="top"/>
  <outline>
    <contour>
      <point x="750.1818181818181" y="-468.0" type="line"/>
      <point x="954.7272727272727" y="-482.0" type="line"/>
      <point x="1135.2727272727273" y="992.1818181818181" type="line"/>
      <point x="986.3636363636364" y="1039.2727272727273"/>
      <point x="884.9090909090909" y="1055.090909090909"/>
      <point x="772.9090909090909" y="1055.090909090909" type="curve" smooth="yes"/>
      <point x="449.8181818181818" y="1055.090909090909"/>
      <point x="205.45454545454547" y="827.0909090909091"/>
      <point x="166.0" y="503.27272727272725" type="curve" smooth="yes"/>
      <point x="128.72727272727272" y="201.27272727272728"/>
      <point x="292.0" y="-40.72727272727273"/>
      <point x="534.3636363636364" y="-12.181818181818182" type="curve" smooth="yes"/>
      <point x="596.5454545454545" y="-5.2727272727272725"/>
      <point x="675.2727272727273" y="24.363636363636363"/>
      <point x="746.5454545454545" y="71.27272727272727" type="curve" name="hr00"/>
      <point x="703.0909090909091" y="133.63636363636363"/>
      <point x="654.5454545454545" y="163.63636363636363"/>
      <point x="591.0909090909091" y="154.72727272727272" type="curve" smooth="yes"/>
      <point x="420.1818181818182" y="130.1818181818182"/>
      <point x="365.09090909090907" y="304.0"/>
      <point x="389.8181818181818" y="503.27272727272725" type="curve" smooth="yes"/>
      <point x="420.1818181818182" y="749.4545454545455"/>
      <point x="560.9090909090909" y="894.1818181818181"/>
      <point x="756.0" y="894.1818181818181" type="curve" smooth="yes"/>
      <point x="807.2727272727273" y="894.1818181818181"/>
      <point x="856.7272727272727" y="888.7272727272727"/>
      <point x="914.5454545454545" y="873.8181818181819" type="curve"/>
    </contour>
  </outline>
</glyph>
<glyph name="r" format="2">
  <advance width="782.0"/>
  <unicode hex="0072"/>
  <anchor x="264.0" y="0.0" name="bottom"/>
  <anchor x="556.1818181818181" y="1034.0" name="top"/>
  <outline>
    <contour>
      <point x="162.54545454545456" y="0.0" type="line"/>
      <point x="363.45454545454544" y="0.0" type="line"/>
      <point x="427.27272727272725" y="532.9090909090909" type="line" smooth="yes"/>
      <point x="455.6363636363636" y="761.4545454545455"/>
      <point x="587.6363636363636" y="870.5454545454545"/>
      <point x="714.9090909090909" y="870.5454545454545" type="curve" smooth="yes"/>
      <point x="741.0909090909091" y="870.5454545454545"/>
      <point x="771.6363636363636" y="868.0"/>
      <point x="814.9090909090909" y="856.3636363636364" type="curve"/>
      <point x="863.2727272727273" y="1031.4545454545455" type="line"/>
      <point x="824.5454545454545" y="1043.090909090909"/>
      <point x="791.8181818181819" y="1049.6363636363637"/>
      <point x="758.5454545454545" y="1049.6363636363637" type="curve" smooth="yes" name="hr01"/>
      <point x="656.5454545454545" y="1049.6363636363637"/>
      <point x="544.3636363636364" y="980.3636363636364"/>
      <point x="479.8181818181818" y="877.2727272727273" type="curve"/>
      <point x="458.1818181818182" y="838.0" type="line"/>
      <point x="461.6363636363636" y="877.2727272727273" type="line"/>
      <point x="458.1818181818182" y="942.3636363636364"/>
      <point x="446.3636363636364" y="997.0909090909091"/>
      <point x="414.72727272727275" y="1034.0" type="curve"/>
      <point x="254.54545454545456" y="1024.0" type="line"/>
      <point x="265.09090909090907" y="930.0"/>
      <point x="260.1818181818182" y="809.6363636363636"/>
      <point x="246.36363636363637" y="700.7272727272727" type="curve" smooth="yes" name="hr02"/>
    </contour>
  </outline>
</glyph>
<glyph name="s" format="2">
  <advance width="842.9090909090909"/>
  <unicode hex="0073"/>
  <anchor x="402.90909090909093" y="0.0" name="bottom"/>
  <anchor x="563.4545454545455" y="1034.0" name="top"/>
  <outline>
    <contour>
      <point x="443.27272727272725" y="-20.0" type="curve" smooth="yes"/>
      <point x="622.0" y="-20.0"/>
      <point x="800.3636363636364" y="109.27272727272727"/>
      <point x="821.4545454545455" y="272.72727272727275" type="curve" smooth="yes"/>
      <point x="862.3636363636364" y="608.9090909090909"/>
      <point x="373.45454545454544" y="577.0909090909091"/>
      <point x="399.8181818181818" y="779.0909090909091" type="curve" smooth="yes"/>
      <point x="408.72727272727275" y="854.0"/>
      <point x="475.27272727272725" y="894.7272727272727"/>
      <point x="562.9090909090909" y="894.7272727272727" type="curve" smooth="yes"/>
      <point x="622.1818181818181" y="894.7272727272727"/>
      <point x="688.7272727272727" y="884.3636363636364"/>
      <point x="774.1818181818181" y="856.3636363636364" type="curve"/>
      <point x="842.7272727272727" y="1000.0" type="line"/>
      <point x="730.3636363636364" y="1040.5454545454545"/>
      <point x="642.9090909090909" y="1052.0"/>
      <point x="563.0909090909091" y="1052.0" type="curve" smooth="yes"/>
      <point x="337.09090909090907" y="1052.0"/>
      <point x="210.9090909090909" y="903.8181818181819"/>
      <point x="196.36363636363637" y="775.8181818181819" type="curve" smooth="yes"/>
      <point x="154.9090909090909" y="446.72727272727275"/>
      <point x="644.3636363636364" y="484.3636363636364"/>
      <point x="618.0" y="277.27272727272725" type="curve" smooth="yes"/>
      <point x="609.0909090909091" y="199.63636363636363"/>
      <point x="547.4545454545455" y="140.9090909090909"/>
      <point x="433.45454545454544" y="140.9090909090909" type="curve" smooth="yes"/>
      <point x="349.45454545454544" y="140.9090909090909"/>
      <point x="247.27272727272728" y="161.27272727272728"/>
      <point x="146.72727272727272" y="210.72727272727272" type="curve" name="hr00"/>
      <point x="74.72727272727273" y="64.0" type="line"/>
      <point x="228.72727272727272" y="-11.454545454545455"/>
      <point x="340.72727272727275" y="-20.0"/>
    </contour>
  </outline>
</glyph>
<glyph name="t" format="2">
  <advance width="867.8181818181819"/>
  <unicode hex="0074"/>
  <anchor x="477.45454545454544" y="0.0" name="bottom"/>
  <anchor x="469.8181818181818" y="585.4545454545455" name="center"/>
  <anchor x="462.54545454545456" y="1293.090909090909" name="top"/>
  <anchor x="916.1818181818181" y="1293.090909090909" name="topright"/>
  <outline>
    <contour>
      <point x="553.8181818181819" y="-23.09090909090909" type="curve" smooth="yes"/>
      <point x="618.3636363636364" y="-23.09090909090909"/>
      <point x="671.0909090909091" y="-10.363636363636363"/>
      <point x="776.5454545454545" y="23.636363636363637" type="curve"/>
      <point x="746.3636363636364" y="164.9090909090909" type="line"/>
      <point x="673.4545454545455" y="142.36363636363637"/>
      <point x="629.8181818181819" y="134.9090909090909"/>
      <point x="581.6363636363636" y="134.9090909090909" type="curve" smooth="yes"/>
      <point x="484.72727272727275" y="134.9090909090909"/>
      <point x="432.1818181818182" y="232.36363636363637"/>
      <point x="450.1818181818182" y="369.8181818181818" type="curve"/>
      <point x="571.0909090909091" y="1357.2727272727273" type="line"/>
      <point x="362.54545454545456" y="1293.090909090909" type="line"/>
      <point x="331.09090909090907" y="1034.0" type="line"/>
      <point x="146.54545454545453" y="988.1818181818181" type="line"/>
      <point x="133.8181818181818" y="879.6363636363636" type="line"/>
      <point x="312.90909090909093" y="879.6363636363636" type="line" name="hr00"/>
      <point x="251.63636363636363" y="385.8181818181818" type="line"/>
      <point x="219.0909090909091" y="126.9090909090909"/>
      <point x="326.0" y="-23.09090909090909"/>
    </contour>
    <contour>
      <point x="760.5454545454545" y="879.6363636363636" type="curve"/>
      <point x="868.0" y="879.6363636363636" type="line"/>
      <point x="886.1818181818181" y="1034.0" type="line"/>
      <point x="602.0" y="1034.0" type="line"/>
      <point x="618.0" y="954.7272727272727"/>
      <point x="660.5454545454545" y="879.6363636363636"/>
    </contour>
  </outline>
</glyph>
<glyph name="u" format="2">
  <advance width="1188.1818181818182"/>
  <unicode hex="0075"/>
  <anchor x="570.0" y="0.0" name="bottom"/>
  <anchor x="1033.2727272727273" y="10.0" name="ogonek"/>
  <anchor x="705.2727272727273" y="1034.0" name="top"/>
  <anchor x="1212.1818181818182" y="1034.0" name="topright"/>
  <outline>
    <contour>
      <point x="422.0" y="-21.636363636363637" type="curve" smooth="yes"/>
      <point x="499.45454545454544" y="-21.636363636363637"/>
      <point x="595.4545454545455" y="0.36363636363636376"/>
      <point x="744.7272727272727" y="80.54545454545455" type="curve"/>
      <point x="699.6363636363636" y="140.1818181818182"/>
      <point x="644.3636363636364" y="170.0"/>
      <point x="569.2727272727273" y="155.8181818181818" type="curve" smooth="yes"/>
      <point x="532.7272727272727" y="149.45454545454544"/>
      <point x="512.1818181818181" y="140.9090909090909"/>
      <point x="481.8181818181818" y="140.9090909090909" type="curve" smooth="yes" name="hr01"/>
      <point x="402.1818181818182" y="140.9090909090909"/>
      <point x="375.45454545454544" y="202.0"/>
      <point x="386.3636363636364" y="286.90909090909093" type="curve" smooth="yes"/>
      <point x="477.8181818181818" y="1034.0" type="line"/>
      <point x="265.27272727272725" y="1034.0" type="line"/>
      <point x="175.27272727272728" y="300.3636363636364" type="line" smooth="yes"/>
      <point x="145.8181818181818" y="60.54545454545455"/>
      <point x="269.45454545454544" y="-21.636363636363637"/>
    </contour>
    <contour>
      <point x="865.6363636363636" y="0.0" type="curve"/>
      <point x="1033.2727272727273" y="10.0" type="line"/>
      <point x="1019.8181818181819" y="104.0"/>
      <point x="1021.2727272727273" y="188.0"/>
      <point x="1031.2727272727273" y="262.0" type="curve" smooth="yes"/>
      <point x="1125.2727272727273" y="1034.0" type="line"/>
      <point x="913.6363636363636" y="1034.0" type="line"/>
      <point x="813.6363636363636" y="220.0" type="line" smooth="yes"/>
      <point x="803.6363636363636" y="140.0"/>
      <point x="810.1818181818181" y="72.0"/>
    </contour>
  </outline>
</glyph>
<glyph name="v" format="2">
  <advance width="1048.909090909091"/>
  <unicode hex="0076"/>
  <anchor x="526.7272727272727" y="0.0" name="bottom"/>
  <anchor x="656.1818181818181" y="1034.0" name="top"/>
  <outline>
    <contour>
      <point x="414.54545454545456" y="0.0" type="line" name="hr00"/>
      <point x="638.3636363636364" y="0.0" type="line"/>
      <point x="1145.8181818181818" y="1020.0" type="line"/>
      <point x="933.6363636363636" y="1034.0" type="line"/>
      <point x="574.3636363636364" y="248.1818181818182" type="line"/>
      <point x="553.8181818181819" y="195.45454545454544" type="line"/>
      <point x="544.9090909090909" y="248.1818181818182" type="line"/>
      <point x="378.1818181818182" y="1034.0" type="line"/>
      <point x="152.54545454545453" y="1034.0" type="line"/>
    </contour>
  </outline>
</glyph>
<glyph name="w" format="2">
  <advance width="1726.5454545454545"/>
  <unicode hex="0077"/>
  <anchor x="879.0909090909091" y="0.0" name="bottom"/>
  <anchor x="978.1818181818181" y="1034.0" name="top"/>
  <outline>
    <contour>
      <point x="1101.4545454545455" y="0.0" type="line"/>
      <point x="1328.1818181818182" y="0.0" type="line"/>
      <point x="1811.6363636363637" y="1020.0" type="line"/>
      <point x="1600.909090909091" y="1034.0" type="line"/>
      <point x="1262.7272727272727" y="248.1818181818182" type="line"/>
      <point x="1242.1818181818182" y="195.45454545454544" type="line"/>
      <point x="1234.7272727272727" y="248.1818181818182" type="line"/>
      <point x="1089.090909090909" y="1034.0" type="line"/>
      <point x="862.9090909090909" y="1034.0" type="line"/>
    </contour>
    <contour>
      <point x="438.90909090909093" y="0.0" type="line"/>
      <point x="656.7272727272727" y="0.0" type="line" name="hr00"/>
      <point x="830.7272727272727" y="323.8181818181818" type="line"/>
      <point x="900.0" y="462.3636363636364"/>
      <point x="879.6363636363636" y="630.3636363636364"/>
      <point x="828.1818181818181" y="710.0" type="curve"/>
      <point x="598.7272727272727" y="248.1818181818182" type="line"/>
      <point x="578.1818181818181" y="195.45454545454544" type="line"/>
      <point x="570.7272727272727" y="248.1818181818182" type="line"/>
      <point x="425.09090909090907" y="1034.0" type="line"/>
      <point x="199.45454545454547" y="1034.0" type="line"/>
    </contour>
  </outline>
</glyph>
<glyph name="x" format="2">
  <advance width="1006.1818181818181"/>
  <unicode hex="0078"/>
  <anchor x="491.27272727272725" y="0.0" name="bottom"/>
  <anchor x="630.7272727272727" y="1034.0" name="top"/>
  <outline>
    <contour>
      <point x="726.0" y="0.0" type="curve" name="hr00"/>
      <point x="962.3636363636364" y="0.0" type="line"/>
      <point x="665.2727272727273" y="522.1818181818181" type="line"/>
      <point x="1056.3636363636363" y="1020.0" type="line"/>
      <point x="842.9090909090909" y="1034.0" type="line"/>
      <point x="599.4545454545455" y="694.5454545454545" type="line"/>
      <point x="579.4545454545455" y="652.5454545454545" type="line"/>
      <point x="572.9090909090909" y="694.5454545454545" type="line"/>
      <point x="416.54545454545456" y="1034.0" type="line"/>
      <point x="177.0909090909091" y="1034.0" type="line"/>
      <point x="456.72727272727275" y="513.0909090909091" type="line"/>
      <point x="549.6363636363636" y="341.27272727272725"/>
      <point x="638.1818181818181" y="171.8181818181818"/>
    </contour>
    <contour>
      <point x="33.09090909090909" y="0.0" type="line"/>
      <point x="256.54545454545456" y="0.0" type="line"/>
      <point x="397.45454545454544" y="188.36363636363637" type="line"/>
      <point x="464.54545454545456" y="280.54545454545456"/>
      <point x="440.54545454545456" y="383.27272727272725"/>
      <point x="395.09090909090907" y="447.27272727272725" type="curve"/>
    </contour>
  </outline>
</glyph>
<glyph name="y" format="2">
  <advance width="1096.7272727272727"/>
  <unicode hex="0079"/>
  <anchor x="896.1818181818181" y="0.0" name="bottom"/>
  <anchor x="672.3636363636364" y="1034.0" name="top"/>
  <outline>
    <contour>
      <point x="183.27272727272728" y="-493.09090909090907" type="curve"/>
      <point x="439.8181818181818" y="-491.6363636363636"/>
      <point x="534.9090909090909" y="-276.9090909090909"/>
      <point x="684.7272727272727" y="22.0" type="curve"/>
      <point x="1168.1818181818182" y="1020.0" type="line"/>
      <point x="955.6363636363636" y="1034.0" type="line"/>
      <point x="531.4545454545455" y="74.0" type="line"/>
      <point x="419.09090909090907" y="-164.0"/>
      <point x="353.6363636363636" y="-332.72727272727275"/>
      <point x="203.45454545454547" y="-332.72727272727275" type="curve"/>
      <point x="165.45454545454547" y="-332.72727272727275"/>
      <point x="127.0909090909091" y="-327.8181818181818"/>
      <point x="82.54545454545455" y="-315.8181818181818" type="curve"/>
      <point x="12.545454545454545" y="-460.90909090909093" type="line"/>
      <point x="68.72727272727273" y="-481.6363636363636"/>
      <point x="129.27272727272728" y="-491.09090909090907"/>
    </contour>
    <contour>
      <point x="406.90909090909093" y="21.636363636363637" type="line"/>
      <point x="478.72727272727275" y="100.72727272727272"/>
      <point x="533.6363636363636" y="273.09090909090907"/>
      <point x="503.09090909090907" y="413.6363636363636" type="curve" name="hr00"/>
      <point x="381.8181818181818" y="1034.0" type="line"/>
      <point x="157.45454545454547" y="1034.0" type="line"/>
    </contour>
  </outline>
</glyph>
<glyph name="z" format="2">
  <advance width="910.1818181818181"/>
  <unicode hex="007A"/>
  <anchor x="464.90909090909093" y="0.0" name="bottom"/>
  <anchor x="606.0" y="1034.0" name="top"/>
  <outline>
    <contour>
      <point x="67.27272727272727" y="0.0" type="line"/>
      <point x="854.0" y="0.0" type="line"/>
      <point x="872.1818181818181" y="152.36363636363637" type="line"/>
      <point x="377.27272727272725" y="152.36363636363637" type="line"/>
      <point x="329.8181818181818" y="146.36363636363637" type="line"/>
      <point x="366.72727272727275" y="180.36363636363637" type="line"/>
      <point x="959.0909090909091" y="946.5454545454545" type="line"/>
      <point x="970.1818181818181" y="1034.0" type="line"/>
      <point x="256.0" y="1034.0" type="line" name="hr00"/>
      <point x="237.8181818181818" y="885.6363636363636" type="line"/>
      <point x="667.6363636363636" y="885.6363636363636" type="line"/>
      <point x="710.1818181818181" y="891.6363636363636" type="line"/>
      <point x="675.6363636363636" y="857.6363636363636" type="line"/>
      <point x="76.9090909090909" y="87.45454545454545" type="line"/>
    </contour>
  </outline>
</glyph>
<glyph name="braceleft" format="2">
  <advance width="806.0"/>
  <unicode hex="007B"/>
  <outline>
    <contour>
      <point x="664.5454545454545" y="-352.0" type="curve"/>
      <point x="771.8181818181819" y="-243.27272727272728" type="line"/>
      <point x="596.5454545454545" y="-84.54545454545455"/>
      <point x="558.5454545454545" y="75.81818181818181"/>
      <point x="574.5454545454545" y="336.0" type="curve"/>
      <point x="582.0" y="444.54545454545456"/>
      <point x="534.0" y="527.0909090909091"/>
      <point x="455.45454545454544" y="583.0909090909091" type="curve"/>
      <point x="409.09090909090907" y="606.0" type="line"/>
      <point x="460.54545454545456" y="628.0" type="line"/>
      <point x="550.5454545454545" y="684.0"/>
      <point x="620.5454545454545" y="768.0"/>
      <point x="640.5454545454545" y="878.0" type="curve"/>
      <point x="689.0909090909091" y="1118.7272727272727"/>
      <point x="769.2727272727273" y="1272.909090909091"/>
      <point x="977.6363636363636" y="1425.8181818181818" type="curve"/>
      <point x="896.5454545454545" y="1534.0" type="line"/>
      <point x="629.6363636363636" y="1368.5454545454545"/>
      <point x="518.1818181818181" y="1164.1818181818182"/>
      <point x="452.72727272727275" y="835.4545454545455" type="curve"/>
      <point x="435.6363636363636" y="741.4545454545455"/>
      <point x="338.72727272727275" y="687.4545454545455"/>
      <point x="234.1818181818182" y="669.4545454545455" type="curve"/>
      <point x="219.63636363636363" y="547.2727272727273" type="line"/>
      <point x="319.6363636363636" y="529.2727272727273"/>
      <point x="398.54545454545456" y="475.27272727272725"/>
      <point x="393.09090909090907" y="381.27272727272725" type="curve" name="hr00"/>
      <point x="371.09090909090907" y="25.636363636363637"/>
      <point x="431.09090909090907" y="-179.0909090909091"/>
    </contour>
  </outline>
</glyph>
<glyph name="braceright" format="2">
  <advance width="819.6363636363636"/>
  <unicode hex="007D"/>
  <outline>
    <contour>
      <point x="210.9090909090909" y="-352.0" type="line"/>
      <point x="487.27272727272725" y="-179.0909090909091"/>
      <point x="596.7272727272727" y="25.636363636363637"/>
      <point x="661.2727272727273" y="381.27272727272725" type="curve" name="hr00"/>
      <point x="679.8181818181819" y="475.27272727272725"/>
      <point x="771.8181818181819" y="529.2727272727273"/>
      <point x="875.8181818181819" y="547.2727272727273" type="curve"/>
      <point x="890.3636363636364" y="669.4545454545455" type="line"/>
      <point x="790.9090909090909" y="687.4545454545455"/>
      <point x="708.9090909090909" y="741.4545454545455"/>
      <point x="712.9090909090909" y="835.4545454545455" type="curve"/>
      <point x="727.4545454545455" y="1164.1818181818182"/>
      <point x="666.9090909090909" y="1368.5454545454545"/>
      <point x="442.90909090909093" y="1534.0" type="curve"/>
      <point x="335.6363636363636" y="1425.8181818181818" type="line"/>
      <point x="504.0" y="1272.909090909091"/>
      <point x="547.4545454545455" y="1118.7272727272727"/>
      <point x="534.9090909090909" y="878.0" type="curve"/>
      <point x="530.9090909090909" y="768.0"/>
      <point x="576.3636363636364" y="684.0"/>
      <point x="654.3636363636364" y="628.0" type="curve"/>
      <point x="702.9090909090909" y="606.0" type="line"/>
      <point x="650.3636363636364" y="585.4545454545455" type="line"/>
      <point x="558.9090909090909" y="529.4545454545455"/>
      <point x="490.90909090909093" y="446.0"/>
      <point x="468.90909090909093" y="336.0" type="curve"/>
      <point x="420.90909090909093" y="75.81818181818181"/>
      <point x="344.0" y="-84.54545454545455"/>
      <point x="129.8181818181818" y="-243.27272727272728" type="curve"/>
    </contour>
  </outline>
</glyph>
<glyph name="asciitilde" format="2">
  <advance width="1228.0"/>
  <unicode hex="007E"/>
  <outline>
    <contour>
      <point x="360.72727272727275" y="456.0" type="line"/>
      <point x="382.72727272727275" y="562.5454545454545"/>
      <point x="441.27272727272725" y="612.9090909090909"/>
      <point x="499.8181818181818" y="614.3636363636364" type="curve" smooth="yes" name="hr02"/>
      <point x="570.9090909090909" y="614.3636363636364"/>
      <point x="617.4545454545455" y="578.7272727272727"/>
      <point x="670.9090909090909" y="539.0909090909091" type="curve" smooth="yes"/>
      <point x="726.3636363636364" y="495.6363636363636"/>
      <point x="800.0" y="451.45454545454544"/>
      <point x="899.8181818181819" y="452.90909090909093" type="curve" smooth="yes"/>
      <point x="1048.909090909091" y="454.3636363636364"/>
      <point x="1188.5454545454545" y="526.0"/>
      <point x="1230.0" y="752.5454545454545" type="curve"/>
      <point x="1051.4545454545455" y="768.5454545454545" type="line" name="hr01"/>
      <point x="1031.4545454545455" y="676.1818181818181"/>
      <point x="987.0909090909091" y="610.1818181818181"/>
      <point x="925.8181818181819" y="610.1818181818181" type="curve" smooth="yes"/>
      <point x="849.4545454545455" y="610.1818181818181"/>
      <point x="798.9090909090909" y="646.3636363636364"/>
      <point x="745.2727272727273" y="686.5454545454545" type="curve" smooth="yes"/>
      <point x="688.7272727272727" y="729.4545454545455"/>
      <point x="614.3636363636364" y="771.6363636363636"/>
      <point x="522.3636363636364" y="771.6363636363636" type="curve" smooth="yes"/>
      <point x="355.8181818181818" y="769.6363636363636"/>
      <point x="215.45454545454547" y="673.0909090909091"/>
      <point x="182.0" y="472.0" type="curve"/>
    </contour>
  </outline>
</glyph>
<glyph name="exclamdown" format="2">
  <advance width="702.0"/>
  <unicode hex="00A1"/>
  <outline>
    <contour>
      <point x="75.45454545454545" y="-420.0" type="line" name="hr00"/>
      <point x="288.54545454545456" y="-420.0" type="line"/>
      <point x="386.0" y="639.4545454545455" type="line"/>
      <point x="232.54545454545456" y="639.4545454545455" type="line"/>
    </contour>
    <contour>
      <point x="326.72727272727275" y="798.3636363636364" type="curve" smooth="yes"/>
      <point x="402.72727272727275" y="798.3636363636364"/>
      <point x="467.27272727272725" y="856.9090909090909"/>
      <point x="477.8181818181818" y="932.9090909090909" type="curve" smooth="yes"/>
      <point x="486.3636363636364" y="1007.4545454545455"/>
      <point x="436.0" y="1063.4545454545455"/>
      <point x="360.0" y="1063.4545454545455" type="curve" smooth="yes"/>
      <point x="284.90909090909093" y="1063.4545454545455"/>
      <point x="221.8181818181818" y="1007.4545454545455"/>
      <point x="213.27272727272728" y="932.9090909090909" type="curve"/>
      <point x="202.72727272727272" y="856.9090909090909"/>
      <point x="251.63636363636363" y="798.3636363636364"/>
    </contour>
  </outline>
</glyph>
<glyph name="cent" format="2">
  <advance width="854.0"/>
  <unicode hex="00A2"/>
  <outline>
    <contour>
      <point x="472.90909090909093" y="-28.0" type="line"/>
      <point x="631.0909090909091" y="-28.0" type="line"/>
      <point x="655.0909090909091" y="172.9090909090909" type="line"/>
      <point x="715.6363636363636" y="181.45454545454547"/>
      <point x="789.6363636363636" y="200.0"/>
      <point x="871.0909090909091" y="238.9090909090909" type="curve" name="hr00"/>
      <point x="833.8181818181819" y="385.09090909090907" type="line"/>
      <point x="739.4545454545455" y="345.27272727272725"/>
      <point x="670.1818181818181" y="329.8181818181818"/>
      <point x="612.7272727272727" y="329.8181818181818" type="curve" smooth="yes"/>
      <point x="461.45454545454544" y="329.8181818181818"/>
      <point x="355.27272727272725" y="454.9090909090909"/>
      <point x="387.09090909090907" y="708.5454545454545" type="curve" smooth="yes"/>
      <point x="417.45454545454544" y="960.1818181818181"/>
      <point x="555.6363636363636" y="1085.2727272727273"/>
      <point x="705.4545454545455" y="1085.2727272727273" type="curve" smooth="yes"/>
      <point x="761.0909090909091" y="1085.2727272727273"/>
      <point x="823.6363636363636" y="1077.2727272727273"/>
      <point x="890.0" y="1056.909090909091" type="curve"/>
      <point x="963.0909090909091" y="1203.6363636363637" type="line"/>
      <point x="908.5454545454545" y="1225.6363636363637"/>
      <point x="843.6363636363636" y="1237.6363636363637"/>
      <point x="787.0909090909091" y="1243.6363636363637" type="curve"/>
      <point x="809.0909090909091" y="1432.0" type="line"/>
      <point x="650.9090909090909" y="1432.0" type="line"/>
      <point x="626.9090909090909" y="1236.0" type="line"/>
      <point x="400.3636363636364" y="1196.7272727272727"/>
      <point x="200.36363636363637" y="1014.9090909090909"/>
      <point x="162.36363636363637" y="708.5454545454545" type="curve" smooth="yes"/>
      <point x="123.81818181818181" y="393.8181818181818"/>
      <point x="273.6363636363636" y="213.8181818181818"/>
      <point x="496.90909090909093" y="176.54545454545453" type="curve"/>
    </contour>
  </outline>
</glyph>
<glyph name="sterling" format="2">
  <advance width="1026.0"/>
  <unicode hex="00A3"/>
  <outline>
    <contour>
      <point x="100.0" y="0.0" type="line"/>
      <point x="966.0" y="0.0" type="line"/>
      <point x="986.1818181818181" y="177.45454545454544" type="line"/>
      <point x="454.9090909090909" y="177.45454545454544" type="line"/>
      <point x="403.6363636363636" y="173.45454545454544" type="line"/>
      <point x="448.0" y="210.54545454545453" type="line"/>
      <point x="504.3636363636364" y="264.72727272727275"/>
      <point x="545.2727272727273" y="321.45454545454544"/>
      <point x="572.5454545454545" y="394.0" type="curve" name="hr00"/>
      <point x="636.5454545454545" y="592.0"/>
      <point x="584.5454545454545" y="780.0"/>
      <point x="614.5454545454545" y="1022.0" type="curve" smooth="yes"/>
      <point x="633.4545454545455" y="1167.4545454545455"/>
      <point x="720.3636363636364" y="1262.5454545454545"/>
      <point x="863.4545454545455" y="1262.5454545454545" type="curve" smooth="yes"/>
      <point x="919.4545454545455" y="1262.5454545454545"/>
      <point x="1014.3636363636364" y="1247.090909090909"/>
      <point x="1107.4545454545455" y="1200.7272727272727" type="curve"/>
      <point x="1180.5454545454545" y="1350.0" type="line"/>
      <point x="1071.8181818181818" y="1404.5454545454545"/>
      <point x="977.6363636363636" y="1424.0"/>
      <point x="883.6363636363636" y="1424.0" type="curve"/>
      <point x="648.3636363636364" y="1424.0"/>
      <point x="446.54545454545456" y="1282.3636363636363"/>
      <point x="414.0" y="1024.0" type="curve" smooth="yes"/>
      <point x="404.0" y="940.0"/>
      <point x="404.0" y="844.1818181818181"/>
      <point x="407.45454545454544" y="780.7272727272727" type="curve"/>
      <point x="237.0909090909091" y="780.7272727272727" type="line"/>
      <point x="218.9090909090909" y="633.2727272727273" type="line"/>
      <point x="412.54545454545456" y="633.2727272727273" type="line"/>
      <point x="413.45454545454544" y="578.9090909090909"/>
      <point x="410.0" y="532.7272727272727"/>
      <point x="404.0" y="484.0" type="curve" smooth="yes"/>
      <point x="384.54545454545456" y="327.8181818181818"/>
      <point x="267.09090909090907" y="202.1818181818182"/>
      <point x="115.0909090909091" y="130.1818181818182" type="curve"/>
    </contour>
    <contour>
      <point x="835.8181818181819" y="633.2727272727273" type="curve"/>
      <point x="979.4545454545455" y="633.2727272727273" type="line"/>
      <point x="997.6363636363636" y="780.7272727272727" type="line"/>
      <point x="678.5454545454545" y="780.7272727272727" type="line"/>
      <point x="696.5454545454545" y="702.0"/>
      <point x="733.2727272727273" y="633.2727272727273"/>
    </contour>
  </outline>
</glyph>
<glyph name="currency" format="2">
  <advance width="1026.0"/>
  <unicode hex="00A4"/>
  <outline>
    <contour>
      <point x="168.1818181818182" y="211.0909090909091" type="line"/>
      <point x="326.3636363636364" y="351.6363636363636" type="line"/>
      <point x="374.3636363636364" y="304.90909090909093"/>
      <point x="457.45454545454544" y="274.90909090909093"/>
      <point x="541.0909090909091" y="274.90909090909093" type="curve" smooth="yes"/>
      <point x="624.9090909090909" y="274.90909090909093"/>
      <point x="719.0909090909091" y="304.0"/>
      <point x="782.1818181818181" y="356.54545454545456" type="curve"/>
      <point x="912.9090909090909" y="211.63636363636363" type="line"/>
      <point x="1008.9090909090909" y="298.72727272727275" type="line"/>
      <point x="874.7272727272727" y="446.1818181818182" type="line"/>
      <point x="915.6363636363636" y="495.09090909090907"/>
      <point x="958.0" y="581.6363636363636"/>
      <point x="971.4545454545455" y="687.8181818181819" type="curve" smooth="yes"/>
      <point x="983.4545454545455" y="783.8181818181819"/>
      <point x="962.5454545454545" y="867.8181818181819"/>
      <point x="932.1818181818181" y="919.6363636363636" type="curve"/>
      <point x="1106.7272727272727" y="1062.7272727272727" type="line"/>
      <point x="1033.8181818181818" y="1151.2727272727273" type="line"/>
      <point x="863.2727272727273" y="1010.7272727272727" type="line"/>
      <point x="815.4545454545455" y="1056.0"/>
      <point x="738.0" y="1088.0"/>
      <point x="644.0" y="1088.0" type="curve" name="hr00"/>
      <point x="556.0" y="1088.0"/>
      <point x="470.72727272727275" y="1056.5454545454545"/>
      <point x="410.3636363636364" y="1009.8181818181819" type="curve"/>
      <point x="280.3636363636364" y="1151.8181818181818" type="line"/>
      <point x="183.0909090909091" y="1061.6363636363637" type="line"/>
      <point x="316.72727272727275" y="919.6363636363636" type="line"/>
      <point x="270.90909090909093" y="866.3636363636364"/>
      <point x="226.0" y="782.0"/>
      <point x="212.0" y="679.0909090909091" type="curve" smooth="yes"/>
      <point x="200.0" y="579.4545454545455"/>
      <point x="224.0" y="492.1818181818182"/>
      <point x="254.9090909090909" y="441.8181818181818" type="curve"/>
      <point x="91.63636363636364" y="299.8181818181818" type="line"/>
    </contour>
    <contour>
      <point x="557.0909090909091" y="401.09090909090907" type="curve" smooth="yes"/>
      <point x="453.45454545454544" y="401.09090909090907"/>
      <point x="340.3636363636364" y="496.3636363636364"/>
      <point x="362.72727272727275" y="680.0" type="curve" smooth="yes"/>
      <point x="382.72727272727275" y="836.0"/>
      <point x="489.8181818181818" y="961.8181818181819"/>
      <point x="626.9090909090909" y="961.8181818181819" type="curve"/>
      <point x="770.0" y="961.8181818181819"/>
      <point x="837.8181818181819" y="823.8181818181819"/>
      <point x="821.2727272727273" y="685.8181818181819" type="curve" smooth="yes"/>
      <point x="798.0" y="498.3636363636364"/>
      <point x="669.6363636363636" y="401.09090909090907"/>
    </contour>
  </outline>
</glyph>
<glyph name="yen" format="2">
  <advance width="1320.0"/>
  <unicode hex="00A5"/>
  <outline>
    <contour>
      <point x="542.0" y="0.0" type="line"/>
      <point x="752.5454545454545" y="0.0" type="line"/>
      <point x="784.0" y="270.54545454545456" type="line"/>
      <point x="1103.4545454545455" y="270.54545454545456" type="line"/>
      <point x="1116.5454545454545" y="375.45454545454544" type="line"/>
      <point x="797.0909090909091" y="375.45454545454544" type="line"/>
      <point x="815.4545454545455" y="515.6363636363636" type="line"/>
      <point x="1134.909090909091" y="515.6363636363636" type="line"/>
      <point x="1147.090909090909" y="620.5454545454545" type="line"/>
      <point x="827.6363636363636" y="620.5454545454545" type="line"/>
      <point x="834.5454545454545" y="675.0909090909091" type="line"/>
      <point x="463.09090909090907" y="1454.0" type="line"/>
      <point x="220.9090909090909" y="1454.0" type="line"/>
      <point x="617.0909090909091" y="625.0909090909091" type="line"/>
      <point x="617.0909090909091" y="620.5454545454545" type="line"/>
      <point x="297.09090909090907" y="620.5454545454545" type="line" name="hr00"/>
      <point x="284.90909090909093" y="515.6363636363636" type="line"/>
      <point x="604.9090909090909" y="515.6363636363636" type="line"/>
      <point x="586.5454545454545" y="375.45454545454544" type="line"/>
      <point x="266.54545454545456" y="375.45454545454544" type="line"/>
      <point x="253.45454545454547" y="270.54545454545456" type="line"/>
      <point x="573.4545454545455" y="270.54545454545456" type="line"/>
    </contour>
    <contour>
      <point x="901.6363636363636" y="752.5454545454545" type="curve"/>
      <point x="1414.5454545454545" y="1454.0" type="line"/>
      <point x="1177.8181818181818" y="1454.0" type="line"/>
      <point x="891.0909090909091" y="1034.0" type="line"/>
      <point x="820.1818181818181" y="930.7272727272727"/>
      <point x="859.0909090909091" y="816.1818181818181"/>
    </contour>
  </outline>
</glyph>
<glyph name="brokenbar" format="2">
  <advance width="508.0"/>
  <unicode hex="00A6"/>
  <outline>
    <contour>
      <point x="97.45454545454545" y="-586.0" type="line"/>
      <point x="282.54545454545456" y="-586.0" type="line"/>
      <point x="388.54545454545456" y="282.0" type="line"/>
      <point x="203.45454545454547" y="282.0" type="line"/>
    </contour>
    <contour>
      <point x="263.45454545454544" y="774.0" type="line" name="hr00"/>
      <point x="448.54545454545456" y="774.0" type="line"/>
      <point x="552.5454545454545" y="1622.0" type="line"/>
      <point x="367.45454545454544" y="1622.0" type="line"/>
    </contour>
  </outline>
</glyph>
<glyph name="section" format="2">
  <advance width="1000.0"/>
  <unicode hex="00A7"/>
  <outline>
    <contour>
      <point x="495.8181818181818" y="-102.0" type="curve" smooth="yes"/>
      <point x="711.2727272727273" y="-102.0"/>
      <point x="902.7272727272727" y="14.0"/>
      <point x="924.7272727272727" y="185.0909090909091" type="curve" smooth="yes"/>
      <point x="936.7272727272727" y="284.0"/>
      <point x="895.8181818181819" y="352.0"/>
      <point x="830.5454545454545" y="403.09090909090907" type="curve"/>
      <point x="791.6363636363636" y="422.1818181818182" type="line"/>
      <point x="839.6363636363636" y="440.72727272727275" type="line"/>
      <point x="925.4545454545455" y="488.72727272727275"/>
      <point x="990.1818181818181" y="561.6363636363636"/>
      <point x="1000.1818181818181" y="650.0" type="curve" smooth="yes"/>
      <point x="1044.1818181818182" y="996.0"/>
      <point x="438.1818181818182" y="956.0"/>
      <point x="464.1818181818182" y="1172.0" type="curve" smooth="yes"/>
      <point x="473.6363636363636" y="1246.909090909091"/>
      <point x="555.2727272727273" y="1287.090909090909"/>
      <point x="680.9090909090909" y="1287.090909090909" type="curve" smooth="yes"/>
      <point x="746.9090909090909" y="1287.090909090909"/>
      <point x="826.5454545454545" y="1275.6363636363637"/>
      <point x="926.0" y="1247.6363636363637" type="curve"/>
      <point x="1002.0" y="1388.0" type="line"/>
      <point x="872.0" y="1428.0"/>
      <point x="766.0" y="1440.0"/>
      <point x="676.0" y="1440.0" type="curve" smooth="yes"/>
      <point x="446.0" y="1440.0"/>
      <point x="284.90909090909093" y="1306.0"/>
      <point x="267.8181818181818" y="1170.0" type="curve" smooth="yes"/>
      <point x="255.8181818181818" y="1068.5454545454545"/>
      <point x="301.6363636363636" y="1001.4545454545455"/>
      <point x="373.45454545454544" y="950.3636363636364" type="curve"/>
      <point x="412.3636363636364" y="931.8181818181819" type="line"/>
      <point x="361.09090909090907" y="912.3636363636364" type="line"/>
      <point x="261.09090909090907" y="857.4545454545455"/>
      <point x="200.36363636363637" y="778.5454545454545"/>
      <point x="192.36363636363637" y="704.0" type="curve" smooth="yes"/>
      <point x="149.8181818181818" y="366.72727272727275"/>
      <point x="755.8181818181819" y="409.27272727272725"/>
      <point x="728.3636363636364" y="191.8181818181818" type="curve" smooth="yes"/>
      <point x="718.3636363636364" y="105.63636363636364"/>
      <point x="635.4545454545455" y="52.36363636363636"/>
      <point x="486.54545454545456" y="52.36363636363636" type="curve" smooth="yes"/>
      <point x="387.09090909090907" y="52.36363636363636"/>
      <point x="262.3636363636364" y="74.9090909090909"/>
      <point x="147.45454545454547" y="123.81818181818181" type="curve" name="hr00"/>
      <point x="68.54545454545455" y="-18.0" type="line"/>
      <point x="237.0909090909091" y="-91.81818181818181"/>
      <point x="381.09090909090907" y="-102.0"/>
    </contour>
    <contour>
      <point x="674.9090909090909" y="491.6363636363636" type="curve"/>
      <point x="524.5454545454545" y="557.0909090909091"/>
      <point x="365.8181818181818" y="599.0909090909091"/>
      <point x="379.27272727272725" y="708.1818181818181" type="curve" smooth="yes"/>
      <point x="387.27272727272725" y="772.3636363636364"/>
      <point x="444.54545454545456" y="825.2727272727273"/>
      <point x="536.9090909090909" y="864.3636363636364" type="curve"/>
      <point x="680.3636363636364" y="804.3636363636364"/>
      <point x="828.1818181818181" y="761.4545454545455"/>
      <point x="815.2727272727273" y="660.0" type="curve" smooth="yes"/>
      <point x="807.8181818181819" y="600.7272727272727"/>
      <point x="764.1818181818181" y="542.0"/>
    </contour>
  </outline>
</glyph>
<glyph name="copyright" format="2">
  <advance width="1440.0"/>
  <unicode hex="00A9"/>
  <outline>
    <contour>
      <point x="719.4545454545455" y="56.54545454545455" type="curve" smooth="yes"/>
      <point x="1103.4545454545455" y="56.54545454545455"/>
      <point x="1405.4545454545455" y="352.0"/>
      <point x="1449.4545454545455" y="714.0" type="curve" smooth="yes"/>
      <point x="1494.5454545454545" y="1078.1818181818182"/>
      <point x="1267.2727272727273" y="1365.4545454545455"/>
      <point x="880.5454545454545" y="1365.4545454545455" type="curve" name="hr00"/>
      <point x="492.54545454545456" y="1365.4545454545455"/>
      <point x="188.54545454545453" y="1070.0"/>
      <point x="144.54545454545453" y="714.0" type="curve" smooth="yes"/>
      <point x="99.45454545454545" y="343.8181818181818"/>
      <point x="328.72727272727275" y="56.54545454545455"/>
    </contour>
    <contour>
      <point x="796.0" y="352.0" type="curve"/>
      <point x="838.0" y="352.0"/>
      <point x="908.0" y="362.0"/>
      <point x="986.0" y="398.0" type="curve"/>
      <point x="962.3636363636364" y="499.09090909090907" type="line"/>
      <point x="896.9090909090909" y="471.09090909090907"/>
      <point x="847.0909090909091" y="462.1818181818182"/>
      <point x="809.0909090909091" y="462.1818181818182" type="curve"/>
      <point x="707.0909090909091" y="462.1818181818182"/>
      <point x="636.5454545454545" y="550.5454545454545"/>
      <point x="655.4545454545455" y="714.0" type="curve"/>
      <point x="675.8181818181819" y="874.0"/>
      <point x="770.9090909090909" y="961.8181818181819"/>
      <point x="870.9090909090909" y="961.8181818181819" type="curve"/>
      <point x="910.9090909090909" y="961.8181818181819"/>
      <point x="952.1818181818181" y="957.2727272727273"/>
      <point x="998.1818181818181" y="941.2727272727273" type="curve"/>
      <point x="1048.0" y="1046.0" type="line"/>
      <point x="994.0" y="1064.0"/>
      <point x="934.0" y="1074.0"/>
      <point x="884.0" y="1074.0" type="curve"/>
      <point x="705.6363636363636" y="1074.0"/>
      <point x="540.0" y="946.0"/>
      <point x="510.0" y="714.0" type="curve"/>
      <point x="482.0" y="480.0"/>
      <point x="613.6363636363636" y="352.0"/>
    </contour>
    <contour>
      <point x="735.0909090909091" y="183.45454545454547" type="curve"/>
      <point x="442.72727272727275" y="184.9090909090909"/>
      <point x="261.45454545454544" y="394.0"/>
      <point x="299.45454545454544" y="708.0" type="curve" smooth="yes"/>
      <point x="337.45454545454544" y="1026.0"/>
      <point x="571.6363636363636" y="1239.090909090909"/>
      <point x="865.4545454545455" y="1240.5454545454545" type="curve"/>
      <point x="1153.2727272727273" y="1240.5454545454545"/>
      <point x="1332.5454545454545" y="1026.0"/>
      <point x="1294.5454545454545" y="714.0" type="curve" smooth="yes"/>
      <point x="1256.5454545454545" y="394.0"/>
      <point x="1022.9090909090909" y="180.54545454545453"/>
    </contour>
  </outline>
</glyph>
<glyph name="ordfeminine" format="2">
  <advance width="1054.0"/>
  <unicode hex="00AA"/>
  <outline>
    <contour>
      <point x="392.90909090909093" y="590.0" type="curve" smooth="yes"/>
      <point x="463.27272727272725" y="590.0"/>
      <point x="526.1818181818181" y="608.9090909090909"/>
      <point x="599.6363636363636" y="676.0" type="curve"/>
      <point x="617.6363636363636" y="700.0" type="line"/>
      <point x="616.1818181818181" y="676.0" type="line"/>
      <point x="624.1818181818181" y="646.0"/>
      <point x="634.1818181818181" y="621.0909090909091"/>
      <point x="658.5454545454545" y="604.0" type="curve"/>
      <point x="769.4545454545455" y="604.0" type="line"/>
      <point x="763.4545454545455" y="654.0"/>
      <point x="761.4545454545455" y="732.0"/>
      <point x="775.4545454545455" y="844.0" type="curve" name="hr00"/>
      <point x="801.4545454545455" y="1044.0" type="line"/>
      <point x="823.4545454545455" y="1232.0"/>
      <point x="728.0" y="1342.0"/>
      <point x="541.2727272727273" y="1342.0" type="curve" smooth="yes"/>
      <point x="479.27272727272725" y="1342.0"/>
      <point x="406.54545454545456" y="1334.0"/>
      <point x="312.54545454545456" y="1294.0" type="curve"/>
      <point x="334.1818181818182" y="1194.909090909091" type="line"/>
      <point x="401.45454545454544" y="1218.3636363636363"/>
      <point x="450.72727272727275" y="1227.8181818181818"/>
      <point x="500.72727272727275" y="1227.8181818181818" type="curve" smooth="yes"/>
      <point x="620.0" y="1227.8181818181818"/>
      <point x="666.5454545454545" y="1164.0"/>
      <point x="652.5454545454545" y="1054.0" type="curve"/>
      <point x="621.0909090909091" y="799.0909090909091" type="line"/>
      <point x="560.7272727272727" y="730.3636363636364"/>
      <point x="490.90909090909093" y="701.4545454545455"/>
      <point x="428.90909090909093" y="701.4545454545455" type="curve" smooth="yes"/>
      <point x="362.3636363636364" y="701.4545454545455"/>
      <point x="330.0" y="743.2727272727273"/>
      <point x="335.45454545454544" y="798.0" type="curve" smooth="yes"/>
      <point x="342.90909090909093" y="848.9090909090909"/>
      <point x="372.54545454545456" y="893.6363636363636"/>
      <point x="486.0" y="912.0" type="curve" smooth="yes"/>
      <point x="560.0" y="923.0909090909091"/>
      <point x="590.5454545454545" y="997.4545454545455"/>
      <point x="600.5454545454545" y="1029.4545454545455" type="curve"/>
      <point x="308.54545454545456" y="997.4545454545455"/>
      <point x="198.0" y="927.2727272727273"/>
      <point x="180.54545454545453" y="788.0" type="curve" smooth="yes"/>
      <point x="166.0" y="672.1818181818181"/>
      <point x="251.27272727272728" y="590.0"/>
    </contour>
  </outline>
</glyph>
<glyph name="logicalnot" format="2">
  <advance width="1150.0"/>
  <unicode hex="00AC"/>
  <outline>
    <contour>
      <point x="940.7272727272727" y="312.0" type="line"/>
      <point x="1105.2727272727273" y="312.0" type="line"/>
      <point x="1174.3636363636363" y="885.2727272727273" type="line" name="hr00"/>
      <point x="193.0909090909091" y="885.2727272727273" type="line"/>
      <point x="174.9090909090909" y="738.7272727272727" type="line"/>
      <point x="991.6363636363636" y="738.7272727272727" type="line"/>
    </contour>
  </outline>
</glyph>
<glyph name="registered" format="2">
  <advance width="1440.0"/>
  <unicode hex="00AE"/>
  <outline>
    <contour>
      <point x="719.4545454545455" y="56.54545454545455" type="curve" smooth="yes"/>
      <point x="1103.4545454545455" y="56.54545454545455"/>
      <point x="1405.4545454545455" y="352.0"/>
      <point x="1449.4545454545455" y="714.0" type="curve" smooth="yes"/>
      <point x="1494.5454545454545" y="1078.1818181818182"/>
      <point x="1267.2727272727273" y="1365.4545454545455"/>
      <point x="880.5454545454545" y="1365.4545454545455" type="curve" name="hr00"/>
      <point x="492.54545454545456" y="1365.4545454545455"/>
      <point x="188.54545454545453" y="1070.0"/>
      <point x="144.54545454545453" y="714.0" type="curve" smooth="yes"/>
      <point x="99.45454545454545" y="343.8181818181818"/>
      <point x="328.72727272727275" y="56.54545454545455"/>
    </contour>
    <contour>
      <point x="735.0909090909091" y="183.45454545454547" type="curve"/>
      <point x="442.72727272727275" y="184.9090909090909"/>
      <point x="261.45454545454544" y="394.0"/>
      <point x="299.45454545454544" y="708.0" type="curve" smooth="yes"/>
      <point x="337.45454545454544" y="1026.0"/>
      <point x="571.6363636363636" y="1239.090909090909"/>
      <point x="865.4545454545455" y="1240.5454545454545" type="curve"/>
      <point x="1153.2727272727273" y="1240.5454545454545"/>
      <point x="1332.5454545454545" y="1026.0"/>
      <point x="1294.5454545454545" y="714.0" type="curve" smooth="yes"/>
      <point x="1256.5454545454545" y="394.0"/>
      <point x="1022.9090909090909" y="180.54545454545453"/>
    </contour>
    <contour>
      <point x="542.5454545454545" y="378.0" type="line"/>
      <point x="677.4545454545455" y="378.0" type="line"/>
      <point x="748.3636363636364" y="959.8181818181819" type="line"/>
      <point x="784.3636363636364" y="963.8181818181819"/>
      <point x="800.9090909090909" y="965.8181818181819"/>
      <point x="824.9090909090909" y="965.8181818181819" type="curve" smooth="yes"/>
      <point x="904.9090909090909" y="965.8181818181819"/>
      <point x="952.5454545454545" y="919.8181818181819"/>
      <point x="944.5454545454545" y="862.0" type="curve" smooth="yes"/>
      <point x="939.0909090909091" y="811.6363636363636"/>
      <point x="903.0909090909091" y="767.4545454545455"/>
      <point x="856.5454545454545" y="758.3636363636364" type="curve" smooth="yes"/>
      <point x="796.5454545454545" y="748.7272727272727"/>
      <point x="770.9090909090909" y="699.0909090909091"/>
      <point x="751.4545454545455" y="661.6363636363636" type="curve"/>
      <point x="780.5454545454545" y="661.6363636363636"/>
      <point x="774.7272727272727" y="661.6363636363636"/>
      <point x="803.8181818181819" y="663.0909090909091" type="curve"/>
      <point x="896.3636363636364" y="625.0909090909091"/>
      <point x="868.5454545454545" y="486.0"/>
      <point x="906.5454545454545" y="378.0" type="curve"/>
      <point x="1049.4545454545455" y="378.0" type="line"/>
      <point x="1008.0" y="498.90909090909093"/>
      <point x="1027.4545454545455" y="616.1818181818181"/>
      <point x="955.0909090909091" y="676.1818181818181" type="curve"/>
      <point x="935.6363636363636" y="688.9090909090909" type="line"/>
      <point x="957.8181818181819" y="695.4545454545455" type="line"/>
      <point x="1027.2727272727273" y="729.4545454545455"/>
      <point x="1076.0" y="787.0909090909091"/>
      <point x="1085.4545454545455" y="862.0" type="curve"/>
      <point x="1101.4545454545455" y="992.0"/>
      <point x="994.9090909090909" y="1072.0"/>
      <point x="838.0" y="1072.0" type="curve" smooth="yes"/>
      <point x="768.0" y="1072.0"/>
      <point x="702.5454545454545" y="1062.909090909091"/>
      <point x="624.0" y="1044.909090909091" type="curve"/>
    </contour>
  </outline>
</glyph>
<glyph name="degree" format="2">
  <advance width="674.0"/>
  <unicode hex="00B0"/>
  <outline>
    <contour>
      <point x="467.45454545454544" y="960.5454545454545" type="curve"/>
      <point x="610.5454545454545" y="960.5454545454545"/>
      <point x="777.4545454545455" y="1067.6363636363637"/>
      <point x="799.4545454545455" y="1246.0" type="curve"/>
      <point x="821.4545454545455" y="1428.5454545454545"/>
      <point x="679.6363636363636" y="1531.4545454545455"/>
      <point x="536.5454545454545" y="1531.4545454545455" type="curve"/>
      <point x="371.6363636363636" y="1531.4545454545455"/>
      <point x="223.63636363636363" y="1402.5454545454545"/>
      <point x="204.54545454545453" y="1246.0" type="curve"/>
      <point x="184.0" y="1078.0"/>
      <point x="309.8181818181818" y="960.5454545454545"/>
    </contour>
    <contour>
      <point x="481.09090909090907" y="1073.090909090909" type="curve"/>
      <point x="378.3636363636364" y="1073.090909090909"/>
      <point x="330.54545454545456" y="1153.2727272727273"/>
      <point x="342.54545454545456" y="1246.0" type="curve"/>
      <point x="353.09090909090907" y="1334.3636363636363"/>
      <point x="420.72727272727275" y="1419.4545454545455"/>
      <point x="523.4545454545455" y="1419.4545454545455" type="curve" name="hr00"/>
      <point x="607.2727272727273" y="1419.4545454545455"/>
      <point x="676.9090909090909" y="1353.2727272727273"/>
      <point x="663.4545454545455" y="1246.0" type="curve"/>
      <point x="654.3636363636364" y="1166.3636363636363"/>
      <point x="588.1818181818181" y="1073.090909090909"/>
    </contour>
  </outline>
</glyph>
<glyph name="plusminus" format="2">
  <advance width="1136.0"/>
  <unicode hex="00B1"/>
  <outline>
    <contour>
      <point x="508.3636363636364" y="254.9090909090909" type="line"/>
      <point x="672.3636363636364" y="254.9090909090909" type="line"/>
      <point x="715.6363636363636" y="597.2727272727273" type="line"/>
      <point x="1102.909090909091" y="597.2727272727273" type="line"/>
      <point x="1121.090909090909" y="742.7272727272727" type="line"/>
      <point x="733.8181818181819" y="742.7272727272727" type="line"/>
      <point x="775.0909090909091" y="1081.090909090909" type="line"/>
      <point x="611.0909090909091" y="1081.090909090909" type="line"/>
      <point x="569.8181818181819" y="742.7272727272727" type="line"/>
      <point x="185.0909090909091" y="742.7272727272727" type="line" name="hr00"/>
      <point x="166.9090909090909" y="597.2727272727273" type="line"/>
      <point x="551.6363636363636" y="597.2727272727273" type="line"/>
    </contour>
    <contour>
      <point x="94.0" y="0.0" type="line"/>
      <point x="1030.0" y="0.0" type="line"/>
      <point x="1046.7272727272727" y="145.0909090909091" type="line"/>
      <point x="110.72727272727273" y="145.0909090909091" type="line"/>
    </contour>
  </outline>
</glyph>
<glyph name="twosuperior" format="2">
  <advance width="804.0"/>
  <unicode hex="00B2"/>
  <outline>
    <contour>
      <point x="219.8181818181818" y="620.0" type="line"/>
      <point x="744.0" y="620.0" type="line"/>
      <point x="759.0909090909091" y="746.1818181818181" type="line"/>
      <point x="439.6363636363636" y="746.1818181818181" type="line"/>
      <point x="413.09090909090907" y="742.1818181818181" type="line"/>
      <point x="433.6363636363636" y="762.1818181818181" type="line"/>
      <point x="550.3636363636364" y="918.1818181818181"/>
      <point x="789.4545454545455" y="1064.0"/>
      <point x="813.4545454545455" y="1256.0" type="curve" smooth="yes" name="hr00"/>
      <point x="829.4545454545455" y="1394.0"/>
      <point x="714.7272727272727" y="1472.0"/>
      <point x="567.4545454545455" y="1472.0" type="curve" smooth="yes"/>
      <point x="503.45454545454544" y="1472.0"/>
      <point x="430.0" y="1461.4545454545455"/>
      <point x="354.0" y="1422.0" type="curve"/>
      <point x="388.72727272727275" y="1322.909090909091" type="line"/>
      <point x="442.90909090909093" y="1343.8181818181818"/>
      <point x="488.90909090909093" y="1355.8181818181818"/>
      <point x="534.9090909090909" y="1355.8181818181818" type="curve"/>
      <point x="617.2727272727273" y="1355.8181818181818"/>
      <point x="671.4545454545455" y="1323.2727272727273"/>
      <point x="662.5454545454545" y="1242.0" type="curve"/>
      <point x="643.0909090909091" y="1086.7272727272727"/>
      <point x="412.90909090909093" y="951.6363636363636"/>
      <point x="228.36363636363637" y="696.9090909090909" type="curve"/>
    </contour>
  </outline>
</glyph>
<glyph name="threesuperior" format="2">
  <advance width="762.0"/>
  <unicode hex="00B3"/>
  <outline>
    <contour>
      <point x="388.0" y="602.0" type="curve" smooth="yes"/>
      <point x="572.0" y="602.0"/>
      <point x="714.3636363636364" y="718.9090909090909"/>
      <point x="732.9090909090909" y="862.9090909090909" type="curve" smooth="yes"/>
      <point x="747.4545454545455" y="982.9090909090909"/>
      <point x="665.4545454545455" y="1055.090909090909"/>
      <point x="577.4545454545455" y="1077.090909090909" type="curve"/>
      <point x="673.4545454545455" y="1119.090909090909"/>
      <point x="745.4545454545455" y="1194.909090909091"/>
      <point x="755.4545454545455" y="1278.909090909091" type="curve" smooth="yes"/>
      <point x="770.0" y="1395.4545454545455"/>
      <point x="678.0" y="1470.0"/>
      <point x="532.0" y="1470.0" type="curve" smooth="yes"/>
      <point x="466.0" y="1470.0"/>
      <point x="394.54545454545456" y="1459.4545454545455"/>
      <point x="316.0" y="1420.0" type="curve"/>
      <point x="350.0" y="1319.4545454545455" type="line"/>
      <point x="406.54545454545456" y="1340.3636363636363"/>
      <point x="458.90909090909093" y="1351.8181818181818"/>
      <point x="504.90909090909093" y="1351.8181818181818" type="curve" smooth="yes" name="hr01"/>
      <point x="573.0909090909091" y="1351.8181818181818"/>
      <point x="609.4545454545455" y="1312.909090909091"/>
      <point x="602.5454545454545" y="1262.0" type="curve"/>
      <point x="594.5454545454545" y="1194.1818181818182"/>
      <point x="526.5454545454545" y="1155.8181818181818"/>
      <point x="450.54545454545456" y="1125.8181818181818" type="curve" smooth="yes"/>
      <point x="384.54545454545456" y="1099.8181818181818" type="line"/>
      <point x="384.54545454545456" y="1005.2727272727273" type="line"/>
      <point x="520.5454545454545" y="1005.2727272727273"/>
      <point x="594.0" y="961.6363636363636"/>
      <point x="582.5454545454545" y="866.0" type="curve" smooth="yes"/>
      <point x="572.5454545454545" y="791.6363636363636"/>
      <point x="505.6363636363636" y="720.1818181818181"/>
      <point x="401.09090909090907" y="720.1818181818181" type="curve" smooth="yes"/>
      <point x="331.09090909090907" y="720.1818181818181"/>
      <point x="285.27272727272725" y="739.6363636363636"/>
      <point x="240.72727272727272" y="759.6363636363636" type="curve"/>
      <point x="190.0" y="658.0" type="line"/>
      <point x="226.0" y="634.0"/>
      <point x="298.72727272727275" y="602.0"/>
    </contour>
  </outline>
</glyph>
<glyph name="micro" format="2">
  <advance width="1106.0"/>
  <unicode hex="00B5"/>
  <outline>
    <contour>
      <point x="86.18181818181819" y="-422.0" type="line"/>
      <point x="277.8181818181818" y="-422.0" type="line"/>
      <point x="331.27272727272725" y="25.636363636363637" type="line"/>
      <point x="335.27272727272725" y="85.27272727272728" type="line"/>
      <point x="360.72727272727275" y="44.0" type="line"/>
      <point x="397.27272727272725" y="3.272727272727273"/>
      <point x="458.72727272727275" y="-20.0"/>
      <point x="526.0" y="-20.0" type="curve" smooth="yes"/>
      <point x="654.1818181818181" y="-20.0"/>
      <point x="741.4545454545455" y="43.81818181818182"/>
      <point x="802.1818181818181" y="117.0909090909091" type="curve"/>
      <point x="830.0" y="162.36363636363637" type="line"/>
      <point x="833.0909090909091" y="117.63636363636364" type="line"/>
      <point x="851.4545454545455" y="20.0"/>
      <point x="921.4545454545455" y="-16.0"/>
      <point x="999.6363636363636" y="-16.0" type="curve" smooth="yes"/>
      <point x="1029.6363636363637" y="-16.0"/>
      <point x="1073.4545454545455" y="-9.454545454545455"/>
      <point x="1119.4545454545455" y="7.090909090909091" type="curve"/>
      <point x="1117.4545454545455" y="146.54545454545453" type="line"/>
      <point x="1033.4545454545455" y="142.54545454545453"/>
      <point x="1011.4545454545455" y="182.54545454545453"/>
      <point x="1025.4545454545455" y="294.54545454545456" type="curve" smooth="yes"/>
      <point x="1115.8181818181818" y="1034.0" type="line"/>
      <point x="910.1818181818181" y="1034.0" type="line"/>
      <point x="832.1818181818181" y="398.0" type="line" smooth="yes"/>
      <point x="814.7272727272727" y="258.3636363636364"/>
      <point x="687.6363636363636" y="142.54545454545453"/>
      <point x="563.6363636363636" y="142.54545454545453" type="curve" smooth="yes" name="hr01"/>
      <point x="427.09090909090907" y="142.54545454545453"/>
      <point x="373.8181818181818" y="262.0"/>
      <point x="391.8181818181818" y="420.0" type="curve" smooth="yes"/>
      <point x="467.8181818181818" y="1034.0" type="line"/>
      <point x="264.1818181818182" y="1034.0" type="line"/>
    </contour>
  </outline>
</glyph>
<glyph name="paragraph" format="2">
  <advance width="1218.0"/>
  <unicode hex="00B6"/>
  <outline>
    <contour>
      <point x="642.0" y="-60.0" type="line"/>
      <point x="788.0" y="-60.0" type="line"/>
      <point x="958.0" y="1332.0" type="line"/>
      <point x="1006.0" y="1330.0"/>
      <point x="1058.0" y="1326.0"/>
      <point x="1116.0" y="1316.0" type="curve"/>
      <point x="948.0" y="-60.0" type="line"/>
      <point x="1094.0" y="-60.0" type="line"/>
      <point x="1278.0" y="1440.0" type="line"/>
      <point x="1132.0" y="1470.0"/>
      <point x="1032.0" y="1480.0"/>
      <point x="886.0" y="1480.0" type="curve" smooth="yes"/>
      <point x="564.0" y="1480.0"/>
      <point x="364.0" y="1272.0"/>
      <point x="334.0" y="1040.0" type="curve" smooth="yes"/>
      <point x="304.0" y="794.0"/>
      <point x="482.0" y="630.0"/>
      <point x="720.0" y="610.0" type="curve"/>
      <point x="720.0" y="610.0"/>
      <point x="722.0" y="608.0"/>
      <point x="724.0" y="608.0" type="curve" name="hr00"/>
    </contour>
  </outline>
</glyph>
<glyph name="onesuperior" format="2">
  <advance width="638.0"/>
  <unicode hex="00B9"/>
  <outline>
    <contour>
      <point x="429.8181818181818" y="618.0" type="line" name="hr00"/>
      <point x="584.1818181818181" y="618.0" type="line"/>
      <point x="688.1818181818181" y="1454.0" type="line"/>
      <point x="614.0" y="1454.0" type="line"/>
      <point x="337.6363636363636" y="1315.090909090909" type="line"/>
      <point x="383.45454545454544" y="1211.8181818181818" type="line"/>
      <point x="511.6363636363636" y="1273.090909090909" type="line"/>
    </contour>
  </outline>
</glyph>
<glyph name="ordmasculine" format="2">
  <advance width="860.0"/>
  <unicode hex="00BA"/>
  <outline>
    <contour>
      <point x="500.0" y="588.0" type="curve" name="hr00"/>
      <point x="709.0909090909091" y="588.0"/>
      <point x="862.5454545454545" y="742.7272727272727"/>
      <point x="889.4545454545455" y="966.0" type="curve"/>
      <point x="918.3636363636364" y="1208.7272727272727"/>
      <point x="787.2727272727273" y="1342.0"/>
      <point x="592.0" y="1342.0" type="curve"/>
      <point x="376.0" y="1342.0"/>
      <point x="228.54545454545453" y="1174.0"/>
      <point x="202.54545454545453" y="966.0" type="curve"/>
      <point x="174.0" y="732.7272727272727"/>
      <point x="293.6363636363636" y="588.0"/>
    </contour>
    <contour>
      <point x="513.0909090909091" y="706.1818181818181" type="curve"/>
      <point x="399.8181818181818" y="706.1818181818181"/>
      <point x="339.09090909090907" y="801.6363636363636"/>
      <point x="359.45454545454544" y="966.0" type="curve"/>
      <point x="375.45454545454544" y="1104.0"/>
      <point x="452.90909090909093" y="1225.8181818181818"/>
      <point x="576.9090909090909" y="1225.8181818181818" type="curve"/>
      <point x="714.1818181818181" y="1225.8181818181818"/>
      <point x="750.5454545454545" y="1097.2727272727273"/>
      <point x="734.5454545454545" y="966.0" type="curve"/>
      <point x="716.5454545454545" y="825.0909090909091"/>
      <point x="637.8181818181819" y="706.1818181818181"/>
    </contour>
  </outline>
</glyph>
<glyph name="onequarter" format="2">
  <advance width="1396.0"/>
  <unicode hex="00BC"/>
  <outline>
    <contour>
      <point x="165.45454545454547" y="0.0" type="line" name="hr00"/>
      <point x="314.54545454545456" y="0.0" type="line"/>
      <point x="1364.5454545454545" y="1454.0" type="line"/>
      <point x="1215.4545454545455" y="1454.0" type="line"/>
    </contour>
    <contour>
      <point x="309.8181818181818" y="618.0" type="line"/>
      <point x="464.1818181818182" y="618.0" type="line"/>
      <point x="568.1818181818181" y="1454.0" type="line"/>
      <point x="494.0" y="1454.0" type="line"/>
      <point x="217.63636363636363" y="1315.090909090909" type="line"/>
      <point x="263.45454545454544" y="1211.8181818181818" type="line"/>
      <point x="391.6363636363636" y="1273.090909090909" type="line"/>
    </contour>
    <contour>
      <point x="1082.5454545454545" y="0.0" type="line"/>
      <point x="1221.4545454545455" y="0.0" type="line"/>
      <point x="1241.4545454545455" y="174.1818181818182" type="line"/>
      <point x="1337.4545454545455" y="174.1818181818182" type="line"/>
      <point x="1352.0" y="290.3636363636364" type="line"/>
      <point x="1256.0" y="290.3636363636364" type="line"/>
      <point x="1323.4545454545455" y="846.0" type="line"/>
      <point x="1166.5454545454545" y="846.0" type="line"/>
      <point x="724.5454545454545" y="288.90909090909093" type="line"/>
      <point x="710.5454545454545" y="174.1818181818182" type="line"/>
      <point x="1046.7272727272727" y="174.1818181818182" type="line"/>
      <point x="1032.7272727272727" y="221.0909090909091"/>
      <point x="1000.0" y="291.8181818181818"/>
      <point x="924.3636363636364" y="291.8181818181818" type="curve"/>
      <point x="898.1818181818181" y="291.8181818181818" type="line"/>
      <point x="866.9090909090909" y="288.90909090909093" type="line"/>
      <point x="888.7272727272727" y="311.8181818181818" type="line"/>
      <point x="1131.090909090909" y="608.9090909090909" type="line"/>
      <point x="1165.2727272727273" y="654.5454545454545" type="line"/>
      <point x="1156.3636363636363" y="606.0" type="line"/>
    </contour>
  </outline>
</glyph>
<glyph name="onehalf" format="2">
  <advance width="1526.0"/>
  <unicode hex="00BD"/>
  <outline>
    <contour>
      <point x="165.45454545454547" y="0.0" type="line" name="hr00"/>
      <point x="314.54545454545456" y="0.0" type="line"/>
      <point x="1364.5454545454545" y="1454.0" type="line"/>
      <point x="1215.4545454545455" y="1454.0" type="line"/>
    </contour>
    <contour>
      <point x="309.8181818181818" y="618.0" type="line"/>
      <point x="464.1818181818182" y="618.0" type="line"/>
      <point x="568.1818181818181" y="1454.0" type="line"/>
      <point x="494.0" y="1454.0" type="line"/>
      <point x="217.63636363636363" y="1315.090909090909" type="line"/>
      <point x="263.45454545454544" y="1211.8181818181818" type="line"/>
      <point x="391.6363636363636" y="1273.090909090909" type="line"/>
    </contour>
    <contour>
      <point x="849.8181818181819" y="0.0" type="line"/>
      <point x="1374.0" y="0.0" type="line"/>
      <point x="1389.090909090909" y="126.18181818181819" type="line"/>
      <point x="1071.8181818181818" y="126.18181818181819" type="line"/>
      <point x="1041.6363636363637" y="122.18181818181819" type="line"/>
      <point x="1064.1818181818182" y="143.27272727272728" type="line"/>
      <point x="1180.909090909091" y="299.27272727272725"/>
      <point x="1419.4545454545455" y="444.0"/>
      <point x="1443.4545454545455" y="636.0" type="curve" smooth="yes"/>
      <point x="1459.4545454545455" y="774.0"/>
      <point x="1344.7272727272727" y="852.0"/>
      <point x="1197.4545454545455" y="852.0" type="curve" smooth="yes"/>
      <point x="1133.4545454545455" y="852.0"/>
      <point x="1060.0" y="841.4545454545455"/>
      <point x="984.0" y="802.0" type="curve"/>
      <point x="1018.1818181818181" y="702.9090909090909" type="line"/>
      <point x="1071.4545454545455" y="723.8181818181819"/>
      <point x="1118.909090909091" y="735.8181818181819"/>
      <point x="1164.909090909091" y="735.8181818181819" type="curve"/>
      <point x="1247.2727272727273" y="735.8181818181819"/>
      <point x="1301.4545454545455" y="703.2727272727273"/>
      <point x="1292.5454545454545" y="622.0" type="curve"/>
      <point x="1273.090909090909" y="466.72727272727275"/>
      <point x="1042.909090909091" y="331.6363636363636"/>
      <point x="858.3636363636364" y="76.9090909090909" type="curve"/>
    </contour>
  </outline>
</glyph>
<glyph name="threequarters" format="2">
  <advance width="1432.0"/>
  <unicode hex="00BE"/>
  <outline>
    <contour>
      <point x="240.36363636363637" y="0.0" type="line"/>
      <point x="389.45454545454544" y="0.0" type="line"/>
      <point x="1439.4545454545455" y="1454.0" type="line"/>
      <point x="1290.3636363636363" y="1454.0" type="line"/>
    </contour>
    <contour>
      <point x="326.54545454545456" y="602.0" type="curve" smooth="yes"/>
      <point x="510.54545454545456" y="602.0"/>
      <point x="652.9090909090909" y="718.9090909090909"/>
      <point x="671.4545454545455" y="862.9090909090909" type="curve" smooth="yes"/>
      <point x="686.0" y="982.9090909090909"/>
      <point x="604.0" y="1055.090909090909"/>
      <point x="516.0" y="1077.090909090909" type="curve"/>
      <point x="612.0" y="1119.090909090909"/>
      <point x="684.0" y="1194.909090909091"/>
      <point x="694.0" y="1278.909090909091" type="curve" smooth="yes"/>
      <point x="708.5454545454545" y="1395.4545454545455"/>
      <point x="616.5454545454545" y="1470.0"/>
      <point x="470.54545454545456" y="1470.0" type="curve" smooth="yes"/>
      <point x="404.54545454545456" y="1470.0"/>
      <point x="333.09090909090907" y="1459.4545454545455"/>
      <point x="254.54545454545453" y="1420.0" type="curve"/>
      <point x="288.54545454545456" y="1319.4545454545455" type="line"/>
      <point x="345.09090909090907" y="1340.3636363636363"/>
      <point x="397.45454545454544" y="1351.8181818181818"/>
      <point x="443.45454545454544" y="1351.8181818181818" type="curve" smooth="yes" name="hr02"/>
      <point x="511.6363636363636" y="1351.8181818181818"/>
      <point x="548.0" y="1312.909090909091"/>
      <point x="541.0909090909091" y="1262.0" type="curve"/>
      <point x="533.0909090909091" y="1194.1818181818182"/>
      <point x="465.09090909090907" y="1155.8181818181818"/>
      <point x="389.09090909090907" y="1125.8181818181818" type="curve" smooth="yes"/>
      <point x="323.09090909090907" y="1099.8181818181818" type="line"/>
      <point x="323.09090909090907" y="1005.2727272727273" type="line" name="hr01"/>
      <point x="459.09090909090907" y="1005.2727272727273"/>
      <point x="532.5454545454545" y="961.6363636363636"/>
      <point x="521.0909090909091" y="866.0" type="curve" smooth="yes"/>
      <point x="511.09090909090907" y="791.6363636363636"/>
      <point x="444.1818181818182" y="720.1818181818181"/>
      <point x="339.6363636363636" y="720.1818181818181" type="curve" smooth="yes"/>
      <point x="269.6363636363636" y="720.1818181818181"/>
      <point x="223.8181818181818" y="739.6363636363636"/>
      <point x="179.27272727272728" y="759.6363636363636" type="curve"/>
      <point x="128.54545454545453" y="658.0" type="line"/>
      <point x="164.54545454545453" y="634.0"/>
      <point x="237.27272727272728" y="602.0"/>
    </contour>
    <contour>
      <point x="1157.4545454545455" y="0.0" type="line"/>
      <point x="1296.3636363636363" y="0.0" type="line"/>
      <point x="1316.3636363636363" y="174.1818181818182" type="line"/>
      <point x="1412.3636363636363" y="174.1818181818182" type="line"/>
      <point x="1426.909090909091" y="290.3636363636364" type="line"/>
      <point x="1330.909090909091" y="290.3636363636364" type="line"/>
      <point x="1398.3636363636363" y="846.0" type="line"/>
      <point x="1241.4545454545455" y="846.0" type="line"/>
      <point x="799.4545454545455" y="288.90909090909093" type="line"/>
      <point x="785.4545454545455" y="174.1818181818182" type="line"/>
      <point x="1121.6363636363637" y="174.1818181818182" type="line"/>
      <point x="1107.6363636363637" y="221.0909090909091"/>
      <point x="1074.909090909091" y="291.8181818181818"/>
      <point x="999.2727272727273" y="291.8181818181818" type="curve"/>
      <point x="947.6363636363636" y="291.8181818181818" type="line"/>
      <point x="1235.8181818181818" y="645.8181818181819" type="line"/>
    </contour>
  </outline>
</glyph>
<glyph name="questiondown" format="2">
  <advance width="1166.0"/>
  <unicode hex="00BF"/>
  <outline>
    <contour>
      <point x="555.0909090909091" y="-440.54545454545456" type="curve" smooth="yes" name="hr00"/>
      <point x="665.0909090909091" y="-440.54545454545456"/>
      <point x="772.0" y="-424.54545454545456"/>
      <point x="910.5454545454545" y="-358.54545454545456" type="curve"/>
      <point x="872.7272727272727" y="-209.8181818181818" type="line"/>
      <point x="753.2727272727273" y="-266.72727272727275"/>
      <point x="671.2727272727273" y="-279.0909090909091"/>
      <point x="595.2727272727273" y="-279.0909090909091" type="curve"/>
      <point x="474.0" y="-279.0909090909091"/>
      <point x="398.72727272727275" y="-205.0909090909091"/>
      <point x="411.6363636363636" y="-103.45454545454545" type="curve" smooth="yes"/>
      <point x="441.45454545454544" y="145.45454545454547"/>
      <point x="788.0" y="224.0"/>
      <point x="838.3636363636364" y="638.9090909090909" type="curve"/>
      <point x="669.2727272727273" y="638.9090909090909" type="line"/>
      <point x="628.0" y="300.72727272727275"/>
      <point x="226.0" y="186.36363636363637"/>
      <point x="187.0909090909091" y="-133.45454545454547" type="curve" smooth="yes"/>
      <point x="166.0" y="-312.3636363636364"/>
      <point x="315.27272727272725" y="-440.54545454545456"/>
    </contour>
    <contour>
      <point x="774.7272727272727" y="797.8181818181819" type="curve" smooth="yes"/>
      <point x="849.8181818181819" y="797.8181818181819"/>
      <point x="914.3636363636364" y="856.3636363636364"/>
      <point x="924.9090909090909" y="932.3636363636364" type="curve" smooth="yes"/>
      <point x="933.4545454545455" y="1006.9090909090909"/>
      <point x="883.0909090909091" y="1062.909090909091"/>
      <point x="808.0" y="1062.909090909091" type="curve" smooth="yes"/>
      <point x="732.0" y="1062.909090909091"/>
      <point x="667.4545454545455" y="1006.9090909090909"/>
      <point x="658.9090909090909" y="932.3636363636364" type="curve" smooth="yes"/>
      <point x="648.3636363636364" y="856.3636363636364"/>
      <point x="698.7272727272727" y="797.8181818181819"/>
    </contour>
  </outline>
</glyph>
<glyph name="AE" format="2">
  <advance width="1950.0"/>
  <unicode hex="00C6"/>
  <anchor x="936.7272727272727" y="0.0" name="bottom"/>
  <anchor x="1117.8181818181818" y="1454.0" name="top"/>
  <outline>
    <contour>
      <point x="30.545454545454547" y="0.0" type="line"/>
      <point x="251.45454545454544" y="0.0" type="line"/>
      <point x="460.90909090909093" y="339.8181818181818" type="line"/>
      <point x="964.9090909090909" y="339.8181818181818" type="line"/>
      <point x="946.9090909090909" y="419.09090909090907"/>
      <point x="908.3636363636364" y="500.72727272727275"/>
      <point x="806.9090909090909" y="500.72727272727275" type="curve" smooth="yes"/>
      <point x="584.1818181818181" y="500.72727272727275" type="line"/>
      <point x="545.0909090909091" y="496.72727272727275" type="line"/>
      <point x="579.6363636363636" y="538.1818181818181" type="line"/>
      <point x="978.5454545454545" y="1182.1818181818182" type="line"/>
      <point x="1017.4545454545455" y="1259.4545454545455" type="line"/>
      <point x="1012.0" y="1181.090909090909" type="line" name="hr00"/>
      <point x="1051.2727272727273" y="0.0" type="line"/>
      <point x="1828.5454545454545" y="0.0" type="line"/>
      <point x="1846.7272727272727" y="160.9090909090909" type="line"/>
      <point x="1245.8181818181818" y="160.9090909090909" type="line"/>
      <point x="1212.0" y="1293.090909090909" type="line"/>
      <point x="1845.8181818181818" y="1293.090909090909" type="line"/>
      <point x="1866.0" y="1454.0" type="line"/>
      <point x="948.1818181818181" y="1454.0" type="line"/>
    </contour>
    <contour>
      <point x="1300.0" y="683.8181818181819" type="curve"/>
      <point x="1790.909090909091" y="683.8181818181819" type="line"/>
      <point x="1811.090909090909" y="840.7272727272727" type="line"/>
      <point x="1501.6363636363637" y="840.7272727272727" type="line"/>
      <point x="1394.1818181818182" y="840.7272727272727"/>
      <point x="1336.1818181818182" y="765.8181818181819"/>
    </contour>
  </outline>
</glyph>
<glyph name="multiply" format="2">
  <advance width="1136.0"/>
  <unicode hex="00D7"/>
  <outline>
    <contour>
      <point x="223.0909090909091" y="149.8181818181818" type="line"/>
      <point x="622.3636363636364" y="503.6363636363636" type="line"/>
      <point x="932.7272727272727" y="149.8181818181818" type="line"/>
      <point x="1053.2727272727273" y="256.1818181818182" type="line"/>
      <point x="742.3636363636364" y="612.0" type="line"/>
      <point x="1135.090909090909" y="963.8181818181819" type="line"/>
      <point x="1042.909090909091" y="1070.1818181818182" type="line"/>
      <point x="649.6363636363636" y="718.3636363636364" type="line"/>
      <point x="339.27272727272725" y="1070.1818181818182" type="line"/>
      <point x="216.72727272727272" y="963.8181818181819" type="line"/>
      <point x="527.6363636363636" y="612.0" type="line"/>
      <point x="130.9090909090909" y="256.1818181818182" type="line" name="hr00"/>
    </contour>
  </outline>
</glyph>
